<svg width="173" height="98" viewBox="0 0 173 98" fill="none" xmlns="http://www.w3.org/2000/svg">
<path d="M68.4527 97.105C50.217 97.105 35.6837 97.0241 21.1525 97.1502C16.2146 97.1932 11.2861 97.2437 6.35345 97.2731C4.43501 97.2846 2.69938 96.7173 1.3882 95.1981C0.56346 94.242 0.0223882 93.1683 0.0223882 91.8813C0.0160845 89.2547 -0.0280425 86.6282 0.0412987 84.0016C0.0959311 81.9802 0.753622 80.0817 1.67187 78.2999C2.90298 75.8879 4.7382 73.8362 6.99853 72.3449C7.7912 71.8287 8.63172 71.3899 9.50847 71.0348C13.109 69.5377 16.1116 67.2137 18.609 64.2772C21.5224 60.8511 23.363 56.8776 23.9798 52.3978C24.5103 48.5441 24.338 44.7219 23.092 41.0069C22.0507 37.8789 20.3831 34.9958 18.1908 32.5336C15.5874 29.5971 12.4597 27.4696 8.86549 25.9336C6.74848 25.029 4.99919 23.5855 3.53567 21.7847C1.7786 19.6375 0.608293 17.0713 0.139008 14.3368C0.0704617 13.9949 0.0324892 13.6475 0.02554 13.2988C0.02554 10.7069 0.0728169 8.11397 0.00137445 5.52418C-0.0595617 3.31787 1.91771 1.0853 3.53987 0.487491C4.35728 0.173458 5.22462 0.00938703 6.10025 0.00315292C12.5441 0.0178617 18.9879 0.0178617 25.4317 0.00315292C27.4794 -0.0202838 29.4709 0.672414 31.062 1.96152C32.8344 3.36095 34.8117 4.30125 37.039 4.57757C40.2875 4.98206 43.3428 4.34118 45.942 2.27775C47.9308 0.701817 50.113 -0.00104945 52.6292 1.176e-06C90.4139 0.0168112 128.198 0.0189121 165.982 0.00630466C167.453 0.00630466 168.819 0.300479 170.047 1.15674C171.181 1.94095 171.98 3.1218 172.286 4.4662C172.459 5.17983 172.546 5.91181 172.544 6.64625C172.532 34.6629 172.532 62.6771 172.544 90.6888C172.544 93.2103 171.58 95.1477 169.445 96.4967C168.457 97.127 167.331 97.2584 166.223 97.271C162.371 97.3162 158.518 97.3298 154.666 97.271C152.723 97.2538 150.841 96.5915 149.316 95.3883C147.103 93.6642 144.56 92.8668 141.797 92.9109C139.218 92.9314 136.718 93.8063 134.689 95.3988C132.994 96.7246 131.084 97.2542 129.028 97.2699C123.006 97.3151 116.98 97.3897 110.958 97.2521C95.5556 96.9001 80.1482 97.2584 68.4527 97.105Z" fill="white"/>
</svg>
