<svg width="153" height="133" viewBox="0 0 153 133" fill="none" xmlns="http://www.w3.org/2000/svg">
<path d="M79.9373 10.9831H21.4228C21.178 10.9831 20.9322 10.9831 20.6874 10.9831C19.6021 10.9831 19.601 10.9831 19.3331 12.0568C18.1858 16.6407 14.0632 19.7926 9.24711 19.5772C4.88807 19.3828 0.963995 16.129 0.169723 11.6229C-0.893508 5.59234 3.20182 1.09567 7.89601 0.179522C13.0073 -0.81857 18.0734 2.45202 19.2543 7.33532C19.56 8.59607 19.58 8.59607 20.9059 8.59607C60.4752 8.59607 100.045 8.59257 139.615 8.58556C141.798 8.58556 143.868 8.94908 145.773 10.0249C149.842 12.3226 152.041 15.7949 152.239 20.4923C152.251 20.7717 152.239 21.0523 152.239 21.3328C152.239 51.1327 152.242 80.9322 152.249 110.731C152.249 112.468 152.082 114.161 151.394 115.763C149.573 120.016 146.379 122.551 141.812 123.366C140.943 123.521 140.073 123.534 139.198 123.533C134.331 123.533 129.463 123.533 124.594 123.533C124.349 123.533 124.103 123.533 123.859 123.533C122.838 123.542 122.826 123.539 122.598 124.49C122.141 126.417 121.221 128.076 119.761 129.417C116.959 131.984 113.668 132.674 110.103 131.579C106.501 130.475 104.246 127.927 103.484 124.236C102.403 119.003 105.585 114.045 110.723 112.764C115.931 111.464 121.253 114.656 122.562 119.861C122.613 120.065 122.667 120.268 122.705 120.475C122.772 120.895 123.012 121.074 123.431 121.037C123.571 121.024 123.712 121.037 123.851 121.037C129.209 121.037 134.568 121.037 139.926 121.037C142.187 121.043 144.381 120.271 146.139 118.849C147.897 117.428 149.112 115.444 149.58 113.232C149.808 112.174 149.862 111.085 149.862 109.997C149.857 83.3112 149.857 56.6278 149.862 29.9468C149.862 27.1459 149.877 24.3439 149.854 21.5419C149.843 20.1036 149.703 18.6737 149.128 17.3299C147.529 13.5886 144.745 11.4601 140.652 11.0945C139.181 10.9642 137.71 10.9894 136.239 10.9894C117.474 10.9838 98.7063 10.9817 79.9373 10.9831Z" fill="#C655A5"/>
</svg>
