<svg width="202" height="133" viewBox="0 0 202 133" fill="none" xmlns="http://www.w3.org/2000/svg">
<path fill-rule="evenodd" clip-rule="evenodd" d="M73.4537 114.313H73.4547H73.4558H73.4568H73.4579H73.4591H73.4603H73.4615H73.4628H73.4641H73.4654H73.4667H73.4681H73.4695H73.4709H73.4723H73.4738H73.4753H73.4769H73.4786H73.4803H73.4821H73.4839H73.4857H73.4877H73.4897H73.4918H73.494H73.4962H73.4985H73.5009H73.5032H73.5057H73.5082H73.5107H73.5134H73.5161H73.519H73.5219H73.5249H73.528H73.5312H73.5345H73.5379H73.5413H73.5449H73.5486H73.5524H73.5564H73.5604H73.5646H73.5688H73.5732H73.5777H73.5824H73.5872H73.5922H73.5973H73.6025H73.6079H73.6134H73.6191H73.6249H73.6309H73.6371H73.6434H73.6499H73.6566H73.6635H73.6706H73.6779H73.6854H73.693H73.7009C78.4356 114.32 83.3896 114.327 88.652 114.327C93.4368 114.39 98.8423 114.366 104.615 114.341H104.615H104.616H104.616H104.616H104.617H104.617H104.617H104.618H104.618H104.619H104.619H104.619H104.62H104.62H104.62H104.621H104.621H104.621H104.622H104.622H104.623H104.623H104.623H104.624H104.624H104.624H104.625H104.625H104.625H104.626H104.626H104.627H104.627H104.627H104.628H104.628H104.628H104.629H104.629H104.629H104.63H104.63H104.631H104.631H104.631H104.632H104.632H104.632H104.633H104.633H104.634H104.634H104.634H104.635H104.635H104.635H104.636H104.636H104.636H104.637H104.637H104.638H104.638H104.638H104.639H104.639H104.639H104.64H104.64H104.64H104.641H104.641H104.642H104.642H104.642H104.643H104.643H104.643H104.644H104.644H104.645H104.645H104.645H104.646H104.646H104.646H104.647H104.647H104.647H104.648H104.648H104.649H104.649H104.649H104.65H104.65H104.65H104.651H104.651H104.651H104.652H104.652H104.653H104.653H104.653H104.654H104.654H104.654H104.655H104.655H104.655H104.656H104.656H104.657H104.657H104.657H104.658H104.658H104.658H104.659H104.659H104.66H104.66H104.66H104.661H104.661H104.661H104.662H104.662H104.662H104.663H104.663H104.664H104.664H104.664H104.665H104.665H104.665H104.666H104.666H104.666H104.667H104.667H104.668H104.668H104.668H104.669H104.669H104.669H104.67H104.67H104.671H104.671H104.671H104.672H104.672H104.672H104.673H104.673H104.673H104.674H104.674H104.675H104.675H104.675H104.676H104.676H104.676H104.677H104.677H104.677H104.678H104.678H104.679H104.679H104.679H104.68H104.68H104.68H104.681H104.681H104.681H104.682H104.682H104.683H104.683H104.683H104.684H104.684H104.684H104.685H104.685H104.686H104.686H104.686H104.687H104.687H104.687H104.688H104.688H104.688H104.689H104.689H104.69H104.69H104.69H104.691H104.691H104.691H104.692H104.692H104.692H104.693H104.693H104.694H104.694H104.694H104.695H104.695H104.695H104.696H104.696H104.697H104.697H104.697H104.698C113.013 114.306 122.086 114.266 131.157 114.474C136.447 114.595 141.74 114.552 147.03 114.509L147.032 114.509L147.034 114.509L147.036 114.509L147.038 114.509C147.768 114.503 148.498 114.497 149.228 114.492C151.283 114.476 153.193 113.946 154.889 112.62C156.917 111.028 159.417 110.153 161.996 110.133C164.759 110.088 167.303 110.886 169.515 112.61C171.041 113.813 172.923 114.475 174.865 114.493C178.718 114.551 182.57 114.538 186.422 114.493C187.53 114.48 188.657 114.349 189.644 113.718C191.779 112.369 192.744 110.432 192.744 107.91C192.731 79.8988 192.731 51.8846 192.744 23.8679C192.746 23.1335 192.659 22.4015 192.485 21.6879C192.179 20.3435 191.38 19.1626 190.246 18.3784C189.018 17.5222 187.652 17.228 186.181 17.228C148.397 17.2406 110.613 17.2385 72.8286 17.2217C70.3123 17.2206 68.1302 17.9235 66.1413 19.4994C63.5421 21.5629 60.4869 22.2037 57.2384 21.7992C55.011 21.5229 53.0338 20.5826 51.2614 19.1832C49.6702 17.8941 47.6787 17.2014 45.6311 17.2248C39.1872 17.2395 32.7434 17.2395 26.2996 17.2248C25.424 17.2311 24.5566 17.3951 23.7392 17.7092C22.1171 18.307 20.1398 20.5396 20.2007 22.7459C20.2518 24.598 20.2422 26.4518 20.2326 28.3057C20.2287 29.044 20.2249 29.7823 20.2249 30.5205C20.2318 30.8692 20.2698 31.2165 20.3383 31.5585C20.8076 34.293 21.9779 36.8592 23.735 39.0064C25.1985 40.8071 26.9478 42.2507 29.0648 43.1553C32.659 44.6913 35.7867 46.8188 38.3902 49.7553C40.5824 52.2175 42.2501 55.1006 43.2913 58.2286C44.5374 61.9436 44.7097 65.7658 44.1791 69.6194C43.5624 74.0993 41.7217 78.0728 38.8083 81.4989C36.311 84.4354 33.3083 86.7593 29.7078 88.2565C28.8311 88.6116 27.9905 89.0504 27.1979 89.5666C24.9375 91.0579 23.1023 93.1096 21.8712 95.5215C20.953 97.3034 20.2953 99.2019 20.2406 101.223C20.1886 103.193 20.2005 105.163 20.2123 107.133C20.2162 107.79 20.2202 108.446 20.2217 109.103C20.2217 110.39 20.7628 111.464 21.5875 112.42C22.8987 113.939 24.6343 114.506 26.5528 114.495C30.1978 114.473 33.8406 114.44 37.4865 114.407C38.7745 114.395 40.0629 114.383 41.3519 114.372C51.6167 114.283 61.8825 114.297 73.4537 114.313Z" fill="white"/>
<path d="M129.083 10.9831H70.5687C70.3239 10.9831 70.078 10.9831 69.8332 10.9831C68.7479 10.9831 68.7469 10.9831 68.479 12.0568C67.3317 16.6407 63.209 19.7926 58.393 19.5772C54.0339 19.3828 50.1099 16.129 49.3156 11.6229C48.2524 5.59234 52.3477 1.09567 57.0419 0.179522C62.1532 -0.81857 67.2193 2.45202 68.4002 7.33532C68.7059 8.59607 68.7259 8.59607 70.0518 8.59607C109.621 8.59607 149.191 8.59257 188.761 8.58556C190.944 8.58556 193.014 8.94908 194.918 10.0249C198.987 12.3226 201.186 15.7949 201.385 20.4923C201.397 20.7718 201.385 21.0523 201.385 21.3328C201.385 51.1327 201.388 80.9322 201.394 110.731C201.394 112.468 201.227 114.161 200.54 115.763C198.719 120.016 195.525 122.551 190.958 123.366C190.089 123.521 189.219 123.534 188.344 123.533C183.476 123.533 178.609 123.533 173.74 123.533C173.495 123.533 173.249 123.533 173.005 123.533C171.984 123.542 171.972 123.539 171.744 124.49C171.287 126.417 170.366 128.076 168.907 129.417C166.105 131.984 162.813 132.674 159.249 131.579C155.647 130.475 153.391 127.927 152.63 124.236C151.549 119.003 154.731 114.045 159.869 112.764C165.076 111.464 170.399 114.656 171.708 119.861C171.758 120.065 171.813 120.268 171.851 120.475C171.918 120.895 172.158 121.074 172.577 121.037C172.717 121.024 172.857 121.037 172.997 121.037C178.355 121.037 183.714 121.037 189.072 121.037C191.333 121.043 193.527 120.271 195.285 118.849C197.043 117.428 198.258 115.444 198.726 113.232C198.954 112.174 199.007 111.085 199.007 109.997C199.003 83.3112 199.003 56.6278 199.007 29.9468C199.007 27.1459 199.023 24.3439 199 21.5419C198.989 20.1036 198.849 18.6737 198.274 17.3299C196.675 13.5886 193.891 11.4601 189.798 11.0945C188.327 10.9642 186.856 10.9894 185.385 10.9894C166.62 10.9838 147.852 10.9817 129.083 10.9831Z" fill="#F8931F"/>
<path d="M40.2424 65.936C40.4756 76.6576 31.249 86.13 19.938 86.0029C9.02204 85.88 -0.0637511 76.791 0.000336982 65.7259C0.064425 54.6943 9.2868 45.6936 20.1996 45.7094C31.1692 45.7241 40.5261 54.9559 40.2424 65.936Z" fill="#F8931F"/>
<path d="M96.7156 57.3881C89.7815 57.3881 82.8498 57.3881 75.9206 57.3881C75.3879 57.3881 74.8122 57.2284 74.4046 57.8084C74.2669 58.0017 73.9433 57.9134 73.7017 57.9134C67.295 57.9134 60.8886 57.9134 54.4826 57.9134C54.3072 57.9134 54.1328 57.8956 53.9573 57.8903C53.557 57.8798 53.4057 57.6613 53.4257 57.2809C53.4415 57.0711 53.4415 56.8604 53.4257 56.6506C53.3774 56.1316 53.6568 55.9687 54.118 55.975C54.3975 55.975 54.678 55.9666 54.9585 55.9666C61.0522 55.9666 67.1437 55.9687 73.2331 55.9729C73.7584 55.9729 74.3384 55.7869 74.7523 56.4037C74.9015 56.6253 75.3501 56.4951 75.6621 56.4951C80.0376 56.4951 84.4152 56.4951 88.7949 56.4951H117.255C117.536 56.4951 117.816 56.4951 118.096 56.4951C118.411 56.5024 118.759 56.4772 118.735 56.9605C118.71 57.4438 118.34 57.3566 118.042 57.3723C117.797 57.386 117.553 57.3723 117.307 57.3723L96.7156 57.3881Z" fill="#F8931F"/>
<path d="M158.391 117.612C160.328 118.663 161.424 120.27 161.668 122.426C161.802 123.538 161.819 124.661 161.72 125.776C161.639 126.611 161.351 126.897 160.525 126.926C159.652 126.956 158.776 126.957 157.899 126.926C157.126 126.897 156.826 126.611 156.743 125.852C156.636 124.913 156.634 123.965 156.736 123.025C156.821 122.22 157.138 121.943 157.967 121.903C158.455 121.88 158.946 121.903 159.438 121.892C160.191 121.872 160.278 121.77 160.123 121.013C159.916 119.98 159.474 119.01 158.83 118.176L158.391 117.612Z" fill="#FFFEFF"/>
<path d="M56.6647 5.1427C55.9209 6.21118 55.2621 7.30593 55.0552 8.61711C54.9291 9.41559 54.9186 9.41874 55.757 9.4345C56.2823 9.445 56.8076 9.41349 57.3329 9.44816C58.0684 9.49544 58.414 9.83689 58.4403 10.5734C58.4728 11.4822 58.4718 12.3941 58.4403 13.305C58.414 14.0783 58.0473 14.4334 57.2499 14.4607C56.3768 14.4912 55.4996 14.4912 54.6234 14.4607C53.8732 14.4344 53.454 14.0888 53.4477 13.3985C53.433 11.9686 53.288 10.5303 53.6295 9.11301C53.8275 8.27489 54.2002 7.48802 54.7233 6.80385C55.2463 6.11968 55.9079 5.55362 56.6647 5.1427Z" fill="#FFFEFF"/>
<path d="M62.8528 4.99139C61.9452 5.97976 61.3181 7.19268 61.0363 8.50468C60.8693 9.3021 60.9722 9.41767 61.7802 9.43553C62.2698 9.44604 62.7614 9.41977 63.251 9.44499C64.0695 9.48806 64.3752 9.78749 64.3994 10.6196C64.426 11.5301 64.426 12.4407 64.3994 13.3512C64.3773 14.0415 64.0537 14.4165 63.3908 14.4481C62.4126 14.4953 61.4303 14.4932 60.449 14.4481C59.8313 14.4197 59.5035 14.0772 59.4541 13.4363C59.3343 12.039 59.3028 10.6322 59.5823 9.25272C59.8838 7.75874 60.989 5.83399 62.8528 4.99139Z" fill="#FFFEFF"/>
<path d="M164.646 117.703C164.997 117.742 165.211 117.972 165.428 118.17C166.899 119.507 167.681 121.168 167.709 123.166C167.721 124.006 167.728 124.847 167.709 125.687C167.685 126.549 167.352 126.901 166.501 126.931C165.628 126.961 164.753 126.963 163.875 126.931C163.082 126.901 162.728 126.548 162.7 125.759C162.668 124.851 162.666 123.94 162.7 123.027C162.729 122.308 163.098 121.953 163.823 121.909C164.453 121.871 165.084 121.892 165.714 121.892C166.077 121.892 166.193 121.735 166.142 121.367C165.992 120.325 165.607 119.331 165.017 118.46C164.878 118.24 164.616 118.077 164.646 117.703Z" fill="#FFFEFF"/>
<path d="M36.5294 60.4422C35.4305 57.0603 33.4427 54.2845 30.5987 52.115C27.7819 49.9665 24.5859 48.8633 21.0968 48.6017C19.3854 48.4673 17.664 48.6613 16.0255 49.1732C15.5894 49.1323 15.2007 49.3182 14.8067 49.4475C11.3397 50.5779 8.53555 52.655 6.3345 55.5327C4.87413 57.4406 3.83716 59.5681 3.39275 61.953C3.33546 62.0403 3.29055 62.135 3.25932 62.2346C2.80125 65.1291 2.72035 68.0025 3.63124 70.8497C5.15044 75.5912 8.1111 79.0982 12.5479 81.3465C15.6388 82.913 18.9346 83.3605 22.345 82.9687C24.5134 82.7197 26.5926 82.1282 28.447 80.9157C31.0021 79.5983 32.9941 77.6735 34.5406 75.2655C34.6984 75.081 34.8447 74.8869 34.9787 74.6845C37.6 70.1658 38.1421 65.4064 36.5294 60.4422ZM26.2207 75.0375C22.236 75.048 18.251 75.048 14.2657 75.0375C13.881 75.0455 13.4971 75.0006 13.1247 74.9041C11.264 74.3788 10.4981 72.8133 11.3313 71.064C12.1644 69.3148 13.4882 67.9962 15.0862 66.9172C15.3877 66.7145 16.0086 66.5516 15.8017 66.0274H15.8773C16.3711 66.1261 16.3932 65.8025 16.3606 65.4642C16.3291 65.149 16.1505 64.8759 15.9876 64.6059C14.8981 62.7736 14.792 60.9224 15.8742 59.0449C16.0465 58.7465 16.2608 58.4471 16.0717 58.071C16.0717 58.0584 16.0717 58.0468 16.0717 58.0353C16.5833 58.2885 16.9815 57.8178 17.386 57.5835C19.5734 56.3227 22.0256 56.5329 23.6761 58.1645C25.273 59.7404 25.5672 62.367 24.3895 64.4682C23.5889 65.896 23.5994 65.9958 25.0009 66.8416C26.725 67.8817 28.0856 69.258 28.9219 71.0924C29.8275 73.0802 28.7117 74.8841 26.5327 75.0249C26.4308 75.0312 26.3258 75.0375 26.2207 75.0375Z" fill="#FDFDFD"/>
<path d="M15.8774 66.0274C16.0823 65.958 16.306 65.874 16.1663 65.6071C16.0292 65.3664 15.8736 65.1366 15.7009 64.92C14.4086 63.1466 14.2783 60.208 15.8564 58.4282C15.937 58.3175 16.0073 58.1997 16.0665 58.0763C16.3113 57.8777 16.5529 57.676 16.8019 57.4827C19.0335 55.7502 22.3702 56.057 24.2162 58.1635C25.7974 59.9642 25.9928 62.7862 24.6711 64.8044C24.5148 65.0364 24.3461 65.2598 24.1658 65.4737C23.9483 65.7364 24.0344 65.8939 24.3076 66.0431C24.8276 66.33 25.3467 66.6199 25.8457 66.9425C27.3565 67.9141 28.5557 69.3001 29.3002 70.9348C30.3571 73.2021 29.0175 75.3685 26.5244 75.3832C22.3219 75.4094 18.1299 75.4021 13.9316 75.4168C13.0575 75.4168 12.2706 75.193 11.6076 74.6152C10.5728 73.7127 10.2755 72.3984 10.8848 71.0851C11.767 69.1576 13.2298 67.5541 15.0684 66.4991L15.8774 66.0274Z" fill="#F8931F"/>
</svg>
