<svg width="29" height="30" viewBox="0 0 29 30" fill="none" xmlns="http://www.w3.org/2000/svg">
<path d="M14.0823 27.8175C21.1441 27.8175 26.8689 22.0927 26.8689 15.0309C26.8689 7.96903 21.1441 2.24426 14.0823 2.24426C7.02042 2.24426 1.29565 7.96903 1.29565 15.0309C1.29565 22.0927 7.02042 27.8175 14.0823 27.8175Z" fill="#00A8DE"/>
<path d="M9.67103 11.5972C9.67103 11.6462 9.67103 11.6931 9.67103 11.7421C9.66695 11.6931 9.66695 11.6462 9.67103 11.5972ZM9.67103 11.985C9.67103 12.0646 9.67103 12.1381 9.67103 12.2136C9.66695 12.1381 9.66899 12.0626 9.66899 11.985H9.67103Z" fill="white"/>
<path d="M14.0904 29.1191V28.8804C14.4046 28.8804 14.7229 28.8682 15.035 28.8478L15.0514 29.0865C14.7351 29.1069 14.4148 29.1191 14.0904 29.1191ZM13.1294 29.0865C12.8111 29.0661 12.4887 29.0334 12.1725 28.9906L12.2051 28.7539C12.5153 28.7968 12.8315 28.8274 13.1457 28.8478L13.1294 29.0865ZM16.0083 28.9886L15.9756 28.7519C16.2878 28.709 16.6 28.656 16.908 28.5907L16.957 28.8253C16.6428 28.8906 16.3245 28.9457 16.0083 28.9886ZM11.2258 28.8294C10.9116 28.7641 10.5974 28.6886 10.2893 28.6029L10.3546 28.3724C10.6565 28.456 10.9667 28.5315 11.2727 28.5948L11.2258 28.8294ZM17.8833 28.5989L17.818 28.3683C18.12 28.2826 18.4301 28.1867 18.7198 28.0806L18.7994 28.3071C18.5056 28.4132 18.1975 28.5111 17.8833 28.5989ZM9.36502 28.3132C9.06306 28.2051 8.75293 28.0867 8.46932 27.9602L8.56318 27.7399C8.85291 27.8664 9.14875 27.9827 9.4446 28.0867L9.36502 28.3132ZM19.7012 27.9541L19.6053 27.7338C19.893 27.6093 20.1787 27.4726 20.4582 27.3257L20.5684 27.5297C20.2848 27.6868 19.993 27.8256 19.7012 27.9541ZM7.60832 27.5461C7.32471 27.3992 7.04111 27.24 6.7677 27.0747L6.89217 26.8707C7.16149 27.0339 7.43897 27.189 7.70829 27.3339L7.60832 27.5461ZM21.4049 27.0686L21.2804 26.8646C21.5477 26.7014 21.815 26.5259 22.07 26.3443L22.2088 26.5483C21.9476 26.7299 21.6783 26.9013 21.4049 27.0686ZM5.96382 26.5463C5.70266 26.3627 5.44559 26.1668 5.19667 25.9648L5.34765 25.7791C5.59249 25.9832 5.84549 26.1709 6.10257 26.3504L5.96382 26.5463ZM22.9841 25.9587L22.8331 25.773C23.0759 25.569 23.3167 25.365 23.5452 25.1507L23.7084 25.3262C23.4656 25.5445 23.2208 25.7567 22.9841 25.9587ZM4.48256 25.3323C4.24793 25.114 4.01941 24.8855 3.8011 24.6529L3.97656 24.4897C4.18059 24.7182 4.41523 24.9447 4.64578 25.1589L4.48256 25.3323ZM24.3878 24.6468L24.2083 24.4856C24.4123 24.255 24.6306 24.0163 24.8204 23.7735L25.004 23.9225C24.8204 24.1693 24.5959 24.4121 24.3776 24.6468H24.3878ZM3.1686 23.9286C2.96457 23.6817 2.77074 23.4246 2.58711 23.1635L2.78094 23.0268C2.96253 23.2818 3.15636 23.5348 3.35427 23.7776L3.1686 23.9286ZM25.612 23.1553L25.408 23.0166C25.5896 22.7595 25.765 22.4942 25.9283 22.227L26.1323 22.3514C25.9548 22.6228 25.7773 22.8941 25.5936 23.1553H25.612ZM2.06684 22.3616C1.89953 22.0882 1.74038 21.8067 1.59348 21.5251L1.79751 21.4149C1.94237 21.6924 2.09744 21.9678 2.2627 22.231L2.06684 22.3616ZM26.6118 21.5129L26.4077 21.4027C26.5526 21.1232 26.6893 20.8355 26.8158 20.5478L27.0341 20.6437C26.8811 20.9354 26.7423 21.2211 26.5934 21.5129H26.6118ZM1.15277 20.658C1.02627 20.3642 0.905894 20.0642 0.799798 19.7643L1.02423 19.6847C1.13033 19.9785 1.24663 20.2744 1.37312 20.5621L1.15277 20.658ZM27.3524 19.748L27.128 19.6664C27.2341 19.3705 27.332 19.0686 27.4136 18.7666L27.6442 18.8298C27.5666 19.1379 27.4728 19.446 27.3606 19.748H27.3524ZM0.508035 18.8482C0.422342 18.5401 0.344811 18.2259 0.279521 17.9137L0.514156 17.8648C0.577406 18.1729 0.652898 18.4769 0.738591 18.7829L0.508035 18.8482ZM27.8808 17.8954L27.6462 17.8464C27.7094 17.5404 27.7645 17.2343 27.8053 16.916L28.0441 16.9466C27.9971 17.2649 27.9441 17.5832 27.8808 17.8954ZM0.132619 16.965C0.0897724 16.6508 0.0571252 16.3284 0.0346818 16.0081L0.273401 15.9918C0.293804 16.306 0.326449 16.6222 0.369296 16.9324L0.132619 16.965ZM28.1461 15.9918L27.9074 15.9755C27.9298 15.6633 27.94 15.345 27.94 15.0308V14.9941H28.1787V15.0308C28.1706 15.3491 28.1604 15.6735 28.1379 15.9918H28.1461ZM0.240755 15.0471H0V15.0308C0 14.7166 0.0122426 14.3983 0.0326457 14.0861L0.271358 14.1025C0.250955 14.4085 0.240755 14.7145 0.240755 15.0308V15.0471ZM27.9053 14.0494C27.8829 13.7352 27.8502 13.4189 27.8074 13.1088L28.0441 13.0762C28.0889 13.3924 28.1216 13.7148 28.144 14.0331L27.9053 14.0494ZM0.361133 13.1619L0.124456 13.1292C0.167302 12.813 0.220352 12.4947 0.285642 12.1825L0.518241 12.2294C0.45091 12.5375 0.39786 12.8558 0.357054 13.1619H0.361133ZM27.6421 12.1784C27.5768 11.8704 27.5013 11.5663 27.4156 11.2603L27.6462 11.195C27.7339 11.5031 27.8094 11.8071 27.8747 12.1295L27.6421 12.1784ZM0.744712 11.3113L0.514156 11.246C0.599849 10.94 0.697787 10.6339 0.803883 10.3299L1.02832 10.4095C0.916101 10.7053 0.820203 11.0195 0.744712 11.3113ZM27.132 10.3605C27.028 10.0647 26.9096 9.76883 26.7831 9.48319L27.0035 9.3873C27.13 9.67906 27.2504 9.97899 27.3585 10.2789L27.132 10.3605ZM1.367 9.52808L1.15277 9.43422C1.27927 9.14042 1.41801 8.84661 1.56084 8.56301L1.76487 8.67319C1.62817 8.95271 1.49146 9.24039 1.367 9.52808ZM26.3669 8.63034C26.2221 8.35286 26.067 8.07538 25.9017 7.81422L26.1058 7.68976C26.2731 7.96316 26.4322 8.24268 26.5791 8.52628L26.3669 8.63034ZM2.23618 7.8489L2.03215 7.72444C2.19741 7.45104 2.37492 7.17968 2.56059 6.91852L2.76462 7.05726C2.58099 7.31434 2.3994 7.57958 2.23618 7.8489ZM25.3815 7.02054C25.1999 6.76346 25.006 6.51046 24.8081 6.26766L24.9938 6.11668C25.1978 6.36356 25.3917 6.62064 25.5773 6.8818L25.3815 7.02054ZM3.3257 6.30235L3.14003 6.1534C3.34406 5.90449 3.5481 5.65965 3.77253 5.42705L3.948 5.59028C3.73377 5.81879 3.52361 6.05955 3.3257 6.30235ZM24.1858 5.55763C23.9696 5.32708 23.7451 5.10264 23.5146 4.89861L23.6778 4.72315C23.9124 4.93942 24.1409 5.16793 24.3593 5.40257L24.1858 5.55763ZM4.6213 4.92106L4.45808 4.74559C4.69067 4.52728 4.93347 4.31509 5.18239 4.11309L5.33337 4.29672C5.08445 4.49055 4.84369 4.70478 4.6213 4.92106ZM22.8086 4.2702C22.5638 4.06617 22.3108 3.87846 22.0537 3.69891L22.1904 3.49488C22.4516 3.67851 22.7107 3.87438 22.9576 4.07637L22.8086 4.2702ZM6.07809 3.72544L5.93934 3.5214C6.2005 3.33778 6.47186 3.15823 6.74322 2.99296L6.86768 3.197C6.6004 3.36838 6.33516 3.54385 6.07809 3.72544ZM21.256 3.18067C20.9866 3.01745 20.7092 2.86238 20.4398 2.71752L20.55 2.51349C20.8336 2.66039 21.1172 2.8175 21.3906 2.9848L21.256 3.18067ZM7.68177 2.73997L7.57159 2.53593C7.85519 2.38903 8.14696 2.24825 8.43872 2.12787L8.53461 2.34619C8.25509 2.45024 7.96741 2.5951 7.68177 2.73997ZM19.5666 2.3115C19.2789 2.18704 18.983 2.07074 18.6852 1.96669L18.7647 1.74225C19.0667 1.84835 19.3768 1.96669 19.6625 2.09319L19.5666 2.3115ZM9.41195 1.98505L9.33033 1.75858C9.6323 1.65248 9.94243 1.55455 10.2464 1.46681L10.3117 1.69737C10.0179 1.78306 9.72207 1.87895 9.42011 1.98505H9.41195ZM17.7772 1.68309C17.4753 1.59943 17.1651 1.52394 16.8591 1.46069L16.906 1.2281C17.2202 1.29135 17.5344 1.36684 17.8425 1.45253L17.7772 1.68309ZM11.2237 1.47905L11.1748 1.24442C11.4869 1.17913 11.8073 1.12404 12.1235 1.08119L12.1562 1.31787C11.8583 1.3546 11.5461 1.40764 11.238 1.47293L11.2237 1.47905ZM15.9267 1.30971C15.6165 1.2689 15.3003 1.23626 14.9861 1.21585L15.0024 0.977137C15.3207 0.999581 15.6431 1.03019 15.9593 1.07303L15.9267 1.30971ZM13.0968 1.21993L13.0784 0.981218C13.3967 0.958775 13.7211 0.948574 14.0414 0.946533V1.18525C13.7415 1.18117 13.4232 1.19137 13.111 1.21381L13.0968 1.21993Z" fill="#00A8DE"/>
<path d="M18.5739 8.51254C18.5617 8.28828 18.5617 8.06351 18.5739 7.83924C18.6188 7.43118 18.4719 7.26183 18.0373 7.2802C17.3375 7.31284 16.6356 7.29652 15.9358 7.2802C15.2359 7.26387 14.5218 7.20063 14.0546 7.93106C13.6608 7.38425 13.1773 7.26183 12.6264 7.27408C12.0143 7.28836 11.4022 7.27408 10.7901 7.27408C9.60672 7.27408 9.60672 7.27407 9.51899 8.45133C9.51255 8.47836 9.50436 8.50493 9.4945 8.53091C8.67838 8.73494 8.56616 8.87164 8.56616 9.67756C8.56616 11.473 8.56616 13.2685 8.56616 15.064C8.56616 15.8128 8.81304 16.0556 9.57203 16.0556H18.5188C19.3125 16.0556 19.5389 15.823 19.5389 15.0354C19.5389 13.2957 19.5389 11.5546 19.5389 9.81222C19.5451 8.86144 19.4879 8.78186 18.5739 8.51254ZM14.2423 8.86144C14.2423 7.9841 14.5749 7.65153 15.4338 7.63725C16.3438 7.63725 17.2538 7.63725 18.1944 7.63725V13.8745C16.8927 14.0785 15.5644 13.6582 14.275 14.1887C14.2627 14.0479 14.2423 13.8969 14.2423 13.748C14.2409 12.1212 14.2409 10.4923 14.2423 8.86144ZM9.94133 7.6597C10.9921 7.6597 12.0286 7.62705 13.061 7.67398C13.1712 7.67596 13.2799 7.70027 13.3804 7.74541C13.481 7.79055 13.5714 7.85561 13.6462 7.93664C13.7209 8.01768 13.7784 8.11302 13.8153 8.21691C13.8522 8.3208 13.8677 8.43108 13.8608 8.54111C13.8812 10.4202 13.871 12.3014 13.871 14.2111C12.5652 13.6623 11.2532 14.0867 9.94133 13.8826V7.6597ZM18.527 15.7291C17.164 15.7291 15.7991 15.7291 14.4321 15.7291C12.8345 15.7291 11.2369 15.7291 9.63937 15.7291C9.02727 15.7291 8.91914 15.6271 8.9171 15.0069C8.9171 13.2114 8.9171 11.4159 8.9171 9.62043C8.9171 9.25114 8.96198 8.91857 9.54755 8.9859C9.54755 10.5427 9.56999 12.0668 9.53327 13.5909C9.53327 14.1173 9.63528 14.3397 10.2086 14.2907C10.8329 14.2377 11.4654 14.2907 12.0939 14.2764C12.9243 14.2621 13.7853 14.1703 13.9485 15.468C14.126 15.2435 14.228 15.168 14.2545 15.0721C14.4198 14.4927 14.8258 14.2785 15.3869 14.2805C16.2663 14.2805 17.1477 14.2601 18.0271 14.2805C18.4351 14.2927 18.5902 14.1785 18.582 13.7398C18.5555 12.3565 18.5718 10.9732 18.5718 9.59187V8.98997C19.0105 8.90224 19.1941 9.09199 19.1962 9.45925C19.1962 11.3629 19.1962 13.2685 19.1962 15.1721C19.2023 15.6291 18.9269 15.7312 18.527 15.7291Z" fill="white"/>
<path d="M21.5672 11.3197C21.5779 11.0716 21.5475 10.8235 21.4774 10.5852C21.2468 9.9262 20.4572 9.63036 19.9247 10.0058C20.0022 10.0588 20.0655 10.1323 20.1287 10.1466C21.1061 10.3343 21.2101 10.4567 21.2101 11.4524C21.2101 13.4818 21.2101 15.5112 21.2101 17.5406C21.2101 17.7304 21.1938 17.9201 21.1856 18.118H6.97078C6.94676 18.0632 6.92963 18.0057 6.91977 17.9467C6.91977 15.6472 6.91977 13.3498 6.91977 11.0504C6.91977 10.522 7.22378 10.2343 7.7359 10.1588C7.88688 10.1364 8.03378 10.0874 8.27862 10.0303C7.42985 9.55078 6.55252 10.1241 6.54436 11.079C6.52395 13.9354 6.52395 16.7918 6.54436 19.6483C6.54436 20.4644 7.04627 20.9398 7.87056 20.948C8.87643 20.9582 9.8823 20.948 10.8882 20.948C11.0596 20.948 11.2309 20.9684 11.4023 20.9786V22.2905L10.5413 22.4231C10.9963 22.7781 17.1764 22.7557 17.5273 22.4007C17.2193 22.3619 16.9703 22.3292 16.7112 22.2986V20.9459H20.0941C21.1142 20.9459 21.5631 20.5011 21.5651 19.4626C21.5719 16.7476 21.5726 14.0333 21.5672 11.3197ZM16.297 22.2986H11.839V20.9745H16.297V22.2986ZM21.1938 19.8299C21.1469 20.3481 20.7633 20.6011 20.09 20.6011H11.2554C10.1985 20.6011 9.13963 20.6011 8.08071 20.6011C7.20542 20.6011 6.91773 20.3134 6.91161 19.4483V18.5159H21.1938C21.1958 18.977 21.2244 19.4075 21.1877 19.8299H21.1938Z" fill="white"/>
<path d="M17.4721 8.95318C16.6559 9.096 15.8235 9.01234 14.9951 8.99398C14.9951 8.91237 14.9951 8.83076 14.9951 8.74915H17.4721C17.47 8.82464 17.4721 8.89401 17.4721 8.95318Z" fill="white"/>
<path d="M17.5109 9.97327C17.1845 10.3507 15.2952 10.3609 14.9238 9.97327H17.5109Z" fill="white"/>
<path d="M17.5782 11.1629C17.1701 11.5403 15.3665 11.5587 14.989 11.2098C15.849 11.1186 16.7154 11.1029 17.5782 11.1629Z" fill="white"/>
<path d="M13.1284 12.6542C12.3036 12.7181 11.4756 12.729 10.6494 12.6869C10.6494 12.5951 10.6494 12.5012 10.6494 12.4074C11.4655 12.2788 12.3021 12.3421 13.1284 12.3788C13.1284 12.4706 13.1284 12.5624 13.1284 12.6542Z" fill="white"/>
<path d="M13.1263 8.95301H10.5474C10.9534 8.61636 12.6591 8.5776 13.1263 8.95301Z" fill="white"/>
<path d="M13.2407 9.98352C12.7857 10.3426 10.9657 10.3345 10.5679 9.98352H13.2407Z" fill="white"/>
<path d="M13.21 11.1974C12.8284 11.5402 11.0207 11.5524 10.5127 11.1974H13.21Z" fill="white"/>
</svg>
