<svg width="31" height="31" viewBox="0 0 31 31" fill="none" xmlns="http://www.w3.org/2000/svg">
<circle cx="15.1278" cy="15.4979" r="13.3739" fill="black"/>
<path d="M0.256515 15.5089C0.256515 15.1778 0.267478 14.8511 0.289402 14.5113L0.035079 14.496C0.0109622 14.8314 0 15.1712 0 15.5089V15.5286H0.256515V15.5089Z" fill="black"/>
<path d="M7.38843 2.80164L7.25469 2.5824C6.9631 2.76218 6.6715 2.95292 6.39087 3.15024L6.53995 3.36948C6.8162 3.16559 7.1056 2.98361 7.38843 2.80164Z" fill="black"/>
<path d="M13.0868 0.766897L13.0517 0.512573C12.7119 0.558614 12.3677 0.617811 12.0322 0.687969L12.0848 0.940098C12.4159 0.86994 12.7513 0.812938 13.0868 0.766897Z" fill="black"/>
<path d="M11.0983 1.18134L11.0281 0.933594C10.6992 1.02787 10.3704 1.13311 10.0437 1.24931L10.1314 1.49048C10.4471 1.37647 10.7738 1.27342 11.0983 1.18134Z" fill="black"/>
<path d="M5.73328 3.97686L5.56885 3.77734C5.30356 3.99659 5.04266 4.21583 4.79272 4.457L4.96812 4.64555C5.21367 4.41535 5.47019 4.18952 5.73328 3.97686Z" fill="black"/>
<path d="M4.25541 5.3646L4.06686 5.18921C3.83227 5.44134 3.60426 5.70224 3.38721 5.96972L3.58672 6.13196C3.795 5.86887 4.02082 5.61454 4.25541 5.3646Z" fill="black"/>
<path d="M0.561324 12.5009L0.309194 12.4482C0.241228 12.7837 0.182032 13.1257 0.138184 13.4677L0.392507 13.5006C0.436355 13.1674 0.493359 12.8297 0.561324 12.5009Z" fill="black"/>
<path d="M1.10498 10.5431L0.863817 10.4576C0.74981 10.7821 0.644573 11.1154 0.55249 11.4442L0.800236 11.5122C0.890126 11.1877 0.993171 10.8611 1.10498 10.5431Z" fill="black"/>
<path d="M1.91408 8.68395L1.69484 8.56775C1.53698 8.8725 1.38789 9.18602 1.25635 9.50173L1.49094 9.60258C1.61152 9.28687 1.75842 8.97774 1.91408 8.68395Z" fill="black"/>
<path d="M2.96851 6.94084L2.76022 6.79395C2.56071 7.07458 2.36997 7.36398 2.19238 7.65777L2.41163 7.7915C2.58702 7.5021 2.77557 7.21709 2.96851 6.94084Z" fill="black"/>
<path d="M17.171 0.504052C16.8334 0.458011 16.487 0.425123 16.1428 0.403198L16.1274 0.657522C16.4651 0.679446 16.8049 0.714527 17.1382 0.758376L17.171 0.504052Z" fill="black"/>
<path d="M25.9979 5.32955L26.1843 5.15415C25.9497 4.90421 25.7041 4.65866 25.452 4.42407L25.2766 4.61262C25.5222 4.84283 25.7655 5.08399 25.9979 5.32955Z" fill="black"/>
<path d="M28.5697 8.51292C28.4118 8.21036 28.2408 7.9078 28.061 7.61401L27.8418 7.74775C28.0172 8.03715 28.186 8.33313 28.3417 8.62473L28.5697 8.51292Z" fill="black"/>
<path d="M15.1125 0.626754V0.370239C14.7705 0.370239 14.4219 0.37024 14.0798 0.405319L14.0974 0.661834C14.4328 0.63991 14.7792 0.626754 15.1125 0.626754Z" fill="black"/>
<path d="M29.9859 14.4545L30.2424 14.4369C30.2182 14.0949 30.1832 13.7485 30.1349 13.4109L29.8806 13.446C29.9267 13.7792 29.9617 14.119 29.9859 14.4545Z" fill="black"/>
<path d="M29.9574 12.3913C29.8873 12.0559 29.8061 11.7183 29.7119 11.3872L29.4641 11.4574C29.5562 11.7818 29.6373 12.1151 29.7075 12.444L29.9574 12.3913Z" fill="black"/>
<path d="M27.4953 6.75234C27.2979 6.47171 27.0875 6.19546 26.8704 5.93018L26.6709 6.09461C26.8901 6.35551 27.0918 6.62518 27.287 6.90143L27.4953 6.75234Z" fill="black"/>
<path d="M19.1969 0.918294C18.8658 0.826211 18.5282 0.74509 18.1906 0.677124L18.1401 0.929257C18.4712 0.99503 18.7979 1.07615 19.1267 1.16604L19.1969 0.918294Z" fill="black"/>
<path d="M24.6714 3.74643C24.4062 3.52718 24.1277 3.3189 23.8471 3.12158L23.7002 3.34083C23.9764 3.53595 24.2483 3.74204 24.5092 3.95471L24.6714 3.74643Z" fill="black"/>
<path d="M0.293625 16.5439L0.0371094 16.5615C0.0590338 16.9035 0.0963052 17.2499 0.142346 17.5897L0.396669 17.5547C0.350628 17.2192 0.308972 16.8794 0.293625 16.5439Z" fill="black"/>
<path d="M21.1371 1.60659C20.8214 1.47066 20.4969 1.3435 20.1724 1.22949L20.0869 1.47066C20.4048 1.58248 20.7249 1.70744 21.034 1.84338L21.1371 1.60659Z" fill="black"/>
<path d="M22.9833 2.55601C22.6896 2.37843 22.3848 2.20742 22.0801 2.04956L21.9617 2.2688C22.262 2.42447 22.5602 2.59109 22.8386 2.76649L22.9833 2.55601Z" fill="black"/>
<path d="M9.18619 1.86337L9.07876 1.62878C8.76305 1.76618 8.45245 1.91234 8.14697 2.06727L8.26536 2.28652C8.57011 2.1462 8.87925 1.9993 9.18619 1.86337Z" fill="black"/>
<path d="M24.5334 27.0521L24.6957 27.2516C24.961 27.0324 25.2241 26.8131 25.474 26.572L25.2986 26.3856C25.0531 26.6158 24.7943 26.8395 24.5334 27.0521Z" fill="black"/>
<path d="M26.0176 25.6664L26.2039 25.8418C26.4385 25.5919 26.6665 25.3288 26.8836 25.0635L26.6863 24.9012C26.4714 25.1621 26.2478 25.4209 26.0176 25.6664Z" fill="black"/>
<path d="M21.0757 29.1614L21.1787 29.396C21.4922 29.2601 21.8058 29.1088 22.1105 28.9575L21.9921 28.7383C21.6918 28.8786 21.3848 29.0255 21.0757 29.1614Z" fill="black"/>
<path d="M22.876 28.2252L23.0097 28.4444C23.3035 28.2668 23.5929 28.0761 23.8735 27.8766L23.7245 27.6573C23.4482 27.8612 23.1632 28.0498 22.876 28.2252Z" fill="black"/>
<path d="M27.3003 24.0925L27.5195 24.2394C27.7169 23.9588 27.9076 23.6672 28.0874 23.3756L27.8681 23.2418C27.684 23.529 27.4954 23.8119 27.3003 24.0925Z" fill="black"/>
<path d="M29.0171 9.44458L28.7803 9.54763C28.9162 9.85676 29.0412 10.1725 29.1552 10.4904L29.3963 10.4027C29.2823 10.0804 29.153 9.7581 29.0171 9.44458Z" fill="black"/>
<path d="M30.2799 15.4806H30.0234V15.5179C30.0234 15.8555 30.0124 16.1975 29.9883 16.533L30.2448 16.5505C30.2689 16.2085 30.2799 15.8621 30.2799 15.5179V15.4806Z" fill="black"/>
<path d="M0.309082 18.6069C0.37924 18.9424 0.462553 19.28 0.554635 19.6111L0.802381 19.5409C0.710299 19.2164 0.629178 18.8832 0.561213 18.5543L0.309082 18.6069Z" fill="black"/>
<path d="M29.7141 18.5367L29.9662 18.5872C30.0364 18.2517 30.0934 17.9097 30.1394 17.5699L29.8851 17.5348C29.8413 17.868 29.7821 18.2057 29.7141 18.5367Z" fill="black"/>
<path d="M29.1682 20.4922L29.4094 20.5778C29.5256 20.2533 29.6286 19.92 29.7229 19.5912L29.4752 19.5232C29.3853 19.8477 29.28 20.1743 29.1682 20.4922Z" fill="black"/>
<path d="M19.1641 29.8409L19.232 30.0886C19.5631 29.9965 19.8898 29.8913 20.2186 29.7751L20.1331 29.5339C19.8218 29.6457 19.4885 29.7488 19.1641 29.8409Z" fill="black"/>
<path d="M28.3569 22.3558L28.5762 22.4742C28.734 22.1694 28.8853 21.8537 29.0147 21.5402L28.7801 21.4371C28.6595 21.7463 28.5126 22.0576 28.3569 22.3558Z" fill="black"/>
<path d="M5.59302 27.2584C5.8605 27.4776 6.13674 27.6859 6.41738 27.8832L6.56427 27.6749C6.29021 27.4798 6.01835 27.2737 5.75526 27.0588L5.59302 27.2584Z" fill="black"/>
<path d="M4.27083 25.6731L4.08228 25.8485C4.31687 26.1006 4.56242 26.3462 4.81455 26.5808L4.98995 26.3922C4.7422 26.162 4.50103 25.9208 4.27083 25.6731Z" fill="black"/>
<path d="M2.77783 24.2502C2.97515 24.5286 3.18563 24.8048 3.40268 25.0723L3.5978 24.9079C3.37856 24.6448 3.17686 24.3729 2.98173 24.0989L2.77783 24.2502Z" fill="black"/>
<path d="M0.876953 20.5955C0.99096 20.9178 1.12031 21.2401 1.25625 21.5558L1.49084 21.4528C1.3571 21.1436 1.23213 20.8257 1.11812 20.51L0.876953 20.5955Z" fill="black"/>
<path d="M1.70142 22.4963C1.85927 22.7989 2.03028 23.1015 2.21006 23.3952L2.42931 23.2615C2.25172 22.9743 2.08509 22.6761 1.92943 22.3845L1.70142 22.4963Z" fill="black"/>
<path d="M9.11841 29.4024C9.43193 29.5406 9.75641 29.6677 10.0809 29.7817L10.1664 29.5406C9.84849 29.4266 9.53059 29.3016 9.21926 29.1678L9.11841 29.4024Z" fill="black"/>
<path d="M7.28101 28.451C7.57479 28.6307 7.87735 28.7995 8.1821 28.9574L8.30049 28.7382C8.00232 28.5847 7.70415 28.4159 7.42351 28.2405L7.28101 28.451Z" fill="black"/>
<path d="M15.1499 30.3891V30.6456C15.4941 30.6456 15.8405 30.6346 16.1825 30.6105L16.165 30.354C15.8296 30.3891 15.4875 30.3891 15.1499 30.3891Z" fill="black"/>
<path d="M13.0889 30.5097C13.4287 30.5557 13.7751 30.5908 14.1171 30.6149L14.1347 30.3584C13.797 30.3343 13.4572 30.3014 13.1239 30.2554L13.0889 30.5097Z" fill="black"/>
<path d="M17.1755 30.2532L17.2106 30.5075C17.5504 30.4614 17.8925 30.4022 18.2301 30.3321L18.1775 30.0822C17.8486 30.1501 17.5088 30.2071 17.1755 30.2532Z" fill="black"/>
<path d="M11.0654 30.0931C11.3965 30.1852 11.7232 30.2663 12.0696 30.3364L12.1222 30.0843C11.7911 30.0163 11.4645 29.9374 11.1356 29.8453L11.0654 30.0931Z" fill="black"/>
<path d="M23.5773 14.1759L23.5488 14.2022C23.768 15.134 23.5488 15.9562 22.7902 16.5876C22.0316 17.219 21.1853 17.2739 20.2821 16.877C20.0434 17.2519 19.7141 17.5605 19.3245 17.7743C18.935 17.9881 18.4978 18.1002 18.0534 18.1002C17.6091 18.1002 17.1719 17.9881 16.7823 17.7743C16.3928 17.5605 16.0635 17.2519 15.8248 16.877C14.9478 17.2651 14.0862 17.2147 13.3276 16.5964C12.9821 16.3258 12.7239 15.9594 12.5851 15.5431C12.4463 15.1267 12.4331 14.6787 12.5471 14.2549C12.2564 14.0167 11.9831 13.7581 11.7293 13.4809C11.5011 13.1947 11.3361 12.8634 11.245 12.5089C11.154 12.1543 11.1391 11.7845 11.2012 11.4237C11.2633 11.063 11.4011 10.7195 11.6055 10.4158C11.8099 10.1121 12.0763 9.85508 12.3871 9.6617C12.4435 9.637 12.4883 9.59169 12.5123 9.53503C12.5364 9.47837 12.5378 9.41466 12.5164 9.35695C12.4566 9.06518 12.4556 8.76438 12.5136 8.47222C12.5716 8.18006 12.6873 7.90243 12.8541 7.65562L13.3868 8.01299L13.3298 8.13138C13.212 8.34415 13.1432 8.58053 13.1284 8.82329C13.1136 9.06605 13.1532 9.30905 13.2443 9.53454C13.2742 9.58164 13.2922 9.63525 13.2969 9.69081C13.3016 9.74638 13.2928 9.80225 13.2713 9.85369C13.2498 9.90513 13.2162 9.95061 13.1733 9.98628C13.1304 10.0219 13.0796 10.0467 13.0251 10.0585C12.249 10.4159 11.8192 11.0188 11.817 11.8717C11.8054 12.2613 11.9146 12.6449 12.1297 12.97C12.3449 13.295 12.6553 13.5455 13.0185 13.687C13.2816 13.8076 13.3386 13.9413 13.2377 14.2088C13.102 14.5358 13.0758 14.8979 13.1632 15.2409C13.2505 15.584 13.4466 15.8895 13.7222 16.1117C13.9977 16.3339 14.3379 16.4609 14.6916 16.4736C15.0454 16.4862 15.3938 16.3839 15.6845 16.182C15.9476 16.0132 16.123 16.0614 16.2633 16.3421C16.4265 16.6716 16.6785 16.9489 16.991 17.1428C17.3034 17.3367 17.6638 17.4395 18.0315 17.4395C18.3992 17.4395 18.7596 17.3367 19.0721 17.1428C19.3845 16.9489 19.6365 16.6716 19.7997 16.3421C19.951 16.0505 20.1154 16.0044 20.3917 16.182C20.6804 16.3836 21.0264 16.4868 21.3784 16.4763C21.7304 16.4657 22.0696 16.342 22.3457 16.1235C22.6218 15.9049 22.8202 15.6032 22.9113 15.2631C23.0024 14.9229 22.9815 14.5624 22.8516 14.2351C22.742 13.9304 22.7946 13.8208 23.0971 13.6761C23.4449 13.5197 23.74 13.266 23.9466 12.9455C24.1532 12.6251 24.2625 12.2516 24.2614 11.8703C24.2602 11.489 24.1486 11.1162 23.94 10.797C23.7315 10.4778 23.4349 10.2259 23.0862 10.0717C22.799 9.93576 22.742 9.81518 22.8472 9.52358C22.9754 9.19733 22.9955 8.83856 22.9046 8.50003C22.8136 8.16151 22.6165 7.86108 22.3422 7.64292C22.0678 7.42476 21.7307 7.30038 21.3804 7.28806C21.0301 7.27575 20.6851 7.37614 20.3961 7.5745C20.133 7.74332 19.9576 7.69508 19.8151 7.41664C19.6526 7.08538 19.4004 6.80633 19.0873 6.61116C18.7741 6.416 18.4126 6.31254 18.0436 6.31254C17.6746 6.31254 17.313 6.416 16.9999 6.61116C16.6867 6.80633 16.4346 7.08538 16.2721 7.41664C16.1405 7.66877 15.9564 7.73674 15.7393 7.59423C15.476 7.40079 15.161 7.29018 14.8346 7.27651C14.5081 7.26284 14.185 7.34674 13.9064 7.5175C13.9064 7.5175 13.8801 7.5175 13.8472 7.5175L13.514 7.022C13.9525 6.58352 14.7878 6.51775 15.8161 6.84661C16.0555 6.47415 16.3846 6.16776 16.7732 5.95558C17.1618 5.74339 17.5975 5.6322 18.0403 5.6322C18.4831 5.6322 18.9187 5.74339 19.3074 5.95558C19.696 6.16776 20.0251 6.47415 20.2645 6.84661C20.4744 6.77355 20.6881 6.71207 20.9047 6.66244C21.2753 6.59243 21.6574 6.61505 22.0171 6.7283C22.3768 6.84155 22.7029 7.04192 22.9665 7.3116C23.2301 7.58127 23.423 7.91189 23.528 8.27408C23.633 8.63627 23.647 9.01879 23.5685 9.38765C23.5532 9.47754 23.5225 9.54331 23.6343 9.60689C24.0343 9.84195 24.365 10.1786 24.5929 10.5827C24.8208 10.9869 24.9378 11.444 24.932 11.908C24.9263 12.3719 24.7979 12.826 24.56 13.2243C24.322 13.6226 23.983 13.9509 23.5773 14.1759Z" fill="white"/>
<path d="M20.6943 17.866C20.6351 18.0436 20.5847 18.2102 20.5277 18.3747C20.1532 19.4561 19.542 20.4403 18.7386 21.2555C18.2874 21.6856 17.9339 22.2078 17.7024 22.7866C17.4709 23.3654 17.3667 23.9873 17.3969 24.6099C17.3969 24.7261 17.3969 24.8423 17.3969 24.9585C17.4025 25.0074 17.397 25.0569 17.3808 25.1033C17.3646 25.1498 17.3381 25.192 17.3033 25.2267C17.2685 25.2615 17.2264 25.288 17.1799 25.3042C17.1335 25.3204 17.084 25.3259 17.0351 25.3203H10.8656C10.8173 25.3249 10.7686 25.3186 10.7231 25.302C10.6776 25.2853 10.6364 25.2586 10.6025 25.2239C10.5687 25.1892 10.543 25.1473 10.5275 25.1014C10.5119 25.0555 10.5068 25.0067 10.5126 24.9585C10.5126 24.542 10.5126 24.1276 10.5126 23.6825C10.1246 23.6825 9.74526 23.6825 9.36597 23.6825C9.12066 23.6812 8.8761 23.6555 8.63588 23.6058C8.1513 23.4863 7.71963 23.2104 7.4077 22.8208C7.09577 22.4312 6.921 21.9496 6.91043 21.4506C6.89947 21.0012 6.91043 20.5517 6.91043 20.0782C6.72188 20.0782 6.56622 20.0782 6.40836 20.0782C6.10426 20.0782 5.8126 19.9574 5.59756 19.7423C5.38253 19.5273 5.26172 19.2356 5.26172 18.9315C5.26172 18.6274 5.38253 18.3358 5.59756 18.1207C5.8126 17.9057 6.10426 17.7849 6.40836 17.7849C6.56403 17.7849 6.72188 17.7849 6.91043 17.7849V17.5656C6.9214 16.7106 6.87535 15.8533 6.95428 15.0049C7.17353 12.6217 8.36621 10.8151 10.4096 9.57639C10.7555 9.38553 11.1112 9.21282 11.4751 9.05897C11.565 9.01731 11.6658 8.9932 11.7776 8.95374L11.9794 9.56323C11.7886 9.64216 11.6044 9.70793 11.4291 9.78248C9.19276 10.8217 7.88388 12.5559 7.61421 15.0093C7.51774 15.8862 7.57694 16.7632 7.56817 17.6511C7.56817 18.1927 7.32261 18.4338 6.77889 18.436C6.64734 18.436 6.51799 18.436 6.38863 18.436C6.26491 18.4443 6.14896 18.4993 6.06426 18.5899C5.97956 18.6805 5.93244 18.7999 5.93244 18.9239C5.93244 19.0479 5.97956 19.1672 6.06426 19.2578C6.14896 19.3484 6.26491 19.4034 6.38863 19.4117C6.5443 19.4248 6.70215 19.4117 6.86001 19.4117C6.95434 19.4042 7.04918 19.4171 7.13805 19.4497C7.22692 19.4822 7.30772 19.5335 7.37495 19.6001C7.44218 19.6667 7.49424 19.747 7.52758 19.8356C7.56093 19.9241 7.57477 20.0189 7.56817 20.1133C7.56817 20.201 7.56817 20.2886 7.56817 20.3917C7.8268 20.3982 8.08411 20.3527 8.32478 20.2578C8.56546 20.1629 8.78459 20.0205 8.96913 19.8392L9.40762 20.3171C9.16824 20.5547 8.88419 20.7425 8.57187 20.8697C8.25954 20.9968 7.92512 21.0609 7.5879 21.0582C7.54276 21.2919 7.54882 21.5326 7.60566 21.7637C7.6625 21.9948 7.76876 22.2108 7.91713 22.3969C8.06551 22.583 8.25246 22.7347 8.46511 22.8416C8.67776 22.9485 8.91105 23.008 9.14891 23.016C9.67948 23.0292 10.2144 23.016 10.7472 23.016C11.0541 23.016 11.166 23.1279 11.166 23.4348C11.166 23.8316 11.166 24.2263 11.166 24.6385H16.7238C16.7413 24.3578 16.7479 24.0728 16.7764 23.7922C16.8726 22.7662 17.3139 21.8031 18.0283 21.0604C18.9552 20.1453 19.642 19.0157 20.0278 17.7717C20.0391 17.7442 20.0531 17.7177 20.0695 17.6928L20.6943 17.866Z" fill="white"/>
<path d="M17.3025 14.5771L16.807 15.0353L15.759 13.9742L14.6957 15.0704L14.2287 14.5771L15.2943 13.5291L14.2134 12.4636L14.6935 11.99L15.7547 13.0424L16.818 11.9594C16.9868 12.1282 17.1315 12.2773 17.2938 12.4417L16.2217 13.5028L17.3025 14.5771Z" fill="white"/>
<path d="M17.3815 9.57406V10.2406H16.0858V11.5319H15.4324V10.2428H14.1323V9.58284H15.4237V8.28491H16.0814V9.57406H17.3815Z" fill="white"/>
<path d="M11.9553 17.4756C11.7874 17.7498 11.5239 17.9522 11.2157 18.0438C10.9075 18.1353 10.5763 18.1096 10.2859 17.9717C9.99545 17.8337 9.76635 17.5931 9.64268 17.2963C9.519 16.9995 9.50949 16.6675 9.61597 16.3641L10.1948 16.5658C10.175 17.0657 10.3154 17.3178 10.6618 17.4165C10.8003 17.4504 10.9462 17.4384 11.0773 17.3822C11.2084 17.3261 11.3178 17.2288 11.3888 17.1051C11.4598 16.9813 11.4887 16.8379 11.471 16.6963C11.4534 16.5547 11.3902 16.4227 11.291 16.3202C11.052 16.0878 10.7626 16.0747 10.3987 16.2895L10.1794 16.0528L9.97992 15.8225C10.2002 15.6139 10.4881 15.4914 10.7911 15.4773C11.0942 15.4632 11.3922 15.5585 11.6308 15.7458C11.889 15.9431 12.0651 16.2291 12.125 16.5485C12.1849 16.8679 12.1244 17.1982 11.9553 17.4756Z" fill="white"/>
<path d="M21.8408 12.4332L19.245 15.0268L18.8525 14.6212L21.4572 12.0188L21.8408 12.4332Z" fill="white"/>
<path d="M21.9792 9.59619H18.719V10.2232H21.9792V9.59619Z" fill="white"/>
<path d="M9.77383 12.7554C9.34011 13.3907 9.0519 14.1139 8.92974 14.8733L8.28955 14.7768C8.41727 13.9173 8.74137 13.0988 9.23668 12.3849L9.77383 12.7554Z" fill="white"/>
<path d="M10.6136 11.7666L10.1071 12.2818L9.64233 11.874L10.2233 11.3127L10.6136 11.7666Z" fill="white"/>
<path d="M19.6747 12.2073H19.052V12.8453H19.6747V12.2073Z" fill="white"/>
<path d="M21.648 14.1804H21.0166V14.8118H21.648V14.1804Z" fill="white"/>
</svg>
