<svg width="182" height="133" viewBox="0 0 182 133" fill="none" xmlns="http://www.w3.org/2000/svg">
<path fill-rule="evenodd" clip-rule="evenodd" d="M53.4537 114.313H53.4547H53.4558H53.4568H53.4579H53.4591H53.4603H53.4615H53.4628H53.4641H53.4654H53.4667H53.4681H53.4695H53.4709H53.4723H53.4738H53.4753H53.4769H53.4786H53.4803H53.4821H53.4839H53.4857H53.4877H53.4897H53.4918H53.494H53.4962H53.4985H53.5009H53.5032H53.5057H53.5082H53.5107H53.5134H53.5161H53.519H53.5219H53.5249H53.528H53.5312H53.5345H53.5379H53.5413H53.5449H53.5486H53.5524H53.5564H53.5604H53.5646H53.5688H53.5732H53.5777H53.5824H53.5872H53.5922H53.5973H53.6025H53.6079H53.6134H53.6191H53.6249H53.6309H53.6371H53.6434H53.6499H53.6566H53.6635H53.6706H53.6779H53.6854H53.693H53.7009C58.4356 114.32 63.3896 114.327 68.652 114.327C73.4368 114.39 78.8423 114.366 84.6148 114.341H84.6152H84.6156H84.6159H84.6163H84.6167H84.617H84.6174H84.6178H84.6181H84.6185H84.6189H84.6192H84.6196H84.62H84.6203H84.6207H84.6211H84.6214H84.6218H84.6222H84.6225H84.6229H84.6233H84.6236H84.624H84.6244H84.6247H84.6251H84.6255H84.6258H84.6262H84.6266H84.6269H84.6273H84.6277H84.628H84.6284H84.6288H84.6291H84.6295H84.6299H84.6302H84.6306H84.631H84.6313H84.6317H84.6321H84.6324H84.6328H84.6332H84.6335H84.6339H84.6343H84.6346H84.635H84.6354H84.6357H84.6361H84.6365H84.6368H84.6372H84.6376H84.6379H84.6383H84.6386H84.639H84.6394H84.6397H84.6401H84.6405H84.6408H84.6412H84.6416H84.6419H84.6423H84.6427H84.643H84.6434H84.6438H84.6441H84.6445H84.6449H84.6452H84.6456H84.646H84.6463H84.6467H84.6471H84.6474H84.6478H84.6482H84.6485H84.6489H84.6493H84.6496H84.65H84.6504H84.6507H84.6511H84.6515H84.6518H84.6522H84.6526H84.6529H84.6533H84.6537H84.654H84.6544H84.6548H84.6551H84.6555H84.6559H84.6562H84.6566H84.657H84.6573H84.6577H84.6581H84.6584H84.6588H84.6592H84.6595H84.6599H84.6603H84.6606H84.661H84.6614H84.6617H84.6621H84.6625H84.6628H84.6632H84.6636H84.6639H84.6643H84.6646H84.665H84.6654H84.6657H84.6661H84.6665H84.6668H84.6672H84.6676H84.6679H84.6683H84.6687H84.669H84.6694H84.6698H84.6701H84.6705H84.6709H84.6712H84.6716H84.672H84.6723H84.6727H84.6731H84.6734H84.6738H84.6742H84.6745H84.6749H84.6753H84.6756H84.676H84.6764H84.6767H84.6771H84.6775H84.6778H84.6782H84.6786H84.6789H84.6793H84.6797H84.68H84.6804H84.6808H84.6811H84.6815H84.6819H84.6822H84.6826H84.683H84.6833H84.6837H84.6841H84.6844H84.6848H84.6852H84.6855H84.6859H84.6863H84.6866H84.687H84.6874H84.6877H84.6881H84.6885H84.6888H84.6892H84.6896H84.6899H84.6903H84.6907H84.691H84.6914H84.6917H84.6921H84.6925H84.6928H84.6932H84.6936H84.6939H84.6943H84.6947H84.695H84.6954H84.6958H84.6961H84.6965H84.6969H84.6972H84.6976C93.013 114.306 102.086 114.266 111.157 114.474C116.447 114.595 121.74 114.552 127.03 114.509L127.032 114.509L127.034 114.509L127.036 114.509L127.038 114.509C127.768 114.503 128.498 114.497 129.228 114.492C131.283 114.476 133.193 113.946 134.889 112.62C136.917 111.028 139.417 110.153 141.996 110.133C144.759 110.088 147.303 110.886 149.515 112.61C151.041 113.813 152.923 114.475 154.865 114.493C158.718 114.551 162.57 114.538 166.422 114.493C167.53 114.48 168.657 114.349 169.644 113.718C171.779 112.369 172.744 110.432 172.744 107.91C172.731 79.8988 172.731 51.8846 172.744 23.8679C172.746 23.1335 172.659 22.4015 172.485 21.6879C172.179 20.3435 171.38 19.1626 170.246 18.3784C169.018 17.5222 167.652 17.228 166.181 17.228C128.397 17.2406 90.6132 17.2385 52.8286 17.2217C50.3123 17.2206 48.1302 17.9235 46.1413 19.4994C43.5421 21.5629 40.4869 22.2037 37.2384 21.7992C35.011 21.5229 33.0338 20.5826 31.2614 19.1832C29.6702 17.8941 27.6787 17.2014 25.6311 17.2248C19.1872 17.2395 12.7434 17.2395 6.29959 17.2248C5.42396 17.2311 4.55662 17.3951 3.73922 17.7092C2.11705 18.307 0.139779 20.5396 0.200715 22.7459C0.25181 24.598 0.242181 26.4518 0.232551 28.3057C0.228716 29.044 0.224881 29.7823 0.224881 30.5205C0.23183 30.8692 0.269803 31.2165 0.338348 31.5585C0.807634 34.293 1.97794 36.8592 3.73502 39.0064C5.19853 40.8071 6.94782 42.2507 9.06483 43.1553C12.659 44.6913 15.7867 46.8188 18.3902 49.7553C20.5824 52.2175 22.2501 55.1006 23.2913 58.2286C24.5374 61.9436 24.7097 65.7658 24.1791 69.6194C23.5624 74.0993 21.7217 78.0728 18.8083 81.4989C16.311 84.4354 13.3083 86.7593 9.70781 88.2565C8.83106 88.6116 7.99054 89.0504 7.19787 89.5666C4.93754 91.0579 3.10232 93.1096 1.87121 95.5215C0.952963 97.3034 0.295272 99.2019 0.240639 101.223C0.188634 103.193 0.200453 105.163 0.212273 107.133C0.216213 107.79 0.220153 108.446 0.221729 109.103C0.221729 110.39 0.7628 111.464 1.58754 112.42C2.89872 113.939 4.63435 114.506 6.55279 114.495C10.1978 114.473 13.8406 114.44 17.4865 114.407C18.7745 114.395 20.0629 114.383 21.3519 114.372C31.6167 114.283 41.8825 114.297 53.4537 114.313Z" fill="white"/>
<path d="M109.083 10.9831H50.5687C50.3239 10.9831 50.078 10.9831 49.8332 10.9831C48.7479 10.9831 48.7469 10.9831 48.479 12.0568C47.3317 16.6407 43.209 19.7926 38.393 19.5772C34.0339 19.3828 30.1099 16.129 29.3156 11.6229C28.2524 5.59234 32.3477 1.09567 37.0419 0.179522C42.1532 -0.81857 47.2193 2.45202 48.4002 7.33532C48.7059 8.59607 48.7259 8.59607 50.0518 8.59607C89.6211 8.59607 129.191 8.59257 168.761 8.58556C170.944 8.58556 173.014 8.94908 174.918 10.0249C178.987 12.3226 181.186 15.7949 181.385 20.4923C181.397 20.7717 181.385 21.0523 181.385 21.3328C181.385 51.1327 181.388 80.9322 181.394 110.731C181.394 112.468 181.227 114.161 180.54 115.763C178.719 120.016 175.525 122.551 170.958 123.366C170.089 123.521 169.219 123.534 168.344 123.533C163.476 123.533 158.609 123.533 153.74 123.533C153.495 123.533 153.249 123.533 153.005 123.533C151.984 123.542 151.972 123.539 151.744 124.49C151.287 126.417 150.366 128.076 148.907 129.417C146.105 131.984 142.813 132.674 139.249 131.579C135.647 130.475 133.391 127.927 132.63 124.236C131.549 119.003 134.731 114.045 139.869 112.764C145.076 111.464 150.399 114.656 151.708 119.861C151.758 120.065 151.813 120.268 151.851 120.475C151.918 120.895 152.158 121.074 152.577 121.037C152.717 121.024 152.857 121.037 152.997 121.037C158.355 121.037 163.714 121.037 169.072 121.037C171.333 121.043 173.527 120.271 175.285 118.849C177.043 117.428 178.258 115.444 178.726 113.232C178.954 112.174 179.007 111.085 179.007 109.997C179.003 83.3112 179.003 56.6278 179.007 29.9468C179.007 27.1459 179.023 24.3439 179 21.5419C178.989 20.1036 178.849 18.6737 178.274 17.3299C176.675 13.5886 173.891 11.4601 169.798 11.0945C168.327 10.9642 166.856 10.9894 165.385 10.9894C146.62 10.9838 127.852 10.9817 109.083 10.9831Z" fill="#C655A5"/>
<path d="M138.391 117.612C140.328 118.663 141.424 120.27 141.668 122.426C141.802 123.538 141.819 124.661 141.72 125.776C141.639 126.611 141.351 126.897 140.525 126.926C139.652 126.956 138.776 126.957 137.899 126.926C137.126 126.897 136.826 126.611 136.743 125.852C136.636 124.913 136.634 123.965 136.736 123.025C136.821 122.22 137.138 121.943 137.967 121.903C138.455 121.88 138.946 121.903 139.438 121.892C140.191 121.872 140.278 121.77 140.123 121.013C139.916 119.98 139.474 119.01 138.83 118.176L138.391 117.612Z" fill="#FFFEFF"/>
<path d="M36.6647 5.14267C35.9209 6.21115 35.2621 7.3059 35.0552 8.61708C34.9291 9.41556 34.9186 9.41871 35.757 9.43447C36.2823 9.44497 36.8076 9.41346 37.3329 9.44813C38.0684 9.4954 38.414 9.83686 38.4403 10.5733C38.4728 11.4821 38.4718 12.3941 38.4403 13.305C38.414 14.0782 38.0473 14.4333 37.2499 14.4607C36.3768 14.4911 35.4996 14.4911 34.6234 14.4607C33.8732 14.4344 33.454 14.0887 33.4477 13.3985C33.433 11.9686 33.288 10.5303 33.6295 9.11298C33.8275 8.27486 34.2002 7.48799 34.7233 6.80382C35.2463 6.11965 35.9079 5.55359 36.6647 5.14267Z" fill="#FFFEFF"/>
<path d="M42.8528 4.99139C41.9452 5.97976 41.3181 7.19268 41.0363 8.50468C40.8693 9.3021 40.9722 9.41767 41.7802 9.43553C42.2698 9.44604 42.7614 9.41977 43.251 9.44499C44.0695 9.48806 44.3752 9.78749 44.3994 10.6196C44.426 11.5301 44.426 12.4407 44.3994 13.3512C44.3773 14.0415 44.0537 14.4165 43.3908 14.4481C42.4126 14.4953 41.4303 14.4932 40.449 14.4481C39.8313 14.4197 39.5035 14.0772 39.4541 13.4363C39.3343 12.039 39.3028 10.6322 39.5823 9.25272C39.8838 7.75874 40.989 5.83399 42.8528 4.99139Z" fill="#FFFEFF"/>
<path d="M144.646 117.703C144.997 117.742 145.211 117.972 145.428 118.17C146.899 119.507 147.681 121.168 147.709 123.166C147.721 124.006 147.728 124.847 147.709 125.687C147.685 126.549 147.352 126.901 146.501 126.931C145.628 126.961 144.753 126.963 143.875 126.931C143.082 126.901 142.728 126.548 142.7 125.759C142.668 124.851 142.666 123.94 142.7 123.027C142.729 122.308 143.098 121.953 143.823 121.909C144.453 121.871 145.084 121.892 145.714 121.892C146.077 121.892 146.193 121.735 146.142 121.367C145.992 120.325 145.607 119.331 145.017 118.46C144.878 118.24 144.616 118.077 144.646 117.703Z" fill="#FFFEFF"/>
</svg>
