<?xml version="1.0" encoding="utf-8"?>
<!-- Generator: Adobe Illustrator 23.0.5, SVG Export Plug-In . SVG Version: 6.00 Build 0)  -->
<svg version="1.1" id="Layer_1" xmlns="http://www.w3.org/2000/svg" xmlns:xlink="http://www.w3.org/1999/xlink" x="0px" y="0px"
	 viewBox="0 0 182 133" style="enable-background:new 0 0 182 133;" xml:space="preserve">
<style type="text/css">
	.st0{fill-rule:evenodd;clip-rule:evenodd;fill:#FFFFFF;}
	.st1{fill:#EA5C74;}
	.st2{fill:#FFFEFF;}
</style>
<path class="st0" d="M53.7,114.8h0.2h15c4.8,0.1,10.2,0,16,0H85c8.3,0,17.4-0.1,26.5,0.1c5.3,0.1,10.6,0.1,15.9,0l0,0h2.2
	c2,0,4-0.6,5.7-1.9c4.3-3.3,10.3-3.3,14.6,0c1.5,1.2,3.4,1.9,5.4,1.9c3.9,0.1,7.7,0,11.6,0c1.1,0.1,2.2-0.2,3.2-0.8
	c2-1.2,3.2-3.4,3.1-5.8c0-28,0-56,0-84c0-0.7-0.1-1.5-0.3-2.2c-0.3-1.3-1.1-2.5-2.2-3.3c-1.2-0.8-2.6-1.2-4.1-1.1
	c-37.8,0-75.6,0-113.3,0c-2.5-0.1-4.9,0.8-6.8,2.3c-2.5,2-5.7,2.8-8.9,2.3c-2.2-0.3-4.3-1.2-6-2.6c-1.6-1.3-3.6-2-5.6-2
	c-6.4,0-12.9,0-19.3,0c-0.9,0-1.7,0.2-2.6,0.5c-2,0.9-3.4,2.8-3.5,5c0,1.9,0,3.7,0,5.6c0,0.7,0,1.5,0,2.2c0,0.3,0,0.7,0.1,1
	c0.8,5.1,4.1,9.4,8.7,11.6c4.6,2.5,15.9,10.7,17.1,20.4C27.8,75.7,14.1,87,9.9,88.7C9,89.1,8.2,89.5,7.4,90c-2.3,1.5-4.1,3.6-5.3,6
	c-1,1.8-1.5,3.7-1.6,5.7c0,2,0,3.9,0,5.9v2c0,1.2,0.5,2.4,1.4,3.3c1.3,1.4,3.1,2.2,5,2.1l10.9-0.1h3.9
	C31.8,114.7,42.1,114.8,53.7,114.8z"/>
<path class="st1" d="M109.3,11.4H50c-1.1,0-1.1,0-1.4,1.1c-1.1,4.6-5.3,7.7-10,7.5c-4.5-0.2-8.3-3.5-9.1-8c-0.9-5.3,2.7-10.4,8-11.3
	c5-0.8,9.8,2.2,11.1,7.1c0.3,1.3,0.3,1.3,1.7,1.3H169c2.1-0.1,4.3,0.4,6.2,1.4c3.9,2,6.4,6.1,6.4,10.5c0,0.3,0,0.6,0,0.8
	c0,29.8,0,59.6,0,89.4c0.1,1.7-0.2,3.4-0.9,5c-1.6,4.1-5.3,7-9.6,7.6c-0.9,0.1-1.7,0.2-2.6,0.2h-15.3c-1,0-1,0-1.3,1
	c-1.2,5.2-6.4,8.5-11.7,7.3c-0.3-0.1-0.5-0.1-0.8-0.2c-3.4-1-6-3.8-6.6-7.3c-1.1-5.3,2.3-10.5,7.6-11.6c5.1-1.1,10.2,2.1,11.5,7.2
	c0.1,0.2,0.1,0.4,0.1,0.6c0,0.3,0.3,0.6,0.6,0.6c0,0,0.1,0,0.1,0c0.1,0,0.3,0,0.4,0h16.1c4.7,0,8.7-3.2,9.7-7.8
	c0.2-1.1,0.3-2.1,0.3-3.2v-80c0-2.8,0-5.6,0-8.4c0-1.4-0.2-2.9-0.7-4.2c-1.3-3.6-4.6-6.1-8.5-6.4c-1.5-0.1-2.9-0.1-4.4-0.1
	L109.3,11.4z"/>
<path class="st2" d="M138.6,118.1c1.9,0.9,3.1,2.8,3.3,4.8c0.1,1.1,0.1,2.2,0,3.3c-0.1,0.8-0.4,1.1-1.2,1.2s-1.8,0-2.6,0
	s-1.1-0.3-1.1-1.1c-0.1-0.9-0.1-1.9,0-2.8c0.1-0.8,0.4-1.1,1.2-1.1c0.5,0,1,0,1.5,0c0.8,0,0.8-0.1,0.7-0.9c-0.2-1-0.7-2-1.3-2.8
	L138.6,118.1z"/>
<path class="st2" d="M36.9,5.6c-0.8,1-1.3,2.2-1.6,3.5c-0.1,0.8-0.1,0.8,0.7,0.8c0.5,0,1,0,1.6,0c0.5-0.1,1,0.3,1.1,0.9
	c0,0.1,0,0.1,0,0.2c0,0.9,0,1.8,0,2.7s-0.4,1.1-1.2,1.2s-1.8,0-2.6,0s-1.2-0.4-1.2-1.1c-0.1-1.4-0.1-2.9,0.2-4.3
	C34.2,7.8,35.3,6.4,36.9,5.6L36.9,5.6z"/>
<path class="st2" d="M43.1,5.4c-0.9,1-1.5,2.2-1.8,3.6c-0.2,0.8-0.1,0.9,0.7,0.9c0.5,0,1,0,1.5,0c0.8,0,1.1,0.4,1.2,1.2s0,1.8,0,2.7
	c0,0.7-0.3,1.1-1,1.1c-1,0.1-2,0-2.9,0c-0.6,0-1-0.4-1-1c-0.2-1.4-0.1-2.8,0.1-4.2C40.2,7.9,41.4,6.3,43.1,5.4z"/>
<path class="st2" d="M144.9,118.2c0.3,0.1,0.6,0.2,0.8,0.5c1.4,1.3,2.3,3.1,2.3,5c0,0.8,0,1.7,0,2.5s-0.4,1.2-1.2,1.2s-1.7,0-2.6,0
	c-0.6,0.1-1.1-0.3-1.2-0.9c0-0.1,0-0.2,0-0.2c0-0.9,0-1.8,0-2.7c-0.1-0.5,0.3-1,0.9-1.1c0.1,0,0.2,0,0.3,0c0.6,0,1.3,0,1.9,0
	c0.4,0,0.5-0.2,0.4-0.5c-0.1-1-0.5-2-1.1-2.9C145.1,118.7,144.8,118.5,144.9,118.2z"/>
</svg>
