<svg width="21" height="21" viewBox="0 0 21 21" fill="none" xmlns="http://www.w3.org/2000/svg">
<path d="M4.2 21H16.8C19.116 21 21 19.116 21 16.8V4.2C21 1.884 19.116 0 16.8 0H4.2C1.884 0 0 1.884 0 4.2V16.8C0 19.116 1.884 21 4.2 21ZM1.2 4.2C1.2 2.5458 2.5458 1.2 4.2 1.2H16.8C18.4542 1.2 19.8 2.5458 19.8 4.2V16.8C19.8 18.4542 18.4542 19.8 16.8 19.8H4.2C2.5458 19.8 1.2 18.4542 1.2 16.8V4.2Z" fill="#FBFBFB"/>
<path d="M7.17719 13.8481C8.77709 15.4483 10.5432 16.7155 12.1506 17.4169C13.0305 17.8009 13.8198 17.9929 14.487 17.9929C15.1605 17.9929 15.7095 17.797 16.101 17.4055L17.6082 15.8983C18.0978 15.4087 18.0564 14.5708 17.5167 14.0308L15.2952 11.8093C15.0477 11.5618 14.7282 11.4088 14.3961 11.3791C14.0292 11.3464 13.6755 11.4694 13.4274 11.7178L12.7536 12.3958C12.5424 12.49 11.4534 12.1678 10.1406 10.855C8.82749 9.54185 8.50589 8.45375 8.58539 8.25995L9.27749 7.56785C9.52589 7.31975 9.64949 6.96665 9.61649 6.59945C9.58649 6.26705 9.43349 5.94785 9.18599 5.70005L6.96449 3.47885C6.71699 3.23135 6.39749 3.07835 6.06539 3.04865C5.69879 3.01595 5.34509 3.13865 5.09699 3.38735L3.58979 4.89425C2.81219 5.67185 2.82179 7.07015 3.61679 8.83115C4.37939 10.5196 5.67719 12.3481 7.17719 13.8481ZM4.43819 5.74295L5.93219 4.24475C5.93698 4.24343 5.94193 4.24283 5.94689 4.24295C5.97929 4.24295 6.04889 4.25975 6.11609 4.32695L8.33759 6.54875C8.41859 6.62975 8.42639 6.71285 8.42909 6.71915L7.73699 7.41185C6.79679 8.35175 7.88399 10.2955 9.29189 11.7034C10.6998 13.1113 12.6432 14.1994 13.5837 13.2583L14.2626 12.5752C14.283 12.5692 14.3658 12.5767 14.4465 12.6577L16.668 14.8792C16.749 14.9602 16.7568 15.0436 16.7598 15.0499L15.252 16.5571C14.8638 16.9453 13.8591 16.8532 12.63 16.3171C11.157 15.6742 9.52199 14.4961 8.02529 13C6.62369 11.5984 5.41529 9.89885 4.71029 8.33735C4.16039 7.11905 4.05599 6.12515 4.43789 5.74295H4.43819Z" fill="#FBFBFB"/>
</svg>
