<svg id="Layer_1" data-name="Layer 1" xmlns="http://www.w3.org/2000/svg" viewBox="0 0 182 133"><defs><style>.cls-1{fill:#fff;fill-rule:evenodd;}.cls-2{fill:#ea5c74;}.cls-3{fill:#fffeff;}</style></defs><title>Group 102</title><path class="cls-1" d="M53.66,114.77h.24l15,0c4.78.06,10.19,0,16,0h.08c8.32,0,17.39-.07,26.46.13,5.29.12,10.58.08,15.87,0h0l2.19,0a8.91,8.91,0,0,0,5.66-1.87,12,12,0,0,1,14.63,0,8.79,8.79,0,0,0,5.35,1.88c3.85.06,7.7,0,11.56,0a5.93,5.93,0,0,0,3.22-.77,6.4,6.4,0,0,0,3.1-5.81q0-42,0-84a9.35,9.35,0,0,0-.26-2.18,5.52,5.52,0,0,0-2.24-3.31,6.83,6.83,0,0,0-4.07-1.15q-56.67,0-113.35,0A10.32,10.32,0,0,0,46.34,20a11.54,11.54,0,0,1-8.9,2.3,12,12,0,0,1-6-2.62,8.79,8.79,0,0,0-5.63-2q-9.66,0-19.33,0a7.5,7.5,0,0,0-2.56.49,5.92,5.92,0,0,0-3.54,5c0,1.85,0,3.7,0,5.56,0,.73,0,1.47,0,2.21a5.17,5.17,0,0,0,.11,1,15.69,15.69,0,0,0,8.73,11.6C13.8,46,25.08,54.26,26.32,63.92,27.84,75.71,14.05,87,9.91,88.72A14.07,14.07,0,0,0,7.4,90a15.74,15.74,0,0,0-5.33,6,13.43,13.43,0,0,0-1.63,5.7c0,2,0,3.94,0,5.91v2a5,5,0,0,0,1.37,3.32,6.14,6.14,0,0,0,5,2.07l10.93-.08,3.86,0C31.82,114.74,42.09,114.76,53.66,114.77Z"/><path class="cls-2" d="M109.29,11.44H50c-1.09,0-1.09,0-1.36,1.08A9.88,9.88,0,0,1,38.6,20a9.74,9.74,0,0,1-9.08-8A9.78,9.78,0,0,1,48.6,7.8c.31,1.26.33,1.26,1.65,1.26H169a12.24,12.24,0,0,1,6.16,1.43A11.94,11.94,0,0,1,181.59,21c0,.28,0,.56,0,.84q0,44.7,0,89.4a12.47,12.47,0,0,1-.86,5,12.16,12.16,0,0,1-9.58,7.61,15.25,15.25,0,0,1-2.61.16H153.21c-1,0-1,0-1.26,1a9.75,9.75,0,0,1-12.5,7.09,9.21,9.21,0,0,1-6.62-7.34,9.79,9.79,0,0,1,19.08-4.38c.05.2.11.41.14.61a.61.61,0,0,0,.73.57,2.94,2.94,0,0,1,.42,0h16.07a9.84,9.84,0,0,0,9.66-7.81,15.22,15.22,0,0,0,.28-3.23v-80c0-2.8,0-5.61,0-8.41a10.8,10.8,0,0,0-.72-4.21A9.6,9.6,0,0,0,170,11.55c-1.47-.13-2.94-.1-4.41-.1Z"/><path class="cls-3" d="M138.59,118.07a6,6,0,0,1,3.28,4.82,15.63,15.63,0,0,1,0,3.35c-.08.83-.37,1.12-1.19,1.15s-1.75,0-2.63,0-1.07-.32-1.15-1.08a12.75,12.75,0,0,1,0-2.83c.08-.8.4-1.08,1.23-1.12.49,0,1,0,1.47,0,.75,0,.84-.12.69-.88a6.78,6.78,0,0,0-1.3-2.83Z"/><path class="cls-3" d="M36.87,5.6a8.41,8.41,0,0,0-1.61,3.48c-.13.8-.14.8.7.81.53,0,1,0,1.58,0A1,1,0,0,1,38.64,11c0,.91,0,1.82,0,2.73s-.39,1.13-1.19,1.16-1.75,0-2.62,0-1.17-.37-1.18-1.06a17.62,17.62,0,0,1,.18-4.29,6.15,6.15,0,0,1,3-4Z"/><path class="cls-3" d="M43.06,5.45A7.51,7.51,0,0,0,41.24,9c-.17.8-.06.92.74.94.49,0,1,0,1.47,0,.82,0,1.13.35,1.15,1.18s0,1.82,0,2.73c0,.69-.34,1.07-1,1.1-1,.05-2,0-2.94,0a1,1,0,0,1-1-1,14.7,14.7,0,0,1,.13-4.19A6.15,6.15,0,0,1,43.06,5.45Z"/><path class="cls-3" d="M144.85,118.16a1.39,1.39,0,0,1,.78.47,6.65,6.65,0,0,1,2.28,5c0,.84,0,1.68,0,2.52s-.35,1.21-1.21,1.24-1.74,0-2.62,0a1.06,1.06,0,0,1-1.18-1.17q0-1.36,0-2.73a1,1,0,0,1,1.13-1.12c.63,0,1.26,0,1.89,0,.36,0,.48-.16.42-.52a6.78,6.78,0,0,0-1.12-2.91C145.08,118.7,144.82,118.54,144.85,118.16Z"/></svg>