<svg width="26" height="26" viewBox="0 0 26 26" fill="none" xmlns="http://www.w3.org/2000/svg">
<path d="M22.4685 0H3.20979C1.43959 0 0 1.43959 0 3.20979V22.4685C0 24.2387 1.43959 25.6783 3.20979 25.6783H22.4685C24.2387 25.6783 25.6783 24.2387 25.6783 22.4685V3.20979C25.6783 1.43959 24.2387 0 22.4685 0Z" fill="#1976D2"/>
<path fill-rule="evenodd" clip-rule="evenodd" d="M18.8842 12.8392H14.872V9.62938C14.872 8.74348 15.591 8.82693 16.4769 8.82693H18.0818V4.8147H14.872C13.5951 4.8147 12.3704 5.32196 11.4675 6.22489C10.5646 7.12781 10.0573 8.35245 10.0573 9.62938V12.8392H6.84753V16.8514H10.0573V25.6783H14.872V16.8514H17.2794L18.8842 12.8392Z" fill="#FAFAFA"/>
</svg>
