<svg id="Layer_1" data-name="Layer 1" xmlns="http://www.w3.org/2000/svg" viewBox="0 0 182 133"><defs><style>.cls-1{fill:#fff;fill-rule:evenodd;}.cls-2{fill:#ea5c74;}.cls-3{fill:#fffeff;}</style></defs><title>Group 102-01</title><path class="cls-1" d="M53.66,108.58h15.2c4.78,0,10.19,0,16,0h.08c8.32,0,17.39-.06,26.46.11,5.29.11,10.58.07,15.87,0h2.2a10.16,10.16,0,0,0,5.66-1.59,13.7,13.7,0,0,1,14.63,0,9.84,9.84,0,0,0,5.35,1.6c3.85,0,7.7,0,11.56,0a6.75,6.75,0,0,0,3.22-.66,5.3,5.3,0,0,0,3.1-4.94q0-35.75,0-71.5a6.89,6.89,0,0,0-.26-1.85A4.8,4.8,0,0,0,170.45,27a7.84,7.84,0,0,0-4.07-1Q109.71,26,53,26a11.56,11.56,0,0,0-6.69,1.94,13,13,0,0,1-8.9,1.95,13,13,0,0,1-6-2.22A9.77,9.77,0,0,0,25.83,26Q16.17,26,6.5,26a8.84,8.84,0,0,0-2.56.41C2.32,26.9.34,28.8.4,30.68c0,1.58,0,3.15,0,4.73,0,.63,0,1.26,0,1.88a3.8,3.8,0,0,0,.11.89,12.79,12.79,0,0,0,3.4,6.33A15.34,15.34,0,0,0,9.27,48c5,2.15,13.35,9.38,14.06,18.26,1,12.29-13.24,20-13.42,20.11h0l-.52.18a15.45,15.45,0,0,0-2,.92,14.46,14.46,0,0,0-5.33,5.07A10.2,10.2,0,0,0,.44,97.44c0,1.68,0,3.35,0,5v1.67A4,4,0,0,0,1.79,107a6.75,6.75,0,0,0,5,1.76l10.93-.07,3.86,0C31.82,108.55,42.09,108.56,53.66,108.58Z"/><path class="cls-2" d="M109.29,17.59H50c-1.09,0-1.09,0-1.36.95-1.15,4.07-5.27,6.87-10.08,6.68-4.36-.17-8.29-3.06-9.08-7.06C28.46,12.8,32.55,8.8,37.24,8c5.12-.89,10.18,2,11.36,6.36.31,1.12.33,1.12,1.65,1.12H169a13.39,13.39,0,0,1,6.16,1.28c4.07,2,6.27,5.12,6.47,9.3,0,.24,0,.49,0,.74q0,39.72,0,79.42a10,10,0,0,1-.86,4.47q-2.73,5.67-9.58,6.76a17.58,17.58,0,0,1-2.61.15H153.21c-1,0-1,0-1.26.85a8.28,8.28,0,0,1-2.84,4.37,10.29,10.29,0,0,1-9.66,1.92,8.6,8.6,0,0,1-6.62-6.52c-1.08-4.65,2.1-9,7.24-10.19s10.53,1.68,11.84,6.3a4.92,4.92,0,0,1,.14.55c.07.37.31.53.73.5.14,0,.28,0,.42,0h16.07a10.64,10.64,0,0,0,6.22-2,8.63,8.63,0,0,0,3.44-5,12,12,0,0,0,.28-2.87V34.44c0-2.49,0-5,0-7.47a8.64,8.64,0,0,0-.72-3.74c-1.6-3.33-4.39-5.22-8.48-5.54-1.47-.12-2.94-.1-4.41-.1Z"/><path class="cls-3" d="M138.59,112.32a5.33,5.33,0,0,1,3.28,4.27,12.38,12.38,0,0,1,0,3c-.08.74-.37,1-1.19,1s-1.75,0-2.63,0-1.07-.28-1.15-1a10.12,10.12,0,0,1,0-2.52c.08-.71.4-1,1.23-1,.49,0,1,0,1.47,0,.75,0,.84-.11.69-.78a5.75,5.75,0,0,0-1.3-2.52Z"/><path class="cls-3" d="M144.85,112.4a1.44,1.44,0,0,1,.78.41,5.64,5.64,0,0,1,2.28,4.44c0,.75,0,1.49,0,2.24s-.35,1.08-1.21,1.1-1.74,0-2.62,0-1.15-.34-1.18-1,0-1.61,0-2.42c0-.64.4-1,1.13-1s1.26,0,1.89,0c.36,0,.48-.14.42-.47a5.67,5.67,0,0,0-1.12-2.58C145.08,112.87,144.82,112.73,144.85,112.4Z"/><path class="cls-3" d="M36.87,12.76a7.93,7.93,0,0,0-1.61,3.34c-.13.76-.14.77.7.78.53,0,1,0,1.58,0,.73.05,1.08.38,1.1,1.08,0,.88,0,1.75,0,2.62s-.39,1.09-1.19,1.11-1.75,0-2.62,0-1.17-.35-1.18-1a16.18,16.18,0,0,1,.18-4.11,5.68,5.68,0,0,1,1.1-2.21A6,6,0,0,1,36.87,12.76Z"/><path class="cls-3" d="M43.06,12.62A7.1,7.1,0,0,0,41.24,16c-.17.76-.06.87.74.89.49,0,1,0,1.47,0,.82,0,1.13.33,1.15,1.13s0,1.74,0,2.62a1,1,0,0,1-1,1.05c-1,0-2,0-2.94,0a.94.94,0,0,1-1-1,13.47,13.47,0,0,1,.13-4A5.92,5.92,0,0,1,43.06,12.62Z"/></svg>