<svg width="192" height="195" viewBox="0 0 192 195" fill="none" xmlns="http://www.w3.org/2000/svg">
<path d="M34.3173 178.818C34.3173 178.818 37.6053 169.287 31.1326 161.27C25.1129 153.814 20.6837 152.044 11.1695 148.462C5.24352 146.233 14.4518 150.32 13.6967 158.846C13.0295 166.389 11.8845 177.132 22.905 182.58C33.9254 188.029 34.3173 178.818 34.3173 178.818Z" fill="#9DC89E"/>
<path d="M28.2729 176.928C30.3183 169.977 25.9789 163.021 21.9645 158.41C19.176 155.244 16.0418 152.4 12.6205 149.932L12.9302 149.483C16.3889 151.975 19.5571 154.847 22.3755 158.045C24.9734 161.036 26.8755 164.005 28.0263 166.865C29.4753 170.463 29.7333 173.902 28.7909 177.085L28.2729 176.928Z" fill="#599E85"/>
<path d="M15.528 157.101V156.554C15.6695 156.554 19.0798 156.638 24.0309 160.1L23.7174 160.547C18.925 157.192 15.5605 157.101 15.528 157.101Z" fill="#599E85"/>
<path d="M14.859 165.938L14.9125 165.393C15.0043 165.393 24.2145 166.349 29.2153 171.726L28.8157 172.109C23.9526 166.861 14.9508 165.946 14.859 165.938Z" fill="#599E85"/>
<path d="M25.5621 163.239C24.224 160.819 25.9444 156.848 26.0094 156.68L26.5103 156.898C26.4931 156.938 24.8299 160.792 26.04 162.973L25.5621 163.239Z" fill="#599E85"/>
<path d="M28.8004 172.91C29.1197 169.702 31.7099 164.59 32.1878 164.189L32.5395 164.607C32.1572 164.978 29.6492 169.857 29.3414 172.967L28.8004 172.91Z" fill="#599E85"/>
<path d="M15.855 194.257L15.0903 193.586C15.5204 193.089 25.7801 181.43 36.4393 180.357L36.5425 181.376C26.2828 182.407 15.9601 194.138 15.855 194.257Z" fill="#9DC89E"/>
<path d="M34.7914 190.242C32.1152 190.242 26.6785 190.051 21.391 188.684L21.6471 187.694C28.8731 189.554 36.3819 189.195 36.4564 189.187L36.51 190.21C36.4909 190.212 35.8562 190.242 34.7914 190.242Z" fill="#9DC89E"/>
<path d="M52.99 194.006H0V141.054H52.99V194.006Z" fill="#58ABDD"/>
<path d="M65.5819 143.056H16.5928V192.011H65.5819V143.056Z" fill="#99DFFF"/>
<path d="M37.871 150.156H44.2061L59.3366 184.911H50.6903L47.6948 177.543H34.1854L31.2874 184.907H22.8381L37.871 150.156ZM40.8168 160.268L36.5922 171.067H45.0912L40.8168 160.268Z" fill="#6CB4EA"/>
<path d="M67.5794 194.006H14.597V141.054H67.5794V194.006ZM18.5904 190.015H63.5842V145.046H18.5904V190.015Z" fill="#6CB4EA"/>
<path d="M24.7073 88.7995C25.0958 84.7195 22.0275 81.0898 17.854 80.6923C13.6805 80.2949 9.98215 83.2802 9.5936 87.3601C9.20506 91.4401 12.2734 95.0698 16.4469 95.4673C20.6205 95.8647 24.3188 92.8794 24.7073 88.7995Z" fill="#BF6351"/>
<path d="M25.5003 87.5604C25.8882 83.4804 22.8183 79.8511 18.6437 79.4543C14.469 79.0575 10.7704 82.0433 10.3826 86.1234C9.99476 90.2034 13.0646 93.8327 17.2392 94.2295C21.4139 94.6263 25.1125 91.6405 25.5003 87.5604Z" fill="#E07F65"/>
<path d="M24.7964 86.2994C25.0748 83.2061 22.7346 80.4675 19.5695 80.1826C16.4043 79.8977 13.6128 82.1745 13.3344 85.2678C13.056 88.3612 15.3961 91.0998 18.5613 91.3847C21.7264 91.6696 24.518 89.3928 24.7964 86.2994Z" fill="#FB9D7E"/>
<path d="M55.0118 86.4448C55.4362 82.2739 52.4748 78.5564 48.3974 78.1415C44.32 77.7266 40.6706 80.7715 40.2462 84.9423C39.8218 89.1132 42.7832 92.8307 46.8606 93.2456C50.9379 93.6605 54.5874 90.6157 55.0118 86.4448Z" fill="#BF6351"/>
<path d="M56.209 87.2536C56.6334 83.0827 53.6721 79.3653 49.5947 78.9504C45.5173 78.5355 41.8679 81.5803 41.4435 85.7512C41.0191 89.9221 43.9804 93.6396 48.0578 94.0544C52.1352 94.4693 55.7846 91.4245 56.209 87.2536Z" fill="#E07F65"/>
<path d="M53.9274 87.689C54.2472 84.5401 52.0117 81.7339 48.9342 81.4213C45.8566 81.1087 43.1025 83.408 42.7826 86.557C42.4628 89.7059 44.6983 92.5121 47.7759 92.8247C50.8534 93.1373 53.6075 90.838 53.9274 87.689Z" fill="#FB9D7E"/>
<path d="M52.5596 95.3727C52.75 87.1083 44.597 80.2173 34.3494 79.9811C24.1017 79.745 15.64 86.2532 15.4496 94.5176C15.2592 102.782 23.4121 109.673 33.6598 109.909C43.9074 110.145 52.3691 103.637 52.5596 95.3727Z" fill="#E07F65"/>
<path d="M35.1692 103.862C39.5326 103.766 43.0176 101.292 42.9531 98.336C42.8886 95.3795 39.299 93.06 34.9355 93.1552C30.5721 93.2505 27.0871 95.7243 27.1516 98.6808C27.2161 101.637 30.8057 103.957 35.1692 103.862Z" fill="#FB9D7E"/>
<path d="M30.735 93.1186C30.7064 93.4174 30.5899 93.7011 30.4001 93.9337C30.2103 94.1663 29.9559 94.3374 29.6689 94.4253C29.3819 94.5133 29.0752 94.5142 28.7877 94.4279C28.5002 94.3416 28.2447 94.172 28.0536 93.9405C27.8625 93.709 27.7443 93.4261 27.714 93.1274C27.6837 92.8288 27.7426 92.5278 27.8833 92.2627C28.024 91.9975 28.2402 91.78 28.5045 91.6377C28.7688 91.4954 29.0694 91.4347 29.3682 91.4632C29.5666 91.4821 29.7594 91.5399 29.9355 91.6334C30.1116 91.7268 30.2676 91.854 30.3945 92.0078C30.5214 92.1615 30.6168 92.3387 30.6753 92.5293C30.7337 92.7199 30.754 92.9202 30.735 93.1186Z" fill="#70617F"/>
<g opacity="0.8">
<path d="M30.4222 92.8203C30.6138 92.3764 30.4092 91.8612 29.9652 91.6696C29.5212 91.478 29.006 91.6826 28.8145 92.1266C28.6229 92.5706 28.8275 93.0858 29.2715 93.2773C29.7154 93.4689 30.2307 93.2643 30.4222 92.8203Z" fill="white"/>
</g>
<path d="M41.3272 92.4535C41.2986 92.7523 41.1821 93.0359 40.9923 93.2685C40.8026 93.5011 40.5481 93.6722 40.2611 93.7602C39.9741 93.8481 39.6674 93.849 39.3799 93.7627C39.0924 93.6764 38.837 93.5068 38.6458 93.2753C38.4547 93.0438 38.3365 92.7609 38.3062 92.4622C38.2759 92.1636 38.3348 91.8627 38.4755 91.5975C38.6162 91.3323 38.8324 91.1149 39.0967 90.9725C39.361 90.8302 39.6616 90.7695 39.9604 90.798C40.159 90.8167 40.3519 90.8744 40.5281 90.9677C40.7043 91.0611 40.8604 91.1883 40.9873 91.3421C41.1143 91.4959 41.2097 91.6732 41.268 91.8639C41.3263 92.0546 41.3465 92.255 41.3272 92.4535Z" fill="#70617F"/>
<g opacity="0.8">
<path d="M40.2281 92.681C40.7116 92.681 41.1036 92.289 41.1036 91.8054C41.1036 91.3219 40.7116 90.9299 40.2281 90.9299C39.7445 90.9299 39.3525 91.3219 39.3525 91.8054C39.3525 92.289 39.7445 92.681 40.2281 92.681Z" fill="white"/>
</g>
<path d="M31.209 102.973C30.8469 102.981 30.4851 102.947 30.1309 102.872L30.2647 102.489C30.4998 102.554 32.3999 102.791 33.847 101.916C34.7054 101.396 35.2597 100.578 35.4949 99.4767L35.6574 98.712L35.8925 99.4652C35.9345 99.601 36.9725 102.761 41.1513 101.507L41.2699 101.903C37.8022 102.942 36.2844 101.102 35.7453 100.13C35.4492 101.078 34.7986 101.874 33.9292 102.354C33.0881 102.783 32.1531 102.996 31.209 102.973Z" fill="#70617F"/>
<path d="M33.761 97.4561L35.6402 99.5913L37.288 97.1655C37.3164 97.1226 37.3342 97.0734 37.3396 97.0222C37.3451 96.971 37.3382 96.9192 37.3195 96.8712C37.3007 96.8232 37.2707 96.7804 37.2319 96.7465C37.1932 96.7125 37.1468 96.6884 37.0968 96.6761L37.0127 96.6551C35.9269 96.3741 34.8086 96.4028 33.8241 96.9399C33.7797 96.9645 33.7418 96.9993 33.7135 97.0413C33.6851 97.0834 33.6671 97.1316 33.6609 97.1819C33.6548 97.2323 33.6606 97.2834 33.678 97.331C33.6954 97.3787 33.7239 97.4215 33.761 97.4561Z" fill="#70617F"/>
<path d="M45.7086 106.144C45.7904 106.054 45.8949 105.987 46.0113 105.951C46.1277 105.916 46.2516 105.912 46.37 105.94C48.3834 106.457 50.1782 107.605 51.4913 109.216C53.833 112.084 61.3189 119.491 61.3705 120.43C61.4221 121.369 57.7824 128.757 51.6366 128.342C50.7496 128.273 44.6094 119.675 44.4661 113.03C44.3667 108.32 45.2097 106.693 45.7086 106.144Z" fill="#E07F65"/>
<path d="M30.1576 141.557L17.8239 147.237L17.476 132.553L30.1576 141.557Z" fill="#BF6351"/>
<path d="M43.7684 140.273L53.3303 145.141L51.6595 131.986L43.7684 140.273Z" fill="#BF6351"/>
<path d="M20.0587 105.38C20.0587 105.38 11.3742 119.686 15.79 130.41C20.2059 141.135 30.9969 142.979 38.7428 142.362C46.4887 141.744 49.0655 138.179 52.3994 131.185C55.7333 124.19 46.1389 106.106 46.1389 106.106L20.0587 105.38Z" fill="#E07F65"/>
<path d="M50.7432 127.752C51.2642 120.64 46.2143 114.474 39.4639 113.98C32.7135 113.485 26.8189 118.849 26.2979 125.961C25.777 133.072 30.8269 139.238 37.5772 139.733C44.3276 140.227 50.2222 134.863 50.7432 127.752Z" fill="#FB9D7E"/>
<path d="M69.211 138.848C72.36 132.34 71.1469 125.242 66.5015 122.994C61.8562 120.747 55.5377 124.2 52.3888 130.708C49.2398 137.216 50.4529 144.314 55.0983 146.562C59.7436 148.81 66.0621 145.356 69.211 138.848Z" fill="#E07F65"/>
<path d="M66.994 137.828C69.3124 133.039 68.4201 127.815 65.001 126.16C61.5819 124.504 56.9307 127.045 54.6124 131.835C52.294 136.624 53.1863 141.848 56.6054 143.503C60.0245 145.159 64.6756 142.618 66.994 137.828Z" fill="#FB9D7E"/>
<path d="M20.4543 105.688C20.3644 105.586 20.249 105.51 20.12 105.468C19.991 105.425 19.853 105.418 19.7203 105.447C17.4629 105.989 15.438 107.239 13.9415 109.014C11.2747 112.176 2.77952 120.308 2.70306 121.355C2.6266 122.403 6.55879 130.722 13.4311 130.37C14.4213 130.311 21.4369 120.812 21.716 113.401C21.9072 108.152 20.9953 106.309 20.4543 105.688Z" fill="#E07F65"/>
<path d="M13.0398 128.851C13.7644 127.948 12.3806 125.634 9.94905 123.681C7.5175 121.728 4.95896 120.876 4.23438 121.778C3.50981 122.681 4.89357 124.995 7.32512 126.948C9.75667 128.901 12.3152 129.753 13.0398 128.851Z" fill="#FB9D7E"/>
<path d="M36.1181 107.909C36.1181 107.909 39.0008 103.772 42.2066 101.601C45.4124 99.4289 46.9187 100.239 46.8212 101.249C46.7238 102.258 49.1152 111.558 48.2492 112.357C46.4351 114.036 36.2729 109.857 36.2729 109.857L36.1181 107.909Z" fill="#F48FB1"/>
<path d="M34.109 108.079C34.109 108.079 30.5304 104.529 26.9844 102.96C23.4383 101.39 22.106 102.468 22.3812 103.443C22.6565 104.418 21.9817 113.997 22.9738 114.626C25.0613 115.953 34.3059 110.014 34.3059 110.014L34.109 108.079Z" fill="#F48FB1"/>
<path d="M33.589 109.53L32.7441 111.273C31.9321 112.953 31.2947 114.712 30.842 116.523L32.3082 115.492L32.5606 117.36C33.5926 115.719 34.376 113.934 34.8851 112.063L35.3859 110.228L33.589 109.53Z" fill="#F48FB1"/>
<path d="M34.8679 109.62L35.3917 111.124C35.8963 112.573 36.5477 113.966 37.3358 115.282L37.5901 113.829L38.8231 114.77C38.4717 113.216 37.8919 111.722 37.1026 110.339L36.3265 108.981L34.8679 109.62Z" fill="#F48FB1"/>
<path d="M36.0123 106.85L33.8462 106.975C33.2212 107.011 32.7437 107.547 32.7797 108.172L32.8499 109.39C32.886 110.015 33.4219 110.492 34.0469 110.456L36.213 110.331C36.838 110.295 37.3155 109.759 37.2794 109.134L37.2092 107.917C37.1732 107.292 36.6373 106.814 36.0123 106.85Z" fill="#E06594"/>
<path d="M18.9199 146.925C22.5132 145.186 23.4717 139.738 21.0608 134.755C18.65 129.772 13.7826 127.142 10.1893 128.881C6.59599 130.62 5.63746 136.068 8.04835 141.051C10.4592 146.034 15.3266 148.664 18.9199 146.925Z" fill="#E07F65"/>
<path d="M17.8032 144.508C20.4478 143.228 21.1527 139.217 19.3776 135.55C17.6025 131.883 14.0196 129.948 11.3749 131.228C8.73031 132.508 8.02546 136.519 9.80058 140.186C11.5757 143.853 15.1586 145.788 17.8032 144.508Z" fill="#FB9D7E"/>
<path d="M75.5682 93.09C75.5682 93.09 75.5338 93.2812 75.4688 93.5832C75.4286 93.7744 75.379 94.0038 75.3235 94.2752C74.9412 96.1314 74.1001 99.7138 73.2418 101.602C72.0566 104.223 69.581 107.093 69.581 107.093C69.581 107.093 69.2866 105.808 69.581 104.866C69.8754 103.923 71.3646 102.38 70.3227 102.247C69.2809 102.113 65.0275 105.99 63.8232 106.389C62.6763 106.76 62.2117 106.106 62.2117 106.106C62.2117 106.106 60.9271 106.894 60.2007 106.401C59.415 105.869 60.2848 104.871 60.2848 104.871C60.2848 104.871 59.4647 104.045 59.5641 103.459C59.6635 102.872 60.3441 102.212 60.3441 102.212C60.3441 102.212 60.0344 101.459 60.2351 100.874C60.4358 100.289 65.4787 96.2709 67.0137 95.2807C67.5962 94.8665 68.1119 94.3656 68.543 93.7954C68.8699 93.3806 69.1738 92.9543 69.4185 92.5777C69.5294 92.4171 69.6288 92.2623 69.711 92.1227C69.971 91.7022 70.1316 91.4193 70.1316 91.4193L75.5682 93.09Z" fill="#F6A49D"/>
<path d="M112.462 32.5529C112.049 38.9301 106.393 39.6527 104.745 42.4302C103.097 45.2078 104.85 47.9873 105.875 53.747C106.9 59.5067 103.923 63.3185 101.04 65.4786C98.1577 67.6387 98.2571 76.4933 98.2571 76.4933L66.1152 63.8767C66.769 61.0092 67.9599 56.9815 69.7014 56.018C72.393 54.5231 73.4921 48.8992 73.5533 48.5627C71.0835 54.6264 68.2505 49.205 64.3489 54.7927C62.6819 57.1745 62.2117 60.3249 62.0893 62.3053L59.977 61.4795C58.3598 57.9526 60.3918 48.9259 66.5644 48.7233C72.737 48.5206 72.5287 39.666 71.7086 34.109C70.8885 28.5519 78.0858 27.5215 81.173 24.0271C84.2603 20.5327 84.526 14.7481 84.526 14.7481L111.839 14.9201C110.147 22.2359 112.875 26.1738 112.462 32.5529Z" fill="#2E2F4D"/>
<path d="M82.4786 38.4617C82.4786 38.4617 81.1271 38.735 79.8234 41.5203C78.7548 43.8142 77.9691 48.1727 76.8986 52.8944C74.5244 63.3834 74.0847 73.5398 77.7455 74.3351C81.4062 75.1303 85.8603 63.7562 87.0971 57.467C88.3339 51.1777 82.4786 38.4617 82.4786 38.4617Z" fill="#F8CD9E"/>
<path d="M83.6715 71.7257C83.6715 71.9475 83.66 72.1807 83.6428 72.4082C83.6131 72.8251 83.5557 73.2396 83.4708 73.6488C83.3673 74.1221 83.2397 74.5898 83.0884 75.05C82.9661 75.4438 82.817 75.8797 82.6449 76.3519C82.1728 77.69 81.5477 79.2977 80.8671 80.9818C78.5178 86.7931 75.4668 93.5832 75.4668 93.5832L69.7052 92.1093C69.7052 92.1093 70.1755 86.8256 71.007 80.9818C71.6665 76.3939 72.5478 71.4447 73.5992 68.4703C73.6374 68.3651 73.6718 68.2638 73.71 68.1701C73.9303 67.5169 74.2376 66.8964 74.6238 66.3254C77.5925 62.3664 79.7259 64.15 79.7259 64.15L82.4958 65.6277C82.7046 66.1493 82.8839 66.6822 83.033 67.2239C83.3893 68.4697 83.5991 69.7527 83.6581 71.0471C83.6715 71.2784 83.6772 71.504 83.6715 71.7257Z" fill="#F6A49D"/>
<path d="M73.6011 68.4665L76.5583 69.6402H76.5698L83.639 72.4292L83.6447 72.4063L83.7632 71.7506L84.4916 67.763L85.1205 64.3297L77.1815 62.6628L75.3349 62.0645L74.9774 63.3911L73.6011 68.4665Z" fill="#F8CD9E"/>
<path d="M84.5279 14.7328C84.5412 15.0176 84.5718 15.3063 84.6139 15.5854C84.6884 15.9505 84.7573 16.3022 84.8051 16.654C84.8066 16.6566 84.8074 16.6596 84.8074 16.6626C84.8074 16.6656 84.8066 16.6686 84.8051 16.6712C85.3666 19.2224 86.6462 21.5598 88.4929 23.4075C90.3396 25.2552 92.6762 26.5361 95.2272 27.0991C96.0434 27.2853 96.8756 27.3928 97.7123 27.4202C101.347 27.5472 104.884 26.2254 107.544 23.7455C110.205 21.2655 111.772 17.8305 111.9 14.1956C111.9 13.9739 111.912 13.7579 111.9 13.5419C111.9 13.5419 111.9 13.5419 111.9 13.5285C111.901 13.2259 111.886 12.9235 111.856 12.6224C111.832 12.212 111.783 11.8035 111.709 11.3989C111.137 8.05336 109.344 5.03895 106.678 2.93901C104.011 0.839073 100.66 -0.197095 97.2738 0.0310173C93.8873 0.25913 90.7059 1.7353 88.345 4.17389C85.9842 6.61247 84.6118 9.8401 84.4935 13.2322C84.4771 13.7326 84.4886 14.2336 84.5279 14.7328Z" fill="#2E2F4D"/>
<path d="M102.929 51.5678C109.264 53.7432 107.647 35.839 107.739 35.3401C107.498 35.2311 107.272 35.1202 107.045 35.017C106.961 34.9788 106.877 34.9386 106.792 34.8947C105.925 34.6538 104.674 34.2141 103.896 33.5336C103.525 33.2359 103.279 32.8106 103.204 32.3407C103.164 32.0425 103.229 30.8248 103.321 29.4064C103.476 27.0226 103.715 24.0806 103.715 24.0806L93.3041 19.3895C93.3041 19.3895 93.3309 20.1809 93.3423 21.3795C93.3844 24.0271 93.436 30.9548 93.4551 33.6445C93.4594 34.0496 93.331 34.445 93.0893 34.7702C92.8477 35.0954 92.5061 35.3324 92.117 35.4452C91.4365 35.6287 96.6705 49.4 102.929 51.5678Z" fill="#F6A49D"/>
<path d="M103.713 24.0692C103.713 24.0692 103.476 27.0111 103.331 29.3988C102.605 29.6503 101.835 29.7499 101.069 29.6912C95.4623 29.0394 93.3137 19.3781 93.3137 19.3781L103.713 24.0692Z" fill="#D47C74"/>
<path d="M96.7279 19.5233C96.3953 20.5384 94.3575 20.7773 92.1763 20.0585C89.9952 19.3398 88.6131 17.9921 88.831 16.9216C89.1196 15.4993 91.2014 15.6676 93.3826 16.3863C95.5637 17.1051 97.0605 18.5101 96.7279 19.5233Z" fill="#D47C74"/>
<path d="M92.1591 13.1137C92.2069 13.9471 92.2738 14.8513 92.3254 15.7536C92.7077 22.8859 96.7068 28.4582 101.639 28.1791C105.345 27.9746 108.184 24.9561 109.192 20.4313C109.22 20.3033 109.249 20.1694 109.27 20.0356C109.482 18.9478 109.591 17.8425 109.597 16.7343C109.597 16.5699 109.597 16.4074 109.597 16.2372C109.597 16.0021 109.585 15.7689 109.57 15.5338C109.476 13.8324 109.272 11.5079 108.997 9.8945C108.97 9.7262 108.907 9.56571 108.812 9.42412C108.718 9.28254 108.593 9.16324 108.448 9.07451C108.302 8.98578 108.139 8.92974 107.97 8.91025C107.801 8.89075 107.629 8.90828 107.467 8.96163C106.959 9.12603 106.349 9.32101 105.626 9.53512C102.983 10.3265 98.4005 9.797 95.1909 9.86582C94.7762 9.87244 94.3671 9.9626 93.9881 10.1309C93.609 10.2992 93.2678 10.5422 92.9848 10.8454C92.7017 11.1486 92.4828 11.5057 92.3409 11.8954C92.199 12.2852 92.1372 12.6995 92.1591 13.1137Z" fill="#F6A49D"/>
<path d="M100.278 22.7368C100.278 22.7368 103 21.8211 103.508 22.0333L104.017 22.2474C104.161 22.0803 104.342 21.9493 104.546 21.8651C104.784 21.8096 106.447 21.9396 106.447 21.9396C106.573 22.7316 106.408 23.5425 105.982 24.2221C105.954 24.2642 105.923 24.3039 105.888 24.3406C105.434 24.8761 104.812 25.2428 104.124 25.3816C103.435 25.5203 102.72 25.423 102.094 25.1053C101.814 24.935 101.557 24.7294 101.329 24.4936C100.853 23.993 100.494 23.393 100.278 22.7368Z" fill="#E96362"/>
<path d="M106.447 21.9377C106.447 21.9377 104.015 23.467 100.278 22.7406C100.278 22.7406 101.425 25.0345 104.015 24.6885C106.213 24.3979 106.447 21.9377 106.447 21.9377Z" fill="white"/>
<path d="M103.742 19.6992L104.197 19.5959C104.502 19.5252 104.701 19.2882 104.623 19.0874L104.049 17.5582C103.982 17.3823 103.728 17.2963 103.461 17.367C103.195 17.4282 103.002 17.6174 103.017 17.8047L103.145 19.4315C103.155 19.6437 103.436 19.7699 103.742 19.6992Z" fill="#D47C74"/>
<path d="M97.9112 15.9467C97.9704 16.4189 98.2935 16.7649 98.6433 16.7209C98.9931 16.677 99.2168 16.2583 99.1594 15.7861C99.1021 15.314 98.7771 14.9661 98.4273 15.0119C98.0775 15.0578 97.8519 15.4745 97.9112 15.9467Z" fill="#4F1D30"/>
<path d="M100.276 13.4673C100.238 13.3986 100.192 13.3345 100.14 13.2762C100.009 13.1122 99.8544 12.9685 99.6813 12.8499C99.5669 12.7677 99.4453 12.6961 99.318 12.6358C99.1753 12.5681 99.0269 12.5131 98.8746 12.4714C98.7093 12.4253 98.5394 12.3977 98.368 12.3892C98.1908 12.3749 98.0125 12.3806 97.8365 12.4064C97.6605 12.4322 97.4871 12.4738 97.3185 12.5306C97.1597 12.5938 97.0046 12.6659 96.854 12.7467C96.7144 12.8365 96.5883 12.9378 96.4716 13.0258C96.3654 13.1175 96.2669 13.2179 96.1773 13.3259C96.0967 13.412 96.0262 13.5069 95.967 13.6088C95.9116 13.6967 95.8695 13.7808 95.8332 13.8458C95.7962 13.916 95.763 13.9881 95.7338 14.0618C95.8079 14.0372 95.8807 14.0084 95.9517 13.9758C96.0186 13.9471 96.0989 13.9147 96.183 13.8707C96.2786 13.8229 96.3769 13.7808 96.4774 13.7445C96.5844 13.7044 96.6896 13.6432 96.8081 13.605C96.9266 13.5667 97.049 13.519 97.1732 13.4712C97.2975 13.4234 97.4294 13.4004 97.5555 13.366C97.6817 13.3316 97.8174 13.2991 97.9531 13.2934C98.0861 13.2728 98.2201 13.2606 98.3546 13.2571C98.4884 13.2437 98.6222 13.2571 98.7541 13.2571C98.886 13.2571 99.0141 13.2704 99.1364 13.2857C99.2588 13.301 99.3811 13.3106 99.492 13.3316C99.7157 13.3622 99.9107 13.4023 100.05 13.431L100.276 13.4673Z" fill="#2E2F4D"/>
<path d="M106.244 14.7519C106.303 15.2241 106.626 15.5701 106.974 15.5261C107.322 15.4821 107.548 15.0635 107.49 14.5913C107.433 14.1191 107.108 13.7712 106.76 13.8171C106.412 13.863 106.185 14.2797 106.244 14.7519Z" fill="#4F1D30"/>
<path d="M108.609 12.2726C108.57 12.2044 108.524 12.1403 108.473 12.0814C108.341 11.9179 108.185 11.7743 108.012 11.6551C107.898 11.5729 107.776 11.5013 107.649 11.441C107.506 11.373 107.358 11.318 107.205 11.2766C107.041 11.2304 106.872 11.2028 106.701 11.1944C106.523 11.1801 106.344 11.1859 106.167 11.2116C105.991 11.2376 105.818 11.2792 105.649 11.3359C105.49 11.3986 105.335 11.4707 105.185 11.5519C105.047 11.6417 104.921 11.743 104.802 11.831C104.697 11.9227 104.599 12.0231 104.51 12.1311C104.428 12.2163 104.358 12.3114 104.3 12.414C104.242 12.5019 104.2 12.5861 104.166 12.651C104.128 12.7207 104.095 12.7929 104.067 12.8671C104.067 12.8671 104.151 12.8384 104.284 12.781C104.349 12.7524 104.43 12.7199 104.514 12.6759C104.61 12.6284 104.708 12.5863 104.808 12.5497C104.915 12.5096 105.02 12.4484 105.141 12.4102C105.261 12.3719 105.382 12.3242 105.504 12.2764C105.626 12.2286 105.76 12.2056 105.886 12.1693C106.013 12.133 106.148 12.1043 106.284 12.0986C106.417 12.078 106.551 12.0658 106.685 12.0623C106.819 12.0489 106.951 12.0623 107.083 12.0623C107.215 12.0623 107.343 12.0757 107.465 12.0909C107.588 12.1062 107.708 12.1158 107.819 12.1368C108.045 12.1674 108.238 12.2076 108.377 12.2362L108.609 12.2726Z" fill="#2E2F4D"/>
<g opacity="0.5">
<path d="M96.2633 20.2172C96.347 20.5751 96.5341 20.9005 96.8013 21.1528C97.0685 21.4052 97.4041 21.5734 97.7662 21.6364C98.1283 21.6995 98.5009 21.6546 98.8377 21.5074C99.1745 21.3603 99.4605 21.1173 99.6602 20.8087C99.86 20.5002 99.9645 20.1397 99.9608 19.7722C99.9572 19.4047 99.8455 19.0463 99.6397 18.7418C99.4339 18.4373 99.1431 18.2 98.8034 18.0596C98.4638 17.9191 98.0903 17.8817 97.7296 17.9519C97.4838 18.003 97.2506 18.1023 97.0435 18.2441C96.8364 18.386 96.6596 18.5675 96.5232 18.7782C96.3868 18.989 96.2936 19.2247 96.249 19.4717C96.2044 19.7187 96.2093 19.9721 96.2633 20.2172Z" fill="#D47C74"/>
</g>
<g opacity="0.5">
<path d="M107.318 18.4815C107.4 18.9338 107.642 19.3413 108.001 19.6285C108.36 19.9157 108.811 20.063 109.27 20.0433C109.482 18.9555 109.591 17.8502 109.597 16.7419C109.597 16.5775 109.597 16.415 109.597 16.2449C109.334 16.1702 109.057 16.1604 108.79 16.2162C108.295 16.3217 107.861 16.6196 107.585 17.0443C107.309 17.469 107.213 17.9859 107.318 18.4815Z" fill="#D47C74"/>
</g>
<path d="M92.0749 15.9791C92.0749 15.9791 93.3194 16.5106 94.3689 15.6905C95.4183 14.8704 96.0893 11.2345 98.2973 10.6629C100.505 10.0914 101.027 10.0608 105.089 10.5253C109.151 10.9898 109.572 10.2194 109.572 10.2194C109.572 10.2194 108.385 7.55464 107.779 7.70757C107.379 7.80889 94.8468 8.88512 94.8468 8.88512C94.4211 8.87977 94.0005 8.97819 93.6214 9.17187C92.7784 9.60198 91.0178 10.2691 90.9777 11.2154L92.0749 15.9791Z" fill="#2E2F4D"/>
<path d="M148.116 49.1285C148.072 49.1839 148.016 49.2546 147.955 49.3196L147.94 49.3349C147.929 49.3349 147.929 49.3349 147.923 49.3502C147.701 49.6007 147.407 49.8931 147.131 50.22C146.782 50.6406 146.283 51.2121 145.663 51.8927C142.987 54.8557 138.112 59.9024 134.364 63.4809C132.353 65.2014 130.54 66.6102 129.361 67.2085C129.006 67.348 128.637 67.4499 128.26 67.5125C127.911 67.5818 127.556 67.6151 127.201 67.6119C126.217 67.6232 125.252 67.3482 124.421 66.8205C124.391 66.8083 124.363 66.7915 124.337 66.7708C124.244 66.7096 124.146 66.6485 124.066 66.5796L124.016 66.5414C123.896 66.4477 123.779 66.3502 123.668 66.2432C123.668 66.2432 123.668 66.2432 123.657 66.2317C123.632 66.2061 123.606 66.1818 123.578 66.1591C123.555 66.135 123.533 66.1095 123.513 66.0826C123.463 66.0405 123.416 65.9938 123.374 65.9431C123.318 65.8819 123.263 65.8169 123.213 65.7519C122.986 65.4763 122.789 65.177 122.626 64.8592C122.538 64.7115 122.464 64.556 122.405 64.3947C122.393 64.3675 122.384 64.3394 122.378 64.3106C122.107 63.527 122.116 62.6735 122.405 61.8962C122.892 60.4013 124.125 58.9599 125.435 58.0729L128.248 56.1556L129.235 55.4808L130.12 54.8767L130.237 54.7945L130.592 54.5556L142.253 46.63L143.304 45.915L143.409 45.8424L148.116 49.1285Z" fill="#F6A49D"/>
<path d="M124.328 66.7899C125.329 67.2583 126.813 67.3213 128.031 67.2793C128.375 67.1933 128.712 67.0776 129.036 66.9333C129.715 66.646 130.33 66.2262 130.844 65.6984C131.548 65.0014 132.199 64.2531 132.792 63.4599C131.944 60.8773 130.558 57.8684 128.82 54.7238C128.77 54.6359 128.724 54.5479 128.673 54.4581C128.673 54.4581 128.673 54.4447 128.659 54.4409C128.541 54.221 128.424 54.0012 128.296 53.7871C128.208 53.6418 128.128 53.4984 128.038 53.3551C127.172 51.8258 126.222 50.2793 125.224 48.7366C122.68 44.8407 120.285 41.222 118.417 39.0849C118.149 38.7924 117.901 38.5343 117.673 38.2992C116.54 37.1828 115.639 36.6494 115.01 36.4143C114.305 36.1295 113.929 36.2098 113.929 36.2098C113.929 36.2098 113.768 38.4368 113.781 41.5145C113.797 46.4713 114.253 53.617 116.502 57.293C117.712 59.2242 119.053 61.0701 120.516 62.8176C120.761 63.1254 121.023 63.435 121.281 63.7428C121.697 64.2379 122.129 64.7196 122.569 65.1918C122.667 65.297 122.76 65.404 122.86 65.5092C122.959 65.6143 123.076 65.7366 123.177 65.8475C123.25 65.9182 123.316 65.9909 123.383 66.0578L124.328 66.7899Z" fill="#F8CD9E"/>
<path d="M90.4768 185.794C92.6407 188.809 89.7007 192.834 86.1775 191.666C84.2258 191.018 82.8207 190.541 82.7366 190.481C82.6238 190.393 82.5244 190.29 82.4117 190.225V190.212C82.2989 190.124 78.8083 186.132 79.332 184.901C79.5079 184.502 79.6628 183.047 79.9055 181.739C79.9189 181.671 80.2878 179.925 79.6972 176.851C79.613 176.412 79.5901 175.951 79.5404 175.483C79.4907 175.051 79.441 174.605 79.3913 174.145C79.3645 173.9 79.334 173.651 79.3091 173.407C79.29 173.233 79.2785 173.051 79.2594 172.883C79.2403 172.715 79.2212 172.52 79.2021 172.346C79.1275 171.677 79.0587 170.996 78.9841 170.302C78.9153 169.666 78.8465 169.01 78.793 168.354C78.7394 167.699 78.6725 167.041 78.6018 166.374L78.5846 166.204C78.5406 165.686 78.4909 165.168 78.4412 164.644C78.403 164.261 78.3648 163.893 78.3342 163.512C78.2902 163.006 78.2462 162.493 78.2099 161.983C78.2015 161.944 78.197 161.904 78.1965 161.864C78.1717 161.583 78.1468 161.291 78.1277 161.014C78.1086 160.736 78.0723 160.413 78.0532 160.121C78.0341 159.828 78.0035 159.526 77.9786 159.234C77.9538 158.941 77.9289 158.639 77.9098 158.341C77.841 157.452 77.7722 156.579 77.7186 155.711C77.7014 155.422 77.6881 155.137 77.6689 154.849C77.6192 154.105 77.5753 153.386 77.5313 152.675C77.5198 152.362 77.5007 152.05 77.4892 151.75C77.4892 151.668 77.4759 151.587 77.4759 151.513C77.4625 151.243 77.451 150.976 77.4376 150.712C77.4376 150.651 77.4376 150.588 77.4376 150.521C77.4262 150.291 77.4128 150.066 77.407 149.84C77.3879 149.347 77.3688 148.873 77.3573 148.405C77.1509 141.102 78.0685 137.384 78.5043 135.641C78.5108 135.605 78.5217 135.569 78.5368 135.536C78.6979 134.889 78.9194 134.26 79.1982 133.655C79.2785 133.486 79.355 133.318 79.441 133.161C79.5538 132.97 79.6723 132.779 79.7985 132.599C80.0118 132.276 80.2613 131.979 80.5421 131.712L84.1952 130.137C87.9878 128.509 92.4285 130.082 94.2522 133.737C94.3153 133.85 94.3726 133.974 94.4281 134.098C94.5091 134.277 94.5731 134.463 94.6192 134.654C94.6252 134.692 94.6291 134.729 94.6307 134.767C94.6307 134.781 94.6307 134.817 94.6192 134.874C94.6059 134.993 94.581 135.216 94.537 135.53C94.5358 135.565 94.5319 135.6 94.5256 135.635C93.868 140.664 88.7391 165.647 88.5346 167.546C88.4963 167.882 88.4581 168.226 88.4275 168.563C88.2708 170.044 88.1274 171.487 87.984 172.868C87.9401 173.298 87.9037 173.716 87.8598 174.129C87.8158 174.542 87.7852 174.894 87.7527 175.259C87.6973 175.796 87.6533 176.316 87.6036 176.828C87.6036 176.846 87.6036 176.872 87.6036 176.89C87.5673 177.272 87.5138 177.639 87.5042 177.996C87.3991 181.82 90.4252 184.605 90.9547 185.373C90.97 185.41 90.4672 185.781 90.4768 185.794Z" fill="#F6A49D"/>
<path d="M129.153 188.587C130.858 190.69 129 193.748 126.358 193.188C124.379 192.769 122.693 192.334 122.192 191.98C121.325 191.368 115.913 189.902 115.483 189.39C113.495 187.023 115.81 181.091 115.022 176.851C114.909 176.238 114.796 175.607 114.672 174.957L114.529 174.208C114.523 174.189 114.519 174.171 114.515 174.152L114.397 173.527C114.359 173.315 114.322 173.103 114.284 172.89C113.328 167.786 112.267 162.227 111.499 158.448C111.417 158.054 111.336 157.666 111.254 157.278L111.18 156.923C111.136 156.349 111.105 155.776 111.086 155.223C111.048 154.063 111.055 152.929 111.086 151.832C111.17 148.898 111.464 145.973 111.967 143.081C112.367 140.762 113.422 145.204 113.854 143.585C113.948 143.255 114.045 142.886 114.141 142.519C114.273 142.012 114.403 141.481 114.523 140.968C114.942 139.282 115.288 137.814 115.288 137.814L124.903 136.371C124.89 136.608 124.876 136.883 124.865 137.17C124.62 142.068 123.884 153.507 123.336 162.594C123.339 162.628 123.339 162.661 123.336 162.694C123.03 166.423 122.848 169.853 122.749 172.896C122.749 173.246 122.73 173.596 122.718 173.94C122.718 174.014 122.718 174.089 122.718 174.158V174.213C122.718 174.307 122.718 174.404 122.718 174.477C122.693 175.301 122.682 176.1 122.682 176.851V177.069C122.682 183.332 125.823 186.576 127.184 188.294C127.283 188.426 129.034 188.422 129.134 188.549L129.153 188.587Z" fill="#F6A49D"/>
<path d="M122.766 172.889C122.747 173.271 122.728 173.63 122.716 173.932C122.716 174.007 122.716 174.081 122.716 174.154V174.209C122.716 174.303 122.716 174.389 122.716 174.469C122.691 175.297 122.68 176.094 122.68 176.848H115.033C114.921 176.236 114.804 175.599 114.68 174.951L114.538 174.204C114.538 174.187 114.538 174.167 114.527 174.148L114.408 173.519L114.286 172.883L122.766 172.889Z" fill="#D47C74"/>
<path d="M74.8857 121.804C74.8857 121.804 99.6736 136.067 126.117 121.388C126.117 121.388 99.2531 103.801 98.8382 103.801C98.4234 103.801 74.8857 121.804 74.8857 121.804Z" fill="#FB9D7E"/>
<path d="M125.142 130.59V130.9C125.142 130.9 125.106 131.684 125.05 132.98C125.012 133.691 124.976 134.561 124.939 135.549C124.926 135.815 124.915 136.086 124.901 136.363C124.89 136.604 124.876 136.876 124.865 137.166C124.624 142.062 123.888 153.503 123.336 162.591C123.338 162.624 123.338 162.657 123.336 162.69C123.081 166.913 122.873 170.61 122.762 172.889C122.743 173.271 122.724 173.63 122.712 173.932C122.712 174.007 122.712 174.081 122.712 174.154H114.519L114.401 173.525L114.278 172.889L111.499 158.448C111.419 158.052 111.338 157.664 111.258 157.28C111.233 157.158 111.21 157.039 111.185 156.923C110.358 153.027 109.549 149.137 108.901 146.002C108.178 142.53 108.406 138.98 109.27 135.555C109.35 135.22 109.444 134.893 109.536 134.566C109.549 134.522 109.549 134.498 109.536 134.498C109.443 133.988 109.331 133.478 109.201 132.968C107.899 127.69 104.879 122.54 102.237 118.564C101.983 118.182 101.719 117.8 101.44 117.446C100.786 116.601 100.174 115.725 99.6067 114.81C99.2244 114.206 98.8682 113.593 98.5381 112.971C98.1188 112.206 97.7282 111.428 97.3663 110.637L96.9343 109.681L96.0932 103.373C95.9383 102.237 95.8332 101.102 95.7911 99.9642C95.7169 98.2262 95.7603 96.4852 95.9211 94.7531L96.8769 84.6215L97.3912 79.1944L97.4944 78.0781L97.5881 77.0668L97.6683 76.2697L97.6989 75.9294L97.718 75.7631L97.7353 75.4859L102.941 75.2947L105.808 75.1839L111.767 74.9506L112.126 74.9373L114.397 74.8513L114.427 74.9812C114.427 74.9812 114.762 76.8508 114.923 77.019L115.898 81.0678L116.169 82.1976C116.169 82.1976 117.108 86.7243 118.379 92.9352V92.96C119.797 99.9183 121.629 108.987 123.014 116.205V116.236C124.161 122.2 125.003 126.887 125.058 128.065V128.078C125.112 128.904 125.136 129.753 125.142 130.59Z" fill="#7986CB"/>
<path d="M104.667 98.5343C103.791 101.838 102.692 105.579 101.501 109.419C101.205 110.363 100.914 111.308 100.605 112.26C100.53 112.487 100.457 112.722 100.389 112.952C100.098 113.865 99.8151 114.779 99.5685 115.685C98.2151 120.359 97.2211 124.897 96.3016 128.713C95.7396 131.007 95.2081 133.029 94.6289 134.672L94.6098 134.727C94.518 134.993 92.8435 135.3 92.7574 135.549C92.6102 135.975 92.4669 136.369 92.3445 136.728C91.8188 138.21 91.5111 139.068 91.5111 139.068L84.201 136.728L80.5021 135.549C80.5021 135.549 79.0014 136.172 79.032 135.807C79.032 135.721 79.0511 135.635 79.0511 135.549C79.1066 134.998 79.1563 134.369 79.206 133.666C79.7126 126.046 80.1503 110.075 80.4581 100.53C80.4528 100.369 80.4572 100.208 80.4715 100.048C82.84 81.3145 90.7292 75.4764 91.7921 74.2663C93.9962 71.7583 110.35 73.8247 110.356 74.4307C110.394 76.9674 105.55 95.2062 104.667 98.5343Z" fill="#7986CB"/>
<path d="M87.9975 172.889C87.9554 173.321 87.9172 173.741 87.8751 174.154C87.8369 174.536 87.8006 174.919 87.7643 175.284C87.7069 175.821 87.6649 176.341 87.6152 176.853H79.7144C79.6647 176.408 79.6093 175.951 79.5596 175.483C79.5099 175.051 79.4602 174.605 79.4105 174.145C79.3876 173.898 79.3551 173.651 79.3302 173.405C79.313 173.231 79.2939 173.053 79.2748 172.879L87.9975 172.889Z" fill="#D47C74"/>
<path d="M119.258 56.9318C118.876 58.3617 117.92 58.9753 117.857 59.1416L117.629 60.2332L115.462 70.6457C115.462 70.6457 115.462 70.6687 115.462 70.6744L114.98 72.9014V73.0123H91.0848V72.9014C90.02 69.3229 88.0051 61.923 86.3363 55.7236L82.4767 38.4484L91.0943 35.4356L91.8991 35.1527L93.0461 34.7532C93.0789 34.7975 93.1161 34.8385 93.157 34.8755C94.7788 36.4759 96.9374 37.4164 99.2138 37.5146C101.49 37.6128 103.722 36.8617 105.475 35.407C105.986 34.9922 106.318 34.7264 106.336 34.7264L106.45 34.7494L107.863 35.0094L114.328 36.2385L118.222 45.6207C118.411 46.0929 120.373 52.6058 119.258 56.9318Z" fill="#F48FB1"/>
<path d="M118.174 58.2928C118.15 58.3403 118.13 58.3895 118.113 58.44C118.098 58.5137 118.077 58.586 118.05 58.656C117.989 58.8166 117.92 58.9714 117.859 59.1377L117.631 60.2369C115.769 60.2851 113.916 59.9534 112.185 59.262L110.006 58.3903L112.722 58.7248C114.55 58.9425 116.403 58.7956 118.174 58.2928Z" fill="#E06594"/>
<path d="M102.503 58.4324H102.342H101.901C101.71 58.4324 101.482 58.4458 101.22 58.463C100.958 58.4802 100.683 58.4802 100.379 58.4936C100.075 58.5069 99.7405 58.5242 99.3926 58.5222C99.2168 58.5222 99.0409 58.5337 98.8612 58.5394C98.6815 58.5452 98.4942 58.5394 98.3087 58.5394C97.936 58.5394 97.5441 58.5394 97.1618 58.5394C96.9706 58.5394 96.7794 58.5241 96.5749 58.528L95.9861 58.4993C95.795 58.4993 95.5923 58.4802 95.3954 58.4668C95.1985 58.4534 95.0131 58.4496 94.8105 58.4267C94.6078 58.4037 94.4281 58.3961 94.237 58.3827C94.0458 58.3693 93.8547 58.3387 93.6635 58.3253C93.4723 58.312 93.2965 58.2795 93.1149 58.2642C92.9333 58.2489 92.7574 58.2298 92.5854 58.2049C92.2432 58.1571 91.9105 58.1265 91.6085 58.0787C91.3065 58.031 91.0178 58.0042 90.7655 57.9641C90.5132 57.9239 90.2838 57.9067 90.0983 57.878C89.716 57.8283 89.5 57.8149 89.5 57.8149C89.5 57.8149 89.6548 57.9736 89.9473 58.224C90.1228 58.3741 90.3073 58.5133 90.4998 58.6408C90.6087 58.7191 90.7273 58.7956 90.8534 58.8778L91.2625 59.111C91.5725 59.2818 91.8916 59.4356 92.2183 59.5717C92.5846 59.7192 92.9585 59.8469 93.3385 59.954C93.7463 60.0733 94.1613 60.1659 94.5811 60.2312C94.7952 60.2695 95.0112 60.2981 95.231 60.3173C95.4509 60.3364 95.6688 60.365 95.8886 60.3689L96.55 60.3842C96.7699 60.3842 96.9878 60.3631 97.2038 60.3536C97.4198 60.344 97.6339 60.3134 97.8461 60.2886C98.0541 60.2677 98.2609 60.2358 98.4655 60.193C98.6681 60.1509 98.8669 60.1165 99.06 60.0687C99.2531 60.0209 99.4423 59.9674 99.6201 59.9101C99.9814 59.8088 100.312 59.6654 100.616 59.5488C100.92 59.4322 101.19 59.2754 101.428 59.1512C101.667 59.0269 101.849 58.895 102.002 58.788C102.155 58.6809 102.287 58.5853 102.367 58.5261L102.503 58.4324Z" fill="#E06594"/>
<path d="M115.142 72.4904H90.884V77.3841H115.142V72.4904Z" fill="#7986CB"/>
<path d="M91.9028 74.9137L91.8997 75.8007L114.43 75.8793L114.433 74.9923L91.9028 74.9137Z" fill="#5F6FB2"/>
<path d="M101.922 105.875L101.062 105.663L103.459 95.9498L106.875 93.7763L109.186 78.7739L110.061 78.9096L107.689 94.3077L104.233 96.5079L101.922 105.875Z" fill="#5F6FB2"/>
<path d="M106.262 78.5261L103.898 93.1494L104.776 93.2913L107.14 78.668L106.262 78.5261Z" fill="#5F6FB2"/>
<path d="M85.8317 87.0034L85.7858 86.1183C86.0974 86.1011 93.461 85.606 96.5903 76.7877L97.4257 77.084C94.0899 86.4777 85.912 86.9977 85.8317 87.0034Z" fill="#5F6FB2"/>
<path d="M115.234 85.1185C115.112 85.0841 112.21 84.2411 111.984 78.7739L112.869 78.7375C113.061 83.5051 115.355 84.2354 115.462 84.264L115.234 85.1185Z" fill="#5F6FB2"/>
<path d="M114.315 36.2385L107.286 34.9807L112.065 50.0824C112.846 52.5525 113.188 55.1406 113.074 57.7289L112.275 76.2544C112.275 76.2544 112 116.561 114.028 121.489C116.612 127.767 126.121 121.395 126.121 121.395C126.121 121.395 122.298 78.8848 115.506 72.9301L117.767 59.1664C117.767 59.1664 122.521 58.0348 120.583 50.4189C118.644 42.803 114.315 36.2385 114.315 36.2385Z" fill="#F8CD9E"/>
<path d="M96.4219 62.0816L95.2749 82.9412C95.2616 83.2069 91.3332 107.97 89.5745 119.048C89.0392 122.412 86.0074 124.846 82.6181 124.536C80.0871 124.303 77.2082 123.592 74.8914 121.81C74.8914 121.81 77.1069 80.6836 89.8479 71.4046L86.34 55.7293L82.4805 38.454L91.0942 35.3954V35.4337L96.2403 59.6978C96.4064 60.4808 96.4675 61.2825 96.4219 62.0816Z" fill="#F8CD9E"/>
<path d="M117.501 59.392L117.222 58.6809C117.413 58.6006 122.103 56.6488 119.858 49.9161C119.094 47.6222 116.006 39.4462 115.974 39.364L116.691 39.0925C116.721 39.1747 119.813 47.3603 120.585 49.6733C123.064 57.1114 117.564 59.371 117.501 59.392Z" fill="#FB9D7E"/>
<path d="M84.127 44.3935L83.384 44.5822L86.9353 58.5652L87.6783 58.3765L84.127 44.3935Z" fill="#FB9D7E"/>
<path d="M94.6404 134.788C94.6404 134.802 94.6404 134.838 94.6289 134.893C94.6174 135.018 94.5926 135.239 94.5486 135.555C94.5472 135.59 94.5434 135.625 94.5372 135.66C93.8815 140.686 88.7507 165.672 88.5481 167.567C88.5098 167.907 88.4735 168.245 88.4429 168.586C88.2823 170.067 88.1409 171.512 87.9975 172.889C87.9555 173.321 87.9172 173.741 87.8752 174.154H79.4029C79.3799 173.908 79.3474 173.661 79.3226 173.414C79.3054 173.24 79.2863 173.063 79.2672 172.889C79.248 172.715 79.2308 172.531 79.2117 172.351C79.1391 171.684 79.0703 171.013 78.9957 170.308C78.9288 169.673 78.86 169.018 78.8045 168.364C78.7491 167.71 78.6803 167.049 78.6134 166.381C78.6134 166.326 78.6 166.271 78.5943 166.215C78.5522 165.695 78.5025 165.177 78.4528 164.653C78.4146 164.271 78.3782 163.9 78.3477 163.524C78.3037 163.017 78.2616 162.505 78.2177 161.994C78.2107 161.953 78.2069 161.912 78.2062 161.87C78.1814 161.593 78.1565 161.308 78.1374 161.025C78.1183 160.742 78.082 160.425 78.0628 160.129C78.0437 159.832 78.015 159.536 77.9902 159.24C77.9653 158.943 77.9405 158.647 77.9214 158.351C77.8545 157.462 77.7857 156.586 77.7302 155.72C77.7111 155.432 77.6939 155.147 77.6748 154.856C77.6251 154.117 77.5811 153.394 77.5391 152.683C77.5257 152.369 77.5085 152.06 77.4951 151.758C77.4951 151.677 77.4836 151.597 77.4836 151.522C77.4702 151.251 77.4588 150.985 77.4454 150.72C77.4454 150.658 77.4454 150.597 77.4454 150.528C77.4339 150.301 77.4205 150.072 77.4148 149.85C77.3957 149.357 77.3785 148.881 77.3651 148.412C77.1548 141.108 78.0762 137.392 78.5121 135.65C78.5186 135.614 78.5288 135.579 78.5427 135.545C78.7046 134.898 78.926 134.268 79.2041 133.662C79.2844 133.496 79.3646 133.328 79.4507 133.167L94.2619 133.741C94.325 133.857 94.3804 133.981 94.4358 134.104C94.5173 134.283 94.5813 134.469 94.627 134.66C94.6343 134.702 94.6388 134.745 94.6404 134.788Z" fill="#7986CB"/>
<path d="M160.069 46.8346C160.069 46.8346 160.28 47.9815 159.859 48.4021C159.438 48.8226 158.521 48.989 158.521 48.989C158.521 48.989 158.349 49.7861 157.844 50.1627C157.339 50.5393 150.922 50.9885 149.093 50.9273H149.005C148.222 50.9651 147.449 51.1185 146.711 51.3823C146.09 51.5869 145.514 51.8201 145.088 52.0074C144.633 52.1986 144.344 52.3458 144.344 52.3458L140.812 47.8802C140.812 47.8802 140.938 47.7541 141.165 47.5323C141.565 47.15 142.263 46.4962 143.077 45.7545C144.484 44.4737 146.262 42.9578 147.546 42.1817C150.007 40.6925 153.663 39.7272 153.663 39.7272C153.663 39.7272 153.182 40.9525 152.406 41.5604C151.629 42.1683 149.538 42.5908 150.303 43.3057C151.067 44.0207 156.789 43.212 158.012 43.5714C159.159 43.9098 159.177 44.7184 159.177 44.7184C159.177 44.7184 160.683 44.7911 161.004 45.6092C161.341 46.5019 160.069 46.8346 160.069 46.8346Z" fill="#F6A49D"/>
<path d="M79.397 193.916H103.028V191.276H79.397V193.916Z" fill="#FFEFE7"/>
<path d="M103.036 191.276H79.3972C79.3972 191.276 79.076 190.714 79.0148 189.479C78.9919 188.929 79.0148 188.086 79.076 187.163C79.1735 185.509 79.3551 183.596 79.4583 182.59C79.5042 182.16 79.531 181.896 79.531 181.896H79.7011L87.057 181.806L87.1564 181.827L87.8962 182.005C88.4544 182.141 89.2515 182.334 90.1787 182.567C90.1862 182.565 90.1941 182.565 90.2016 182.567C93.4361 183.376 98.2113 184.637 99.7406 185.385C102.132 186.551 103.036 191.276 103.036 191.276Z" fill="#F48FB1"/>
<path d="M86.495 187.463C86.8886 186.135 86.1311 184.739 84.8031 184.345C83.475 183.952 82.0793 184.709 81.6857 186.037C81.2921 187.365 82.0496 188.761 83.3776 189.155C84.7056 189.548 86.1013 188.791 86.495 187.463Z" fill="#FFEFE7"/>
<path d="M91.8036 183.039C89.6893 183.039 87.0704 182.25 86.9595 182.215L86.2197 181.99L86.8773 181.583C87.0245 181.491 90.475 179.363 92.6733 179.363C93.8356 179.363 94.5219 179.967 94.6098 181.066C94.6366 181.29 94.6153 181.517 94.5474 181.732C94.4795 181.947 94.3665 182.145 94.216 182.313C93.7649 182.8 92.9754 183.039 91.8036 183.039ZM87.965 181.762C88.8998 181.997 90.4807 182.336 91.8036 182.336C92.7422 182.336 93.3978 182.162 93.7018 181.835C93.7856 181.738 93.8476 181.623 93.8835 181.5C93.9195 181.377 93.9286 181.247 93.9102 181.12C93.8528 180.388 93.4705 180.061 92.6733 180.061C91.2358 180.063 89.0814 181.147 87.965 181.762Z" fill="#FFEFE7"/>
<path d="M90.0678 187.409C87.9899 187.409 86.8181 183.36 86.5065 182.12C86.4913 182.06 86.49 181.997 86.5026 181.937C86.5151 181.876 86.5413 181.819 86.5791 181.77C86.6179 181.722 86.6671 181.682 86.723 181.655C86.7788 181.628 86.84 181.614 86.9022 181.613H86.9786L87.0704 181.648C88.204 182.148 91.9029 183.919 91.9928 185.662C92.0234 186.249 91.6812 186.75 90.9796 187.151C90.7037 187.316 90.3891 187.405 90.0678 187.409ZM87.3495 182.55C87.8656 184.32 88.8788 186.708 90.0678 186.708C90.2659 186.703 90.4592 186.645 90.6279 186.541C91.3123 186.159 91.2931 185.811 91.2874 185.698C91.2415 184.783 89.3586 183.508 87.3495 182.55Z" fill="#FFEFE7"/>
<path d="M85.9998 184.559C85.9193 183.827 85.9989 183.086 86.233 182.387C85.6917 182.616 85.2302 183 84.9064 183.49L84.308 183.123C84.3463 183.06 85.2638 181.594 86.8123 181.573L87.4584 181.56L87.1181 182.108C86.7419 182.841 86.5954 183.669 86.6976 184.486L85.9998 184.559Z" fill="#FFEFE7"/>
<path d="M114.5 193.867H138.131V191.227H114.5V193.867Z" fill="#FFEFE7"/>
<path d="M138.13 191.227H114.506C114.506 191.227 114.185 190.665 114.124 189.43C114.101 188.879 114.124 188.038 114.183 187.113C114.282 185.459 114.462 183.546 114.565 182.542C114.609 182.112 114.636 181.846 114.636 181.846H114.806L122.164 181.757L122.261 181.779C122.389 181.81 122.644 181.869 123.001 181.957C123.559 182.093 124.356 182.284 125.295 182.519C125.303 182.517 125.31 182.517 125.318 182.519C128.552 183.326 133.328 184.588 134.857 185.335C137.235 186.501 138.13 191.227 138.13 191.227Z" fill="#F48FB1"/>
<path d="M119.193 189.204C120.578 189.204 121.701 188.081 121.701 186.696C121.701 185.311 120.578 184.188 119.193 184.188C117.808 184.188 116.685 185.311 116.685 186.696C116.685 188.081 117.808 189.204 119.193 189.204Z" fill="#FFEFE7"/>
<path d="M126.906 182.99C124.792 182.99 122.173 182.2 122.062 182.166L121.323 181.94L121.98 181.533C122.125 181.443 125.578 179.314 127.774 179.314C128.937 179.314 129.625 179.918 129.711 181.017C129.739 181.241 129.718 181.468 129.65 181.683C129.582 181.898 129.468 182.096 129.317 182.263C128.866 182.753 128.078 182.99 126.906 182.99ZM123.068 181.713C124.001 181.948 125.582 182.286 126.906 182.286C127.843 182.286 128.499 182.114 128.803 181.785C128.887 181.688 128.949 181.574 128.985 181.451C129.021 181.327 129.03 181.197 129.011 181.07C128.954 180.338 128.573 180.013 127.774 180.013C126.339 180.015 124.181 181.097 123.068 181.713Z" fill="#FFEFE7"/>
<path d="M125.171 187.359C123.089 187.359 121.921 183.311 121.609 182.07C121.594 182.01 121.593 181.948 121.605 181.888C121.618 181.827 121.644 181.771 121.682 181.722C121.72 181.673 121.769 181.633 121.824 181.606C121.88 181.578 121.941 181.564 122.003 181.563H122.078L122.169 181.6C123.301 182.101 127.002 183.871 127.09 185.614C127.121 186.199 126.78 186.7 126.079 187.101C125.804 187.266 125.491 187.355 125.171 187.359ZM122.452 182.5C122.967 184.27 123.982 186.658 125.171 186.658C125.369 186.653 125.562 186.595 125.731 186.492C126.413 186.109 126.396 185.761 126.39 185.649C126.343 184.735 124.46 183.469 122.452 182.5Z" fill="#FFEFE7"/>
<path d="M121.103 184.511C121.022 183.778 121.101 183.037 121.334 182.338C120.794 182.568 120.332 182.951 120.007 183.441L119.411 183.074C119.447 183.012 120.357 181.544 121.915 181.523L122.561 181.51L122.219 182.059C121.845 182.792 121.699 183.62 121.801 184.437L121.103 184.511Z" fill="#FFEFE7"/>
<path d="M146.699 51.3881C146.078 51.5927 145.503 51.8259 145.076 52.0132C144.621 52.2044 144.333 52.3516 144.333 52.3516L140.8 47.886C140.8 47.886 140.926 47.7599 141.154 47.5381C141.553 47.1558 142.251 46.502 143.065 45.7603L143.182 45.9381L146.583 51.2046L146.699 51.3881Z" fill="#D47C74"/>
<path d="M146.061 52.5236C146.061 52.5236 139.561 59.0422 134.358 63.4848C132.347 65.2053 130.535 66.6141 129.355 67.2124C129.149 67.3233 128.932 67.4123 128.707 67.4782C128.707 67.4782 125.949 68.3193 124.326 66.7919V66.7747L128.248 56.1557L128.44 55.6586L129.088 55.2037L142.008 46.242L142.264 46.6243L145.665 51.8966L146.061 52.5236Z" fill="#F8CD9E"/>
<path d="M84.396 67.0844L83.6601 71.0663L83.2395 73.3488C83.1076 74.3648 82.9097 75.3712 82.6469 76.3615C82.1747 77.6996 81.5496 79.3073 80.8691 80.9914C78.8198 86.0591 76.2372 91.8704 75.6102 93.2755C75.5152 93.4863 75.4434 93.7068 75.3961 93.9331C75.3751 94.042 75.3503 94.1586 75.3235 94.2848L69.4147 92.5643C69.5255 92.4038 69.625 92.2489 69.7072 92.1094C69.7072 92.1094 70.1774 86.8257 71.009 80.9819C71.6685 76.394 72.5497 71.4448 73.6011 68.4703C73.6394 68.3652 73.6738 68.2639 73.712 68.1702L83.0349 67.224L84.396 67.0844Z" fill="#D47C74"/>
<path d="M73.9165 66.9677L73.5743 67.8796C72.941 69.561 72.4299 71.2859 72.045 73.0409L68.1663 90.8496L77.0286 93.4111C77.0286 93.4111 83.1209 77.3019 83.6753 72.11L84.8222 65.8552L73.9165 66.9677Z" fill="#F8CD9E"/>
<path d="M151.796 105.667C151.796 105.667 151.868 107.909 149.968 109.023C149.968 109.023 150.144 107.2 147.908 105.139C147.908 105.139 152.937 104.565 152.828 104.653C152.719 104.741 151.796 105.667 151.796 105.667Z" fill="#2E2F4D"/>
<path d="M142.813 96.3111C142.81 97.6488 143.072 98.9739 143.581 100.211C144.091 101.447 144.839 102.572 145.783 103.519C146.728 104.467 147.849 105.219 149.084 105.733C150.319 106.247 151.643 106.513 152.981 106.515C158.23 106.527 163.174 101.979 163.185 96.3531C163.194 94.517 162.702 92.7131 161.761 91.1363C161.738 91.1019 161.717 91.0637 161.694 91.0293C160.539 89.1344 158.796 87.6687 156.731 86.8553C154.666 86.0419 152.392 85.9253 150.254 86.5232C148.117 87.1211 146.233 88.4008 144.89 90.1676C143.547 91.9345 142.818 94.0917 142.813 96.3111Z" fill="#2E2F4D"/>
<path d="M150.659 103.938L150.642 111.736L158.059 111.751L158.076 103.954L150.659 103.938Z" fill="#F6A49D"/>
<path d="M150.571 104.363C150.923 105.742 151.755 106.952 152.918 107.773C154.256 108.689 156.208 108.836 158.053 108.76V105.556L150.571 104.363Z" fill="#D47C74"/>
<path d="M151.687 102.054C151.431 103.095 149.737 103.392 147.904 102.726C146.07 102.061 144.891 100.723 145.052 99.6277C145.264 98.173 147.003 98.2896 148.835 98.9548C150.666 99.6201 151.945 101.014 151.687 102.054Z" fill="#D47C74"/>
<path d="M147.676 96.5156C147.699 96.7775 147.726 97.0394 147.758 97.307C147.802 97.6072 147.846 97.9073 147.902 98.2017C147.909 98.2138 147.913 98.2277 147.913 98.2418C147.934 98.3699 147.963 98.498 147.995 98.6241C147.995 98.6458 148.001 98.6671 148.013 98.6853C148.095 99.1135 148.204 99.5379 148.326 99.9432C148.426 100.272 148.531 100.595 148.642 100.899C148.774 101.266 148.925 101.618 149.074 101.958C149.251 102.34 149.433 102.723 149.647 103.071C150.047 103.797 150.521 104.481 151.062 105.11C151.094 105.15 151.129 105.183 151.167 105.223C152.727 106.968 154.74 107.613 156.799 107.517C156.85 107.517 156.9 107.517 156.955 107.496C158.999 107.182 160.624 106.54 162.216 104.072C162.297 103.932 162.368 103.785 162.428 103.634C162.495 103.466 162.573 103.273 162.646 103.05C162.76 102.727 162.857 102.398 162.937 102.065C162.948 102.01 162.965 101.948 162.977 101.893C163.021 101.702 163.061 101.497 163.09 101.308C163.107 101.203 163.122 101.098 163.134 100.996C163.22 100.088 163.178 99.1728 163.011 98.2762C163.011 98.2208 162.979 98.1195 162.952 97.9914C162.929 97.8977 162.906 97.7868 162.874 97.6645C162.858 97.5804 162.835 97.4848 162.812 97.3911C162.812 97.3567 162.803 97.33 162.797 97.3013C162.791 97.2726 162.774 97.2172 162.763 97.1789C162.593 96.4449 162.394 95.6095 162.38 95.5311C162.354 95.2979 162.31 95.036 162.266 94.7665C162.25 94.6499 162.222 94.5333 162.206 94.4109C162.189 94.3383 162.178 94.2599 162.161 94.1777C162.161 94.1759 162.162 94.174 162.162 94.172C162.162 94.17 162.161 94.168 162.161 94.1662C162.161 94.1548 162.161 94.1376 162.149 94.1318C162.017 93.4265 161.845 92.6695 161.664 92.0061C161.62 91.8436 161.576 91.683 161.53 91.5378C161.509 91.4613 161.486 91.3887 161.465 91.3217C161.415 91.1535 161.36 90.9987 161.31 90.8592C161.233 90.9078 161.145 90.9343 161.054 90.9356C160.693 90.9527 160.332 90.9413 159.974 90.9012C159.362 90.8381 158.599 90.7311 157.798 90.6011C154.95 90.1499 151.863 89.7217 149.901 91.4861C149.639 91.7233 149.405 91.9902 149.204 92.2814C148.596 93.1473 148.202 94.9997 147.921 95.9517C147.875 96.1532 147.792 96.3444 147.676 96.5156Z" fill="#F6A49D"/>
<path d="M145.893 95.0437L145.904 95.3438C145.904 95.3438 148.71 97.0031 148.921 94.8162C149.131 92.6293 151.582 91.7385 154.541 92.1056C158.664 92.6102 161.761 91.4537 161.761 91.4537C161.721 91.3156 161.698 91.173 161.694 91.0293C160.846 89.6271 159.668 88.4536 158.263 87.6113C155.325 87.4603 151.763 87.2864 151.696 87.2978L151.658 87.3093C149.955 87.7399 148.452 88.744 147.402 90.1526C146.352 91.5612 145.819 93.2884 145.893 95.0437Z" fill="#2E2F4D"/>
<path d="M147.919 98.67C147.919 98.67 152.562 96.2212 152.394 91.446C152.394 91.446 149.12 91.4766 149.011 91.5129C148.902 91.5492 146.019 96.053 146.019 96.053L147.919 98.67Z" fill="#2E2F4D"/>
<path d="M157.343 100.853L157.838 100.744C158.173 100.67 158.385 100.425 158.295 100.216L157.617 98.6413C157.538 98.4501 157.257 98.3698 156.965 98.4329C156.674 98.4979 156.468 98.6948 156.489 98.8898L156.68 100.572C156.697 100.796 157.009 100.926 157.343 100.853Z" fill="#D47C74"/>
<path d="M152.125 98.345C152.199 98.7522 152.507 99.0409 152.813 98.9854C153.119 98.93 153.304 98.5591 153.229 98.15C153.155 97.741 152.847 97.4561 152.541 97.5096C152.235 97.5632 152.05 97.9378 152.125 98.345Z" fill="#4F1D30"/>
<path d="M153.807 96.1448C153.698 96.0826 153.585 96.0289 153.468 95.9842C153.336 95.9351 153.2 95.8974 153.061 95.8714C152.912 95.8421 152.759 95.8293 152.606 95.8332C152.448 95.8327 152.289 95.8494 152.134 95.8829C151.979 95.9176 151.828 95.9656 151.681 96.0263C151.545 96.092 151.412 96.1647 151.284 96.2442C151.165 96.3321 151.06 96.4354 150.96 96.5118C150.873 96.5987 150.793 96.6927 150.722 96.7928C150.655 96.8719 150.599 96.9586 150.553 97.0509C150.444 97.2937 150.511 97.4753 150.764 97.265C150.845 97.2166 150.929 97.1738 151.016 97.1369C151.11 97.093 151.207 97.0337 151.303 96.9916C151.398 96.9496 151.511 96.9018 151.616 96.8521C151.721 96.8024 151.84 96.7737 151.953 96.7355C152.065 96.6973 152.182 96.6609 152.302 96.6456C152.419 96.6189 152.537 96.5998 152.656 96.5883C152.775 96.5673 152.893 96.5673 153.01 96.5577C153.126 96.5481 153.243 96.5577 153.354 96.5577C153.465 96.5577 153.574 96.5577 153.673 96.5749C154.065 96.6533 154.134 96.3283 153.807 96.1448Z" fill="#2E2F4D"/>
<path d="M159.416 96.766C159.463 97.1789 159.754 97.4829 160.062 97.4485C160.369 97.414 160.578 97.0508 160.53 96.6379C160.482 96.225 160.192 95.923 159.884 95.9574C159.576 95.9918 159.366 96.355 159.416 96.766Z" fill="#4F1D30"/>
<path d="M161.302 94.7072C161.199 94.6341 161.09 94.5702 160.975 94.516C160.847 94.4569 160.714 94.4095 160.578 94.3746C160.43 94.3358 160.279 94.3127 160.127 94.3057C159.968 94.2943 159.809 94.3001 159.653 94.323C159.495 94.3461 159.341 94.3832 159.19 94.4338C159.049 94.4902 158.911 94.554 158.777 94.625C158.653 94.7034 158.542 94.7894 158.437 94.8678C158.344 94.9494 158.257 95.0375 158.177 95.1316C158.103 95.2057 158.039 95.2885 157.986 95.3782C157.877 95.5808 157.957 95.7184 158.177 95.6057C158.251 95.5636 158.345 95.5349 158.439 95.4948C158.532 95.4546 158.63 95.4068 158.735 95.3705C158.84 95.3342 158.949 95.2941 159.058 95.2539C159.167 95.2138 159.287 95.1908 159.402 95.1583C159.517 95.1258 159.635 95.101 159.756 95.0952C159.875 95.0762 159.995 95.0647 160.115 95.0608C160.234 95.0494 160.352 95.0608 160.471 95.0608C160.589 95.0608 160.702 95.0723 160.813 95.0838C160.924 95.0953 161.031 95.1048 161.13 95.122C161.532 95.2023 161.57 94.9614 161.302 94.7072Z" fill="#2E2F4D"/>
<g opacity="0.5">
<path d="M150.475 102.178C150.513 102.619 150.68 103.038 150.956 103.384C151.232 103.73 151.605 103.986 152.026 104.12C152.448 104.254 152.9 104.26 153.325 104.138C153.75 104.015 154.129 103.77 154.415 103.432C154.7 103.094 154.88 102.679 154.93 102.24C154.979 101.8 154.898 101.356 154.696 100.962C154.493 100.569 154.179 100.244 153.792 100.03C153.405 99.8149 152.963 99.7196 152.522 99.7558C151.931 99.8083 151.384 100.092 151.001 100.546C150.617 100.999 150.428 101.586 150.475 102.178Z" fill="#D47C74"/>
</g>
<g opacity="0.5">
<path d="M159.75 100.203C159.777 100.519 159.87 100.825 160.022 101.103C160.173 101.381 160.381 101.625 160.631 101.818C161.067 102.154 161.612 102.317 162.161 102.277C162.426 102.257 162.685 102.187 162.925 102.073C162.937 102.017 162.954 101.956 162.965 101.901C163.009 101.709 163.049 101.505 163.078 101.316C163.095 101.211 163.111 101.105 163.122 101.004C163.208 100.096 163.167 99.1805 163 98.2839C163 98.2284 162.967 98.1271 162.941 97.999C162.889 97.9723 162.839 97.9493 162.789 97.9264C162.435 97.7883 162.051 97.7427 161.675 97.794C161.298 97.8453 160.94 97.9918 160.636 98.2196C160.331 98.4475 160.09 98.7492 159.934 99.0962C159.778 99.4432 159.714 99.8242 159.746 100.203H159.75Z" fill="#D47C74"/>
</g>
<path d="M159.811 102.306C159.811 102.306 157.775 103.627 155.279 103.338C155.279 103.338 156.024 105.164 158.251 104.676C159.932 104.328 159.811 102.306 159.811 102.306Z" fill="white"/>
<path d="M148.89 178.687L147.736 186.759L147.348 189.46L142.771 189.124L142.844 186.759L143.022 181.026L148.89 178.687Z" fill="#F6A49D"/>
<path d="M165.269 181.235L165.217 186.759L165.196 189.137L160.658 189.327L160.18 186.759L159.177 181.355L165.269 181.235Z" fill="#F6A49D"/>
<path d="M143.022 181.026L148.89 178.687L147.736 186.759H142.844L143.022 181.026Z" fill="#D47C74"/>
<path d="M165.269 181.235L165.217 186.759H160.18L159.177 181.355L165.269 181.235Z" fill="#D47C74"/>
<path d="M166.173 185.467H158.5L154.923 149.276L153.092 150.461L149.817 185.467H141.561L143.545 139.296H165.043L166.173 185.467Z" fill="#7986CB"/>
<path d="M147.531 188.057C145.893 188.428 144.815 188.342 143.163 188.042L142.746 187.965L142.461 192.637L154.48 192.62C154.308 190.67 150.083 188.057 147.531 188.057Z" fill="#F48FB1"/>
<path d="M142.5 193.9L154.535 193.883L154.533 192.585L142.498 192.602L142.5 193.9Z" fill="#FFEFE7"/>
<path d="M165.227 188.057C163.589 188.428 162.51 188.342 160.859 188.042L160.442 187.965L160.157 192.637L172.176 192.62C172.004 190.67 167.779 188.057 165.227 188.057Z" fill="#F48FB1"/>
<path d="M160.198 193.9L172.233 193.883L172.231 192.585L160.196 192.602L160.198 193.9Z" fill="#FFEFE7"/>
<path d="M146.147 121.361L143.807 129.504L143.668 129.996L143.656 130.026L143.582 130.112C143.327 130.103 143.06 130.099 143.008 130.177C142.435 131.099 141.544 132.351 141.096 132.961C141.093 132.967 141.088 132.974 141.083 132.98L141.051 133.012L140.737 133.377L139.017 135.356C137.503 134.696 136.046 132.836 135.474 131.399C135.352 131.112 135.269 130.811 135.228 130.502C135.21 130.254 135.273 130.006 135.408 129.797L136.197 128.076C136.198 128.072 136.198 128.067 136.197 128.063L143.134 112.868C143.189 112.758 143.276 112.669 143.384 112.612C143.492 112.554 143.615 112.531 143.736 112.547C143.857 112.562 143.971 112.615 144.061 112.697C144.151 112.779 144.213 112.888 144.239 113.007L146.147 121.361Z" fill="#F6A49D"/>
<path d="M141.582 131.473C141.551 131.961 141.405 132.434 141.156 132.854C141.062 133.025 140.95 133.185 140.821 133.331C140.814 133.341 140.806 133.351 140.798 133.36L140.766 133.396L139.531 134.803L131.483 143.979L130.776 144.799C130.776 144.799 126.683 143.079 127.031 142.932C127.119 142.829 127.193 142.715 127.253 142.593C127.751 141.716 131.871 135.279 134.45 131.022C134.705 130.607 134.94 130.216 135.155 129.85C135.709 128.925 136.208 128.055 136.618 127.298C137.862 124.983 139.676 127.325 141.089 129.537C141.456 130.113 141.628 130.792 141.582 131.473Z" fill="#F6A49D"/>
<path d="M190.129 97.0643C189.783 97.6722 187.293 99.5647 186.157 100.41L185.584 100.826L183.959 103.3L179.822 102.344L182.284 99.5188L182.699 99.0409C182.699 99.0409 182.051 96.9954 183.173 95.0265C184.295 93.0575 185.203 92.2546 185.759 91.0427L186.318 89.8307C186.318 89.8307 187.082 90.8439 186.788 91.6678C186.494 92.4917 186.008 93.61 186.008 93.61C186.008 93.61 190.848 88.8022 191.718 88.6665C192.588 88.5308 191.225 89.8364 190.6 90.8668C189.975 91.8971 188.898 92.9332 189.328 93.2544C189.759 93.5755 191.074 93.4857 190.753 94.2504C190.431 95.015 190.074 95.2654 190.424 95.7376C190.774 96.2098 190.588 96.2728 190.129 97.0643Z" fill="#F6A49D"/>
<path d="M185.696 100.293C185.691 100.297 185.688 100.303 185.687 100.31C185.519 100.677 182.171 107.396 180.279 109.641C179.89 110.094 179.387 110.435 178.822 110.629C178.822 110.629 176.547 112.256 173.267 114.771C173.147 114.863 173.026 114.963 172.902 115.049C172.424 115.414 171.946 115.775 171.459 116.129C169.119 117.849 166.831 119.378 165.485 119.86C164.481 120.223 163.598 119.874 162.883 119.176C161.314 117.66 160.561 114.479 161.138 113.586C161.181 113.513 161.242 113.452 161.317 113.41C161.391 113.368 161.475 113.347 161.56 113.349C162.56 113.363 167.136 110.847 170.776 108.748C173.376 107.247 174.844 106.815 174.844 106.815C174.999 106.538 175.172 106.272 175.362 106.018C175.574 105.738 175.806 105.473 176.056 105.225C178.434 102.872 182.98 98.626 182.98 98.626L185.696 100.293Z" fill="#F6A49D"/>
<path d="M165.414 111.975H142.918V145.933H165.414V111.975Z" fill="#6CB4EA"/>
<path d="M150.538 109.903L142.918 111.975L154.029 113.898L165.414 111.975L158.251 109.755L158.181 109.784C155.73 110.75 153.013 110.792 150.534 109.903H150.538Z" fill="#6CB4EA"/>
<path d="M146.931 89.2744C146.931 89.2744 146.239 89.1253 145.063 89.4866C144.279 89.7519 143.546 90.1488 142.895 90.6604C142.895 90.6604 145.396 89.5459 146.91 90.7196C148.424 91.8934 146.931 89.2744 146.931 89.2744Z" fill="#2E2F4D"/>
<path d="M146.482 89.4388C146.236 89.2019 145.938 89.0263 145.612 88.9265C145.189 88.7891 144.747 88.7245 144.302 88.7354C144.302 88.7354 145.734 89.0622 146.002 90.0524C146.269 91.0427 146.482 89.4388 146.482 89.4388Z" fill="#2E2F4D"/>
<path d="M152.258 92.3464C152.258 92.3464 154.732 95.707 161.637 93.7208C165.46 92.8166 165.506 89.5764 165.506 89.5764C165.506 89.5764 163.116 91.4231 157.376 90.3793C156.374 90.1882 156.181 88.9552 155.29 88.9743C152.956 89.024 152.258 92.3464 152.258 92.3464Z" fill="#2E2F4D"/>
<path d="M151.415 90.8343C151.415 90.8343 152.956 93.8604 159.192 92.0654C162.652 91.251 163.378 88.332 163.378 88.332C163.378 88.332 161.22 90.0008 156.038 89.0584C155.134 88.894 154.958 87.7719 154.153 87.7891C152.046 87.833 151.415 90.8343 151.415 90.8343Z" fill="#2E2F4D"/>
<path d="M172.902 115.049C172.424 115.414 171.946 115.775 171.459 116.129C169.119 117.849 166.831 119.379 165.485 119.86C164.481 120.223 163.598 119.874 162.883 119.176L161.138 113.586C161.181 113.513 161.242 113.452 161.317 113.41C161.391 113.368 161.475 113.347 161.56 113.349C162.56 113.363 167.137 110.847 170.776 108.748L172.902 115.049Z" fill="#D47C74"/>
<path d="M169.09 108.985L158.236 109.847L162.088 122.181L172.267 118.411L169.09 108.985Z" fill="#6CB4EA"/>
<path d="M143.012 130.177C142.438 131.099 141.548 132.351 141.1 132.961C141.097 132.968 141.092 132.974 141.087 132.98C141.068 133.008 141.049 133.033 141.03 133.058L140.953 133.161C140.886 133.251 140.84 133.308 140.825 133.326C140.818 133.336 140.81 133.345 140.802 133.354L140.77 133.391H140.741L135.471 131.412L134.454 131.03C134.708 130.614 134.944 130.224 135.159 129.858C135.228 129.743 135.3 129.627 135.364 129.514C135.427 129.401 135.499 129.29 135.555 129.177C135.78 128.795 135.991 128.43 136.186 128.08C136.186 128.076 136.186 128.071 136.186 128.067C136.337 127.805 136.476 127.547 136.608 127.302C137.862 124.985 143.06 130.099 143.012 130.177Z" fill="#D47C74"/>
<path d="M142.918 111.975C142.918 111.975 141.511 112.701 141.079 113.504C140.647 114.307 133.815 128.415 133.815 128.415L144.427 132.62L145.574 119.363C145.69 118.013 145.514 116.653 145.059 115.376C144.603 114.099 143.878 112.935 142.934 111.963L142.918 111.975Z" fill="#6CB4EA"/>
<path d="M132.951 141.223C132.951 141.223 132.909 141.341 132.831 141.54C132.783 141.66 132.724 141.81 132.657 141.985C132.188 143.174 131.234 145.466 130.453 146.627C129.371 148.236 127.394 149.877 127.394 149.877C127.394 149.877 127.342 148.988 127.644 148.395C127.946 147.802 129.107 146.948 128.43 146.736C127.753 146.524 124.49 148.634 123.641 148.764C122.841 148.882 122.602 148.395 122.602 148.395C122.602 148.395 121.657 148.777 121.231 148.366C120.766 147.925 121.456 147.355 121.456 147.355C121.456 147.355 121.003 146.715 121.137 146.334C121.271 145.954 121.795 145.593 121.795 145.593C121.727 145.289 121.754 144.972 121.871 144.685C122.062 144.302 125.886 142.209 127.008 141.722C127.442 141.512 127.841 141.236 128.191 140.905C128.455 140.666 128.705 140.416 128.91 140.192C129.002 140.099 129.084 140.001 129.155 139.923C129.376 139.672 129.514 139.502 129.514 139.502L132.951 141.223Z" fill="#F6A49D"/>
</svg>
