<svg width="29" height="30" viewBox="0 0 29 30" fill="none" xmlns="http://www.w3.org/2000/svg">
<circle cx="14.6025" cy="15.1827" r="12.7182" fill="#76316E"/>
<path d="M0.244823 15.0309C0.244823 14.715 0.244822 14.4032 0.276209 14.0789L0.0313863 14.0642C0.0104613 14.3823 0 14.7087 0 15.0309V15.0477H0.244823V15.0309Z" fill="#76316E"/>
<path d="M7.04961 2.90285L6.92197 2.6936C6.64366 2.86519 6.36745 3.04724 6.09961 3.23556L6.2419 3.44481C6.50346 3.24602 6.77549 3.07025 7.04961 2.90285Z" fill="#76316E"/>
<path d="M12.488 0.960993L12.4546 0.718262C12.1302 0.762204 11.8038 0.818703 11.4836 0.885663L11.5318 1.1263C11.8477 1.05934 12.17 1.00494 12.488 0.960993Z" fill="#76316E"/>
<path d="M10.5901 1.3628L10.5252 1.12634C10.2093 1.21632 9.89748 1.31676 9.58569 1.42557L9.6673 1.65784C9.97071 1.54275 10.2804 1.4444 10.5901 1.3628Z" fill="#76316E"/>
<path d="M5.46971 4.02453L5.31486 3.83411C5.06167 4.04336 4.81057 4.25261 4.57202 4.48278L4.73942 4.66274C4.98215 4.44303 5.2207 4.2275 5.46971 4.02453Z" fill="#76316E"/>
<path d="M4.0553 5.34904L3.87535 5.18164C3.65354 5.42228 3.43383 5.67129 3.22876 5.92657L3.41918 6.08142C3.62215 5.83032 3.83559 5.58549 4.0553 5.34904Z" fill="#76316E"/>
<path d="M0.535585 12.1581L0.294948 12.11C0.227988 12.4301 0.173581 12.7566 0.129639 13.083L0.37237 13.1144C0.416313 12.7963 0.470718 12.4741 0.535585 12.1581Z" fill="#76316E"/>
<path d="M1.05455 10.2914L0.822282 10.2098C0.713472 10.5195 0.613032 10.8376 0.525146 11.1515L0.761601 11.2163C0.849486 10.9066 0.94574 10.5949 1.05455 10.2914Z" fill="#76316E"/>
<path d="M1.82477 8.5107L1.61552 8.39771C1.46486 8.68856 1.32257 8.98989 1.19702 9.29121L1.42301 9.38746C1.5381 9.09242 1.6783 8.79738 1.82477 8.5107Z" fill="#76316E"/>
<path d="M2.83324 6.85345L2.62399 6.71326C2.43566 6.9811 2.25362 7.25731 2.08203 7.5377L2.29128 7.66534C2.47124 7.38913 2.64701 7.11711 2.83324 6.85345Z" fill="#76316E"/>
<path d="M16.3885 0.70992C16.0642 0.665978 15.7336 0.63459 15.4071 0.611572L15.3904 0.856395C15.7126 0.87732 16.037 0.910798 16.355 0.952649L16.3885 0.70992Z" fill="#76316E"/>
<path d="M24.8109 5.3155L24.9908 5.1481C24.7648 4.90955 24.5305 4.67519 24.2919 4.45129L24.1245 4.63125C24.3589 4.85096 24.5911 5.08114 24.8109 5.3155Z" fill="#76316E"/>
<path d="M27.2676 8.3539C27.1148 8.06513 26.9516 7.77637 26.7801 7.49597L26.5708 7.62361C26.7382 7.89983 26.8993 8.18231 27.0479 8.46062L27.2676 8.3539Z" fill="#76316E"/>
<path d="M14.4216 0.82724V0.580322C14.0931 0.580322 13.7625 0.592877 13.436 0.615894L13.4528 0.86072C13.7708 0.837703 14.0994 0.82724 14.4216 0.82724Z" fill="#76316E"/>
<path d="M28.6275 14.0245L28.8724 14.0077C28.8494 13.6813 28.8159 13.3507 28.7698 13.0264L28.5271 13.0619C28.5627 13.38 28.5962 13.7085 28.6275 14.0245Z" fill="#76316E"/>
<path d="M28.5919 12.0555C28.5249 11.7354 28.4454 11.4131 28.3555 11.0972L28.1211 11.1641C28.2069 11.4738 28.2864 11.7919 28.3513 12.1058L28.5919 12.0555Z" fill="#76316E"/>
<path d="M26.2378 6.67361C26.0474 6.40576 25.8466 6.14211 25.6394 5.88892L25.449 6.04376C25.6582 6.29277 25.8507 6.55224 26.037 6.81589L26.2378 6.67361Z" fill="#76316E"/>
<path d="M18.3199 1.10542C18.0039 1.01754 17.6817 0.940112 17.3615 0.875244L17.3113 1.11588C17.6272 1.17866 17.939 1.25608 18.255 1.34187L18.3199 1.10542Z" fill="#76316E"/>
<path d="M23.547 3.80474C23.2917 3.59549 23.028 3.3967 22.7602 3.20837L22.6179 3.41762C22.8816 3.60386 23.141 3.80055 23.3921 4.00352L23.547 3.80474Z" fill="#76316E"/>
<path d="M0.27827 16.0103L0.0334473 16.027C0.0564648 16.3534 0.089944 16.684 0.133887 17.0063L0.376618 16.9728C0.334768 16.6631 0.301288 16.3388 0.27827 16.0103Z" fill="#76316E"/>
<path d="M20.1801 1.76238C19.8788 1.63264 19.5691 1.51128 19.2615 1.40247L19.1799 1.63264C19.4833 1.73936 19.7868 1.85863 20.0839 1.98837L20.1801 1.76238Z" fill="#76316E"/>
<path d="M21.9315 2.66843C21.6511 2.49894 21.3623 2.33572 21.0694 2.18506L20.9585 2.39431C21.2431 2.54288 21.5277 2.70191 21.7955 2.86931L21.9315 2.66843Z" fill="#76316E"/>
<path d="M8.76769 2.00722L8.66934 1.78333C8.37012 1.91515 8.07089 2.05744 7.78003 2.20183L7.89303 2.41108C8.1797 2.27716 8.47265 2.13696 8.76769 2.00722Z" fill="#76316E"/>
<path d="M23.4131 26.0543L23.5679 26.2448C23.8232 26.0355 24.0722 25.8263 24.3108 25.5961L24.1434 25.4182C23.909 25.6358 23.6642 25.8451 23.4131 26.0543Z" fill="#76316E"/>
<path d="M24.8296 24.7256L25.0095 24.893C25.2334 24.6545 25.4511 24.4034 25.6582 24.1502L25.4678 23.9954C25.2648 24.2444 25.0493 24.4913 24.8296 24.7256Z" fill="#76316E"/>
<path d="M20.113 28.061L20.2114 28.2849C20.5106 28.1551 20.8098 28.0107 21.1007 27.8664L20.9877 27.6571C20.7031 27.791 20.4081 27.9375 20.113 28.061Z" fill="#76316E"/>
<path d="M21.8311 27.1676L21.9587 27.3768C22.2391 27.2073 22.5153 27.0253 22.7831 26.8349L22.6409 26.6256C22.3793 26.8202 22.1073 27.0002 21.8311 27.1676Z" fill="#76316E"/>
<path d="M26.0537 23.2212L26.263 23.3635C26.4534 23.0956 26.6354 22.8173 26.8049 22.539L26.5957 22.4114C26.4199 22.6855 26.2399 22.9596 26.0537 23.2212Z" fill="#76316E"/>
<path d="M27.6922 9.24316L27.4683 9.34151C27.5959 9.63656 27.7173 9.93787 27.8261 10.2413L28.0563 10.1576C27.9454 9.84999 27.824 9.54239 27.6922 9.24316Z" fill="#76316E"/>
<path d="M28.8976 14.9933H28.6527V15.0289C28.6527 15.3511 28.6423 15.6775 28.6213 15.9977L28.8662 16.0144C28.8871 15.688 28.8976 15.3574 28.8976 15.0289V14.9933Z" fill="#76316E"/>
<path d="M0.30127 17.9877C0.36823 18.3079 0.447744 18.6301 0.535629 18.9461L0.772083 18.8791C0.684198 18.5694 0.606774 18.2514 0.541906 17.9375L0.30127 17.9877Z" fill="#76316E"/>
<path d="M28.3596 17.9209L28.5982 17.969C28.6651 17.6488 28.7216 17.3224 28.7656 16.9981L28.5228 16.9646C28.4789 17.2827 28.4182 17.6049 28.3596 17.9209Z" fill="#76316E"/>
<path d="M27.8367 19.7873L28.0689 19.8689C28.1777 19.5592 28.2782 19.2412 28.3661 18.9273L28.1296 18.8624C28.0438 19.1721 27.9455 19.4839 27.8367 19.7873Z" fill="#76316E"/>
<path d="M18.2886 28.7098L18.3555 28.9463C18.6715 28.8563 18.9833 28.7559 19.2951 28.647L19.2135 28.4169C18.9101 28.5236 18.5983 28.6219 18.2886 28.7098Z" fill="#76316E"/>
<path d="M27.0645 21.566L27.2737 21.679C27.4244 21.3881 27.5667 21.0868 27.6922 20.7876L27.4662 20.6892C27.3532 20.9843 27.213 21.2793 27.0645 21.566Z" fill="#76316E"/>
<path d="M5.33789 26.2447C5.59108 26.454 5.85683 26.6528 6.12258 26.8411L6.26487 26.6423C6.00122 26.4561 5.74174 26.2594 5.49064 26.0543L5.33789 26.2447Z" fill="#76316E"/>
<path d="M4.0741 24.7318L3.89624 24.8992C4.11805 25.1399 4.3545 25.3742 4.59304 25.5981L4.76045 25.4182C4.52399 25.1984 4.29382 24.9683 4.0741 24.7318Z" fill="#76316E"/>
<path d="M2.64917 23.3718C2.8375 23.6396 3.03837 23.9033 3.24553 24.1565L3.43595 24.0016C3.2267 23.7526 3.03628 23.4931 2.85005 23.2316L2.64917 23.3718Z" fill="#76316E"/>
<path d="M0.834961 19.8857C0.945864 20.1933 1.06723 20.5009 1.19906 20.8022L1.42296 20.7039C1.29322 20.4088 1.17395 20.1054 1.06723 19.8041L0.834961 19.8857Z" fill="#76316E"/>
<path d="M1.62183 21.6914C1.77458 21.9802 1.9357 22.269 2.10729 22.5494L2.31654 22.4217C2.14914 22.1455 1.98801 21.863 1.83945 21.5847L1.62183 21.6914Z" fill="#76316E"/>
<path d="M8.70068 28.2913C9.002 28.421 9.3117 28.5445 9.61929 28.6533L9.7009 28.4231C9.39749 28.3143 9.09407 28.195 8.79903 28.0674L8.70068 28.2913Z" fill="#76316E"/>
<path d="M6.94922 27.383C7.22961 27.5546 7.51838 27.7157 7.80924 27.8664L7.92224 27.6571C7.63556 27.5107 7.35098 27.3495 7.08523 27.1821L6.94922 27.383Z" fill="#76316E"/>
<path d="M14.457 29.235V29.4798C14.7856 29.4798 15.1183 29.4694 15.4447 29.4464L15.428 29.2015C15.1057 29.2225 14.7814 29.235 14.457 29.235Z" fill="#76316E"/>
<path d="M12.4902 29.3481C12.8146 29.392 13.1452 29.4255 13.4716 29.4485L13.4884 29.2037C13.1661 29.1807 12.8418 29.1493 12.5237 29.1053L12.4902 29.3481Z" fill="#76316E"/>
<path d="M16.3926 29.1032L16.424 29.3459C16.7483 29.302 17.0768 29.2455 17.397 29.1785L17.3468 28.9379C17.0329 29.0048 16.7106 29.0592 16.3926 29.1032Z" fill="#76316E"/>
<path d="M10.561 28.9503C10.8749 29.0382 11.1888 29.1156 11.5194 29.1826L11.5675 28.9419C11.2537 28.8771 10.9398 28.8018 10.6259 28.7139L10.561 28.9503Z" fill="#76316E"/>
<path d="M10.897 16.2132C11.5833 15.0728 11.4975 14.4555 10.5183 13.6017C10.8656 12.8087 10.7756 12.2353 10.2462 11.8587C9.71682 11.482 9.13301 11.5699 8.51154 12.1788C7.86077 11.5804 7.34601 11.4548 6.82289 11.8336C6.59572 11.98 6.42809 12.2026 6.34998 12.4613C6.28721 12.8401 6.36881 13.2439 6.39183 13.6959C5.43974 14.3864 5.43974 15.4327 6.2056 16.3596C5.8143 17.182 5.95241 17.8914 6.58225 18.2994C7.21209 18.7074 7.86077 18.5547 8.50317 17.8516C9.16231 18.5547 9.78797 18.6991 10.4136 18.3057C11.0393 17.9123 11.1586 17.3243 10.874 16.5019C10.8583 16.4547 10.8523 16.4048 10.8563 16.3552C10.8602 16.3056 10.8741 16.2573 10.897 16.2132ZM8.35251 17.1841C8.35406 17.4184 8.27446 17.6461 8.12723 17.8284C7.98 18.0107 7.77421 18.1365 7.5448 18.1843C7.33432 18.2352 7.11315 18.2183 6.91285 18.136C6.71256 18.0537 6.54339 17.9102 6.42949 17.7261C6.16375 17.3076 6.20769 16.9016 6.63875 16.3806L7.33346 17.1946C7.36985 17.0933 7.38408 16.9855 7.37519 16.8783C7.3663 16.7711 7.33449 16.6671 7.28192 16.5732C7.22934 16.4794 7.15723 16.3979 7.07046 16.3344C6.98368 16.2708 6.88427 16.2266 6.77894 16.2048C6.56174 16.1525 6.36697 16.0321 6.22313 15.8612C6.0793 15.6902 5.99396 15.4777 5.97961 15.2548C5.93958 15.0175 5.96745 14.7737 6.06001 14.5516C6.15257 14.3294 6.30605 14.138 6.50273 13.9993C6.95053 13.654 7.31253 13.7901 7.43808 14.3529C7.46738 14.4869 7.48202 14.625 7.50504 14.7714L7.69546 14.7903C7.69546 14.581 7.7687 14.3236 7.67872 14.1625C7.53785 13.9043 7.33143 13.6878 7.08026 13.5348C6.63038 13.2858 6.45251 13.0075 6.61364 12.5659C6.68013 12.3503 6.82756 12.1689 7.02498 12.0596C7.22239 11.9504 7.45445 11.9219 7.67244 11.98C7.87051 12.0227 8.04722 12.1337 8.17158 12.2937C8.29594 12.4536 8.36 12.6522 8.35251 12.8547C8.36925 14.2839 8.36925 15.7361 8.35251 17.1841ZM9.67079 17.1841C9.89887 16.9204 10.1249 16.6547 10.3655 16.3743C10.7986 16.8828 10.8468 17.2887 10.5747 17.7135C10.4618 17.8983 10.2933 18.0425 10.0933 18.1256C9.8933 18.2087 9.67215 18.2263 9.46154 18.1759C9.23205 18.1299 9.02565 18.0057 8.87758 17.8244C8.72951 17.6431 8.64895 17.4161 8.64964 17.182C8.63709 15.7173 8.635 14.2525 8.64964 12.7877C8.65205 12.5692 8.736 12.3594 8.88503 12.1996C9.03406 12.0397 9.23742 11.9413 9.45526 11.9235C9.66354 11.9062 9.8714 11.9615 10.0435 12.0802C10.2155 12.1989 10.3412 12.3735 10.399 12.5743C10.4347 12.6613 10.4516 12.7548 10.4486 12.8487C10.4457 12.9427 10.4229 13.035 10.3818 13.1195C10.3407 13.2041 10.2823 13.279 10.2102 13.3394C10.1382 13.3997 10.0542 13.4442 9.96374 13.4699C9.74988 13.54 9.56435 13.6773 9.43468 13.8612C9.30501 14.0452 9.23811 14.2661 9.24391 14.491C9.24391 14.5894 9.3318 14.7003 9.37784 14.7903L9.48455 14.7589C9.49395 14.6869 9.51295 14.6165 9.54105 14.5496C9.67707 14.2985 9.78797 13.8968 9.97839 13.8528C10.1688 13.8089 10.5371 14.0286 10.7191 14.2316C11.326 14.9054 11.0686 15.8491 10.2274 16.1943C10.0249 16.2592 9.85476 16.3987 9.75139 16.5844C9.64801 16.7702 9.6192 16.9883 9.67079 17.1946V17.1841Z" fill="white"/>
<path d="M23.0919 14.8803C22.619 14.6124 22.5123 14.1646 22.2759 13.7733C22.0263 13.3561 21.6854 13.0009 21.2787 12.7345C20.8721 12.4681 20.4103 12.2974 19.9281 12.2353C19.9406 11.6934 19.9009 11.1619 20.4261 10.8229C20.4721 10.7936 20.4261 10.6283 20.4261 10.4379L19.79 11.0384C19.4887 10.7727 19.1622 10.5174 18.8253 10.871C18.755 10.9658 18.7082 11.076 18.6889 11.1924C18.6696 11.3089 18.6784 11.4282 18.7144 11.5406C18.9069 11.9591 19.2836 11.867 19.6456 11.685C19.6874 12.1035 19.4594 12.2186 19.1141 12.273C17.9318 12.4571 17.1241 13.1246 16.6387 14.2148C16.5398 14.4167 16.3898 14.5892 16.2034 14.7149C16.0898 14.7827 15.9958 14.8787 15.9305 14.9937C15.8651 15.1087 15.8308 15.2387 15.8308 15.3709C15.8308 15.5032 15.8651 15.6332 15.9305 15.7482C15.9958 15.8632 16.0898 15.9592 16.2034 16.0269C16.3906 16.1518 16.5392 16.3265 16.6324 16.5312C16.8659 17.1174 17.2699 17.6201 17.7922 17.9742C18.3144 18.3283 18.9309 18.5176 19.5619 18.5176C20.1929 18.5176 20.8094 18.3283 21.3316 17.9742C21.8539 17.6201 22.2579 17.1174 22.4914 16.5312C22.5879 16.3291 22.7367 16.1564 22.9225 16.0311C23.3368 15.734 23.4853 15.1042 23.0919 14.8803ZM19.0178 11.4569V11.0782L19.5347 11.143C19.5347 11.2267 19.5347 11.3104 19.5347 11.3941L19.0178 11.4569ZM19.5514 18.2115C18.9897 18.2066 18.442 18.0355 17.9773 17.7198C17.5126 17.4041 17.1518 16.9579 16.9402 16.4375C16.7287 15.9171 16.6759 15.3457 16.7885 14.7953C16.9011 14.2449 17.1741 13.7402 17.5731 13.3447C17.9721 12.9492 18.4792 12.6807 19.0305 12.5729C19.5819 12.4651 20.1528 12.5229 20.6713 12.739C21.1898 12.9551 21.6328 13.3199 21.9444 13.7873C22.256 14.2547 22.4223 14.8039 22.4224 15.3657C22.4215 15.7417 22.3466 16.1139 22.2018 16.4609C22.057 16.8079 21.8453 17.1229 21.5786 17.388C21.312 17.6531 20.9957 17.863 20.6478 18.0058C20.3 18.1485 19.9274 18.2213 19.5514 18.2199V18.2115Z" fill="white"/>
<path d="M16.0423 12.9215C14.3871 13.4635 12.7257 13.4949 11.1814 12.4884C11.1814 12.4444 11.1814 12.4005 11.1919 12.3545C11.333 12.3492 11.4741 12.3654 11.6104 12.4026C12.3992 12.7646 13.2007 13.0743 14.0921 12.9718C14.5985 12.9132 15.1069 12.8567 15.607 12.7625C16.5152 12.5909 17.5949 11.507 17.1701 10.2327C16.8542 9.28476 16.647 8.2971 16.3834 7.33037C16.3361 7.15871 16.2495 7.00042 16.1305 6.86802C16.0115 6.73563 15.8632 6.63277 15.6976 6.56759C15.5319 6.50242 15.3533 6.47671 15.176 6.49252C14.9986 6.50833 14.8274 6.56522 14.6759 6.65867C14.203 6.93698 14.1841 7.47057 14.7261 7.96649C14.8747 7.59821 15.0044 7.27387 15.1446 6.94953L15.312 6.99138C15.266 7.32409 15.222 7.65889 15.1718 8.01671C15.5171 7.97067 15.5526 8.24479 15.6112 8.54193C15.7744 9.37893 15.923 10.1866 15.266 10.8918C15.2443 10.9154 15.2212 10.9378 15.1969 10.9588C14.5043 10.7495 13.8786 10.4817 13.2341 10.4126C12.6817 10.354 12.1063 10.5361 11.5413 10.6051C11.4806 10.616 11.4183 10.6143 11.3582 10.6003C11.2981 10.5863 11.2415 10.5602 11.1919 10.5235C12.4934 9.87694 13.7635 9.96274 15.0232 10.6512C15.7619 9.97738 15.3643 9.18642 15.2785 8.39545C15.0693 8.35569 14.9123 8.33686 14.7617 8.29292C14.5287 8.22878 14.3261 8.08393 14.19 7.88424C14.054 7.68455 13.9933 7.44301 14.0188 7.20272C14.0421 6.96283 14.1474 6.73831 14.3171 6.56713C14.4868 6.39594 14.7103 6.28857 14.95 6.26319C16.0862 6.13764 16.4294 6.37409 16.7286 7.48103C16.9672 8.37243 17.2099 9.26384 17.4485 10.1552C17.7581 11.3501 17.2266 12.5365 16.0423 12.9215Z" fill="white"/>
<path d="M16.8228 19.7201L14.5755 23.9051L14.4186 23.9365C13.6841 22.5722 12.9538 21.2058 12.1628 19.7515L13.4393 19.6929V19.1865C13.4393 17.5606 13.4393 15.9348 13.4393 14.3068C13.4548 14.1601 13.4864 14.0155 13.5334 13.8757L13.6966 13.9134V19.9942L12.6609 20.0528L14.4834 23.4406L16.3206 20.0361L15.2744 19.9859C15.2618 19.8059 15.243 19.6531 15.243 19.5004C15.243 17.7783 15.243 16.0561 15.243 14.3361C15.2645 14.1814 15.3082 14.0305 15.3727 13.8883C15.4465 14.0384 15.4979 14.1984 15.5255 14.3633C15.5255 15.9578 15.5255 17.5502 15.5255 19.1447V19.7159L16.8228 19.7201Z" fill="white"/>
<path d="M13.9102 6.36167C13.9102 6.41608 13.8977 6.46839 13.8893 6.52279C13.4269 6.61905 12.9561 6.6902 12.4999 6.81575C11.4539 7.09028 10.4797 7.5877 9.64394 8.27393C8.80818 8.96016 8.13067 9.81898 7.65783 10.7915C7.62904 10.8649 7.59257 10.935 7.54902 11.0008C7.48075 11.068 7.40651 11.129 7.32722 11.1828C7.31257 11.0782 7.25607 10.9547 7.29373 10.8731C7.73501 9.87584 8.38756 8.98626 9.20628 8.26585C10.4132 7.1822 11.9251 6.49748 13.5357 6.30518C13.6625 6.30736 13.7884 6.32635 13.9102 6.36167Z" fill="white"/>
<path d="M22.1986 12.9885C22.1233 12.9006 22.004 12.8232 21.9894 12.7248C21.3784 9.9418 19.742 8.0439 17.1013 6.99765C17.0071 6.96208 16.9444 6.8449 16.8669 6.76538C19.5202 7.27177 22.0626 10.2494 22.1986 12.9885Z" fill="white"/>
<path d="M20.7337 18.8119C20.7128 18.9186 20.7337 19.0525 20.6689 19.1258C19.6139 20.4616 18.1519 21.4166 16.5048 21.846C16.3443 21.8493 16.1843 21.8288 16.0298 21.7853C16.9212 21.3878 17.7038 21.1471 18.3776 20.7098C19.1225 20.2181 19.7524 19.5464 20.4366 18.9605C20.5284 18.8976 20.6284 18.8476 20.7337 18.8119Z" fill="white"/>
<path d="M12.7467 21.7749C12.6415 21.8129 12.5299 21.83 12.4182 21.8251C10.7925 21.3907 9.34992 20.4442 8.3043 19.1258C8.24571 19.0546 8.26454 18.9165 8.2478 18.8119C8.32732 18.837 8.43822 18.837 8.48216 18.8893C9.5624 20.2422 11.0607 21.1989 12.7425 21.6096C12.7446 21.6703 12.7467 21.7226 12.7467 21.7749Z" fill="white"/>
<path d="M21.102 16.0123C20.969 16.3109 20.7515 16.5641 20.4763 16.7406C20.2011 16.917 19.8803 17.0091 19.5534 17.0053C19.2265 17.0015 18.9078 16.9021 18.6368 16.7193C18.3657 16.5365 18.1542 16.2784 18.0281 15.9767C18.0115 15.8791 18.0115 15.7793 18.0281 15.6817C18.1181 15.7423 18.2478 15.78 18.2876 15.8616C18.3947 16.1114 18.5724 16.3244 18.7988 16.4747C19.0252 16.6249 19.2906 16.7057 19.5624 16.7073C19.8341 16.7088 20.1004 16.631 20.3285 16.4834C20.5567 16.3358 20.7368 16.1248 20.8467 15.8763C20.8907 15.7905 21.012 15.7444 21.0957 15.6796C21.1177 15.7892 21.1198 15.9019 21.102 16.0123Z" fill="white"/>
<path d="M19.133 14.7798C18.612 14.6543 18.1558 14.3613 17.7227 14.807C18.0721 14.1123 18.6475 14.106 19.133 14.7798Z" fill="white"/>
<path d="M21.5248 14.8048C20.9996 14.6291 20.5497 14.4094 20.1082 14.8048C20.4869 14.108 21.0623 14.1122 21.5248 14.8048Z" fill="white"/>
</svg>
