<svg width="23" height="22" viewBox="0 0 23 22" fill="none" xmlns="http://www.w3.org/2000/svg">
<path d="M1 8.73743V19.5995C1 19.9836 1.15259 20.352 1.42419 20.6236C1.69579 20.8952 2.06417 21.0478 2.44828 21.0478H20.5517C20.9358 21.0478 21.3042 20.8952 21.5758 20.6236C21.8474 20.352 22 19.9836 22 19.5995V8.73743" stroke="#FBFBFB" stroke-linecap="round" stroke-linejoin="round"/>
<path d="M5.16379 6.84375C3.70797 7.28834 2.31021 7.90456 1 8.67944L10.6781 15.3524C10.9198 15.519 11.2064 15.6082 11.5 15.6082C11.7936 15.6082 12.0802 15.519 12.3219 15.3524L22 8.67944C20.6898 7.90456 19.292 7.28834 17.8362 6.84375" stroke="#FBFBFB" stroke-linecap="round" stroke-linejoin="round"/>
<path d="M5.16382 11.5507V2.08621C5.16382 1.79813 5.27826 1.52185 5.48196 1.31814C5.68566 1.11444 5.96195 1 6.25003 1H16.75C17.0381 1 17.3144 1.11444 17.5181 1.31814C17.7218 1.52185 17.8362 1.79813 17.8362 2.08621V11.5471L12.3219 15.3524C12.0802 15.519 11.7936 15.6082 11.5 15.6082C11.2065 15.6082 10.9198 15.519 10.6781 15.3524L5.16744 11.5507" stroke="#FBFBFB" stroke-linecap="round" stroke-linejoin="round"/>
<path d="M14.9397 4.21875H8.06036" stroke="#FBFBFB" stroke-linecap="round" stroke-linejoin="round"/>
<path d="M11.5 9.79822H8.06036" stroke="#FBFBFB" stroke-linecap="round" stroke-linejoin="round"/>
<path d="M14.9397 7.01038H8.06036" stroke="#FBFBFB" stroke-linecap="round" stroke-linejoin="round"/>
<path d="M9.03066 14.2228L1.46704 20.6676" stroke="#FBFBFB" stroke-linecap="round" stroke-linejoin="round"/>
<path d="M13.9512 14.2228L21.5366 20.6676" stroke="#FBFBFB" stroke-linecap="round" stroke-linejoin="round"/>
</svg>
