<svg width="27" height="28" viewBox="0 0 27 28" fill="none" xmlns="http://www.w3.org/2000/svg">
<path d="M0.224436 14.0376C0.224436 13.746 0.234026 13.4525 0.253209 13.1648L0.0287728 13.1494C0.00959014 13.4429 0 13.7422 0 14.0376V14.0529H0.224436V14.0376Z" fill="#009E54"/>
<path d="M6.46269 2.91924L6.34568 2.72742C6.09055 2.8828 5.83733 3.05161 5.5918 3.22425L5.72224 3.41608C5.96202 3.23768 6.2114 3.0727 6.46269 2.91924Z" fill="#009E54"/>
<path d="M11.4481 1.1389L11.4174 0.916382C11.1201 0.956665 10.8208 1.00846 10.5273 1.06985L10.5734 1.29045C10.8611 1.22906 11.1565 1.17918 11.4481 1.1389Z" fill="#009E54"/>
<path d="M9.71028 1.50168L9.6489 1.28491C9.35924 1.36548 9.07342 1.45947 8.7876 1.55922L8.86241 1.77215C9.14056 1.6724 9.42638 1.58224 9.71028 1.50168Z" fill="#009E54"/>
<path d="M5.01434 3.94547L4.87239 3.77283C4.64028 3.96465 4.41201 4.15648 4.19141 4.36749L4.34486 4.53246C4.56163 4.32912 4.78607 4.13346 5.01434 3.94547Z" fill="#009E54"/>
<path d="M3.71768 5.16164L3.55271 5.00818C3.34937 5.22686 3.14987 5.45705 2.95996 5.69108L3.13452 5.83111C3.32059 5.60284 3.51626 5.37648 3.71768 5.16164Z" fill="#009E54"/>
<path d="M0.49104 11.4036L0.270441 11.3595C0.210975 11.653 0.15918 11.9522 0.118896 12.2496L0.341416 12.2803C0.381699 11.9887 0.431574 11.6933 0.49104 11.4036Z" fill="#009E54"/>
<path d="M0.966798 9.69261L0.753871 9.6178C0.654122 9.89978 0.562047 10.1933 0.483398 10.4791L0.70016 10.5405C0.778809 10.2566 0.868967 9.97076 0.966798 9.69261Z" fill="#009E54"/>
<path d="M1.6746 8.06013L1.48277 7.95654C1.34466 8.22318 1.21422 8.49941 1.09912 8.77564L1.30629 8.86388C1.40988 8.59341 1.5384 8.32293 1.6746 8.06013Z" fill="#009E54"/>
<path d="M2.59738 6.54084L2.40555 6.4104C2.23291 6.65594 2.06602 6.91107 1.91064 7.16812L2.10247 7.28513C2.2636 7.03384 2.42665 6.78254 2.59738 6.54084Z" fill="#009E54"/>
<path d="M15.0239 0.909006C14.7266 0.868723 14.4235 0.839949 14.1242 0.818848L14.1089 1.04328C14.4043 1.06246 14.7016 1.09316 14.9932 1.13153L15.0239 0.909006Z" fill="#009E54"/>
<path d="M22.7449 5.13098L22.9099 4.97752C22.7046 4.75692 22.4879 4.54208 22.2692 4.33875L22.1157 4.50371C22.3306 4.70321 22.5435 4.92381 22.7449 5.13098Z" fill="#009E54"/>
<path d="M24.997 7.91625C24.8569 7.64961 24.7073 7.38681 24.5519 7.12976L24.3601 7.24677C24.5136 7.49806 24.6613 7.75895 24.7975 8.01408L24.997 7.91625Z" fill="#009E54"/>
<path d="M13.215 1.01435V0.789917C12.9139 0.789917 12.6108 0.801423 12.3115 0.822524L12.3269 1.04696C12.6261 1.02586 12.9254 1.01627 13.215 1.01435Z" fill="#009E54"/>
<path d="M26.2361 13.1147L26.4586 13.0994C26.4395 12.8001 26.4068 12.497 26.3666 12.1997L26.144 12.2304C26.1843 12.522 26.215 12.8193 26.2361 13.1147Z" fill="#009E54"/>
<path d="M26.2112 11.3097C26.1498 11.0162 26.0769 10.7208 25.9963 10.4312L25.7795 10.4925C25.8601 10.7764 25.9311 11.068 25.9906 11.3558L26.2112 11.3097Z" fill="#009E54"/>
<path d="M24.0531 6.37609C23.8785 6.13055 23.6943 5.88885 23.5044 5.65674L23.3318 5.79869C23.5236 6.02696 23.6982 6.26483 23.8708 6.50653L24.0531 6.37609Z" fill="#009E54"/>
<path d="M16.7942 1.27913C16.5046 1.19856 16.2188 1.12758 15.9157 1.06812L15.8696 1.2868C16.1593 1.34627 16.4451 1.41724 16.7348 1.49589L16.7942 1.27913Z" fill="#009E54"/>
<path d="M21.5861 3.74616C21.3521 3.55434 21.1104 3.37211 20.8648 3.19946L20.7344 3.39129C20.9761 3.5601 21.2159 3.74233 21.4441 3.9284L21.5861 3.74616Z" fill="#009E54"/>
<path d="M0.255198 14.9409L0.0307617 14.9563C0.0518626 15.2574 0.0825529 15.5605 0.124755 15.8559L0.347274 15.8252C0.30699 15.5337 0.276299 15.2363 0.255198 14.9409Z" fill="#009E54"/>
<path d="M18.4997 1.87385C18.2235 1.75492 17.9415 1.64366 17.6576 1.54199L17.5828 1.75492C17.8609 1.85275 18.1391 1.9621 18.4115 2.07911L18.4997 1.87385Z" fill="#009E54"/>
<path d="M20.1073 2.70435C19.8503 2.54705 19.5856 2.39935 19.3189 2.26123L19.2153 2.45306C19.4781 2.58925 19.739 2.73505 19.9826 2.88851L20.1073 2.70435Z" fill="#009E54"/>
<path d="M8.03555 2.09819L7.94539 1.89294C7.67108 2.01188 7.39677 2.14424 7.13013 2.2766L7.23371 2.46842C7.49843 2.34565 7.76699 2.21713 8.03555 2.09819Z" fill="#009E54"/>
<path d="M21.4634 24.1371L21.6053 24.3116C21.8374 24.1198 22.0657 23.928 22.2863 23.717L22.1329 23.552C21.918 23.7553 21.6936 23.951 21.4634 24.1371Z" fill="#009E54"/>
<path d="M22.7622 22.9248L22.9272 23.0783C23.1324 22.8577 23.3319 22.6294 23.5218 22.3954L23.3473 22.2554C23.1612 22.4836 22.9636 22.7081 22.7622 22.9248Z" fill="#009E54"/>
<path d="M18.4385 25.9806L18.5286 26.1878C18.8029 26.0669 19.0773 25.9365 19.3439 25.8041L19.2403 25.6123C18.9794 25.7351 18.709 25.8636 18.4385 25.9806Z" fill="#009E54"/>
<path d="M20.0151 25.1633L20.1322 25.3552C20.3873 25.1979 20.6424 25.031 20.886 24.8583L20.7575 24.6665C20.5158 24.8449 20.2664 25.0099 20.0151 25.1633Z" fill="#009E54"/>
<path d="M23.8862 21.5456L24.0685 21.676C24.243 21.4305 24.4099 21.1754 24.5653 20.9202L24.3735 20.8032C24.22 21.0545 24.057 21.3039 23.8862 21.5456Z" fill="#009E54"/>
<path d="M25.3862 8.73157L25.1809 8.82173C25.2998 9.09028 25.4092 9.36843 25.5089 9.64658L25.7199 9.56985C25.6183 9.28786 25.507 9.00588 25.3862 8.73157Z" fill="#009E54"/>
<path d="M26.4911 14.0029H26.259V14.0375C26.259 14.3329 26.2494 14.6321 26.2302 14.9256L26.4547 14.941C26.4738 14.6417 26.4834 14.3367 26.4834 14.0375L26.4911 14.0029Z" fill="#009E54"/>
<path d="M0.278076 16.7478C0.337542 17.0413 0.410436 17.3367 0.491003 17.6264L0.707768 17.565C0.629119 17.2811 0.558142 16.9895 0.496758 16.7018L0.278076 16.7478Z" fill="#009E54"/>
<path d="M25.9983 16.6847L26.2189 16.7307C26.2784 16.4372 26.3301 16.138 26.3704 15.8387L26.1479 15.8099C26.1076 16.1015 26.0673 16.3969 25.9983 16.6847Z" fill="#009E54"/>
<path d="M25.5205 18.3958L25.7315 18.4725C25.8313 18.1886 25.9233 17.897 26.0039 17.6093L25.7871 17.5498C25.7085 17.8337 25.6183 18.1176 25.5205 18.3958Z" fill="#009E54"/>
<path d="M16.7656 26.5771L16.827 26.7939C17.1167 26.7114 17.4025 26.6193 17.6883 26.5196L17.6135 26.3066C17.3353 26.4083 17.0514 26.4965 16.7656 26.5771Z" fill="#009E54"/>
<path d="M24.8108 20.0281L25.0026 20.1317C25.1407 19.8651 25.2712 19.5888 25.3863 19.3145L25.1791 19.2244C25.0755 19.5025 24.947 19.7653 24.8108 20.0281Z" fill="#009E54"/>
<path d="M4.89355 24.3175C5.12566 24.5093 5.36928 24.6916 5.6129 24.8642L5.74335 24.6724C5.50165 24.5036 5.26378 24.3213 5.03551 24.1353L4.89355 24.3175Z" fill="#009E54"/>
<path d="M3.73483 22.9305L3.57178 23.084C3.77703 23.3027 3.99188 23.5175 4.21056 23.7228L4.36402 23.5597C4.14918 23.3583 3.93625 23.1473 3.73483 22.9305Z" fill="#009E54"/>
<path d="M2.42847 21.6836C2.60303 21.9291 2.78718 22.1708 2.97709 22.4029L3.14973 22.261C2.95791 22.0327 2.78334 21.7948 2.61262 21.5551L2.42847 21.6836Z" fill="#009E54"/>
<path d="M0.765381 18.4879C0.867049 18.7699 0.978306 19.0519 1.09916 19.3281L1.30441 19.2379C1.1874 18.9675 1.07614 18.6893 0.978308 18.4131L0.765381 18.4879Z" fill="#009E54"/>
<path d="M1.48853 20.1434C1.62664 20.4081 1.77626 20.6728 1.93164 20.9299L2.12347 20.8128C1.97001 20.5596 1.8223 20.3007 1.68803 20.0455L1.48853 20.1434Z" fill="#009E54"/>
<path d="M7.97607 26.1935C8.2523 26.3124 8.53621 26.4237 8.81819 26.5254L8.893 26.3124C8.61486 26.2146 8.33671 26.1053 8.06623 25.9863L7.97607 26.1935Z" fill="#009E54"/>
<path d="M6.37061 25.361C6.62765 25.5164 6.89237 25.666 7.15901 25.8042L7.2626 25.6123C6.99979 25.4761 6.73891 25.3303 6.49529 25.1769L6.37061 25.361Z" fill="#009E54"/>
<path d="M13.2532 27.0586V27.2831C13.5524 27.2831 13.8574 27.2716 14.1567 27.2524L14.1413 27.028C13.8498 27.0471 13.5505 27.0586 13.2532 27.0586Z" fill="#009E54"/>
<path d="M11.4521 27.1622C11.7476 27.2025 12.0506 27.2332 12.3518 27.2524L12.3652 27.0279C12.0717 27.0088 11.7725 26.98 11.4809 26.9397L11.4521 27.1622Z" fill="#009E54"/>
<path d="M15.0276 26.9378L15.0583 27.1603C15.3556 27.12 15.6549 27.0682 15.9484 27.0068L15.9004 26.792C15.6146 26.8476 15.3249 26.8975 15.0276 26.9378Z" fill="#009E54"/>
<path d="M9.6814 26.792C9.96914 26.8725 10.2569 26.9435 10.56 27.0049L10.606 26.7843C10.3163 26.7248 10.0305 26.6538 9.74086 26.5752L9.6814 26.792Z" fill="#009E54"/>
<circle cx="13.2327" cy="14.0222" r="11.6988" fill="#009E54"/>
<path d="M18.609 15.289C17.6 16.3574 16.9424 17.7091 16.7244 19.1624C16.7042 19.2977 16.6841 19.4329 16.6585 19.5664C16.6265 19.774 16.5207 19.9631 16.3606 20.099C16.2004 20.235 15.9967 20.3087 15.7866 20.3067H13.1946C13.0019 20.3082 12.8141 20.2451 12.6614 20.1275C12.5087 20.0099 12.3997 19.8445 12.3519 19.6578C12.3432 19.6314 12.3358 19.6045 12.33 19.5773C12.2642 19.2118 12.2002 18.8462 12.1344 18.4806L12.628 18.2978C12.6938 18.6286 12.7559 18.9595 12.8108 19.2885C12.8235 19.358 12.829 19.4311 12.8455 19.4987C12.8615 19.5774 12.9044 19.6481 12.9667 19.6988C13.029 19.7494 13.107 19.7769 13.1873 19.7766C14.0525 19.7766 14.9165 19.7766 15.7793 19.7766C15.8677 19.7764 15.9528 19.7431 16.0178 19.6832C16.0828 19.6233 16.1229 19.5411 16.1303 19.453C16.2527 18.8937 16.335 18.3197 16.5087 17.7768C16.8528 16.7299 17.4218 15.771 18.1757 14.9673C18.698 14.4254 19.0939 13.7746 19.335 13.0616C19.5761 12.3487 19.6565 11.5912 19.5704 10.8435C19.3657 8.9077 18.3805 7.47278 16.6293 6.61731C15.6785 6.15963 14.6071 6.01533 13.5692 6.20519C12.5312 6.39504 11.5802 6.90926 10.853 7.67385C10.114 8.43643 9.62231 9.40431 9.44228 10.4509C9.26226 11.4974 9.40227 12.574 9.84402 13.5397C9.908 13.6804 9.92628 13.7773 9.79467 13.8888C9.71401 13.9754 9.64292 14.0704 9.58263 14.1721C8.69608 12.7336 8.30308 9.9149 10.131 7.62815C10.0158 7.71955 9.89155 7.81094 9.78553 7.90417C8.5206 9.11426 7.78394 10.5766 7.70169 12.3369C7.68302 12.7794 7.77606 13.2194 7.97222 13.6165C8.01792 13.7133 8.0691 13.7682 8.18061 13.7499C8.22424 13.7435 8.26858 13.7435 8.31222 13.7499C8.34652 13.7492 8.38063 13.7553 8.41253 13.7679C8.44444 13.7805 8.4735 13.7994 8.49802 13.8234C8.52254 13.8474 8.54201 13.8761 8.55531 13.9077C8.5686 13.9394 8.57545 13.9733 8.57544 14.0076C8.57698 14.042 8.57138 14.0763 8.559 14.1083C8.54662 14.1404 8.52772 14.1695 8.5035 14.1939C8.47927 14.2183 8.45026 14.2374 8.41828 14.25C8.3863 14.2627 8.35205 14.2685 8.3177 14.2672C8.13491 14.2471 8.0691 14.3421 8.00147 14.4884C7.69986 15.1665 7.38728 15.8392 7.07836 16.5156C6.90654 16.8903 7.03084 17.0987 7.44395 17.1352L7.59201 17.148C7.66388 17.1472 7.73495 17.1632 7.79953 17.1947C7.86412 17.2263 7.92042 17.2725 7.96394 17.3297C8.00746 17.3869 8.037 17.4535 8.05018 17.5241C8.06336 17.5948 8.05983 17.6676 8.03986 17.7366C8.00878 17.9377 7.98136 18.1369 7.95212 18.338C7.94952 18.3605 7.94952 18.3832 7.95212 18.4056L8.32867 18.4769C8.39784 18.4812 8.46438 18.505 8.52052 18.5456C8.57667 18.5863 8.62011 18.642 8.64578 18.7064C8.67145 18.7708 8.6783 18.8411 8.66552 18.9092C8.65274 18.9773 8.62087 19.0404 8.57361 19.0911C8.49135 19.2063 8.40361 19.3178 8.31404 19.4402C8.65587 19.9155 8.71985 20.4547 8.69608 21.0159C8.68818 21.14 8.72413 21.2629 8.79763 21.3631C8.87114 21.4633 8.97754 21.5345 9.09823 21.5643C9.48946 21.6749 9.90194 21.6875 10.2992 21.6009C10.7945 21.5149 11.2844 21.3998 11.7944 21.451C12.1698 21.4851 12.5346 21.5938 12.8674 21.7709C12.9911 21.8383 13.1288 21.8759 13.2696 21.8805C13.9368 21.8915 14.604 21.8805 15.2711 21.8805H15.3863C15.4219 21.879 15.4575 21.8848 15.4908 21.8975C15.5242 21.9102 15.5546 21.9295 15.5802 21.9543C15.6059 21.9791 15.6262 22.0088 15.64 22.0417C15.6538 22.0746 15.6608 22.1099 15.6605 22.1456C15.6609 22.1814 15.6538 22.2168 15.6396 22.2497C15.6254 22.2825 15.6044 22.312 15.578 22.3362C15.5516 22.3603 15.5203 22.3786 15.4864 22.3899C15.4524 22.4011 15.4164 22.4051 15.3808 22.4015H13.8874C13.6578 22.4134 13.4278 22.4134 13.1983 22.4015C13.0138 22.3915 12.8333 22.3436 12.6682 22.2607C12.1666 21.9858 11.5854 21.8928 11.023 21.9975C10.5862 22.056 10.1493 22.1456 9.71058 22.1657C9.43228 22.1706 9.15522 22.1273 8.89167 22.0377C8.66988 21.9689 8.47794 21.827 8.34715 21.6352C8.21636 21.4433 8.15443 21.2128 8.17147 20.9812C8.17147 20.8404 8.17147 20.696 8.17147 20.5553C8.15107 20.2708 8.05928 19.9961 7.90459 19.7565C7.69986 19.4311 7.709 19.3744 7.93383 19.0692L8.01426 18.9522L7.73459 18.8955C7.68073 18.8919 7.62834 18.8765 7.58117 18.8502C7.53399 18.824 7.49322 18.7877 7.46176 18.7438C7.4303 18.6999 7.40895 18.6496 7.39923 18.5965C7.38952 18.5435 7.39168 18.4889 7.40556 18.4367C7.44212 18.1881 7.47868 17.9413 7.51889 17.6781C7.39825 17.6562 7.28675 17.6416 7.17707 17.6178C7.0443 17.5938 6.91902 17.5389 6.81135 17.4576C6.70367 17.3763 6.61662 17.2708 6.5572 17.1497C6.49779 17.0285 6.46768 16.8951 6.4693 16.7602C6.47092 16.6253 6.50423 16.4927 6.56654 16.373C6.89557 15.6528 7.22277 14.9344 7.55728 14.216C7.58279 14.1718 7.59622 14.1217 7.59622 14.0707C7.59622 14.0197 7.58279 13.9696 7.55728 13.9254C7.26384 13.3712 7.13689 12.744 7.1917 12.1194C7.28908 10.7761 7.78046 9.49127 8.60435 8.4258C9.42824 7.36033 10.5481 6.56149 11.8237 6.12925C12.6389 5.8053 13.5057 5.63069 14.3828 5.61377C16.728 5.61377 18.4554 6.69956 19.5302 8.7633C20.0625 9.8147 20.2595 11.004 20.0947 12.1709C19.93 13.3377 19.4114 14.426 18.609 15.289Z" fill="white"/>
<path d="M17.7735 10.266C17.7683 10.0759 17.6976 9.89346 17.5734 9.74955C17.4491 9.60564 17.2789 9.5091 17.0917 9.47629L16.9546 9.4507C17.0317 9.31377 17.096 9.16996 17.1465 9.02114C17.2616 8.54222 16.7919 7.89696 16.2709 7.79277C16.1641 7.76996 16.0537 7.76955 15.9467 7.79157C15.8398 7.8136 15.7385 7.85758 15.6494 7.92073C15.6074 7.94997 15.5653 7.97556 15.5014 8.01578L15.4739 7.86223C15.4439 7.68384 15.3561 7.52027 15.224 7.39673C15.0919 7.27319 14.9228 7.19653 14.7428 7.17858C14.613 7.16761 14.4814 7.17858 14.3498 7.17858C14.1481 7.17285 13.9515 7.24225 13.7982 7.37331C13.6448 7.50437 13.5456 7.68774 13.5199 7.88782C13.4998 8.01943 13.4596 8.01577 13.3682 7.94448C13.2683 7.86075 13.1478 7.80524 13.0192 7.78371C12.8907 7.76218 12.7587 7.7754 12.637 7.82202C12.462 7.88647 12.3027 7.98722 12.1694 8.11765C12.0361 8.24808 11.932 8.40523 11.8638 8.57878C11.8144 8.69877 11.7979 8.82974 11.8159 8.95824C11.8339 9.08673 11.8857 9.20812 11.9661 9.30995C11.9936 9.35199 12.0155 9.39769 12.0484 9.45619L11.9113 9.47995C11.7201 9.5092 11.5454 9.60501 11.418 9.75048C11.2906 9.89596 11.2187 10.0817 11.2149 10.2751C11.2149 10.3848 11.2149 10.4926 11.2149 10.6023C11.2077 10.8063 11.2771 11.0056 11.4093 11.1612C11.5415 11.3167 11.7271 11.4173 11.9296 11.4431C11.9711 11.453 12.0119 11.4652 12.052 11.4797C12.0155 11.5345 11.9899 11.5748 11.9643 11.6113C11.8716 11.7317 11.8176 11.8775 11.8095 12.0292C11.8013 12.181 11.8394 12.3316 11.9186 12.4613C12.0308 12.6354 12.1682 12.7918 12.3262 12.9256C12.4669 13.0587 12.651 13.1365 12.8445 13.1446C13.038 13.1526 13.2279 13.0904 13.3791 12.9695C13.4137 12.9465 13.4505 12.9269 13.4888 12.911C13.4998 12.9713 13.5071 13.0115 13.5162 13.0517C13.5313 13.1799 13.5795 13.302 13.6561 13.4058C13.7327 13.5097 13.8351 13.5918 13.9531 13.644C14.125 13.7233 14.3121 13.7644 14.5015 13.7644C14.6908 13.7644 14.8779 13.7233 15.0499 13.644C15.1471 13.5995 15.2331 13.5336 15.3014 13.4513C15.3698 13.3691 15.4187 13.2725 15.4447 13.1687C15.4666 13.0919 15.4849 13.0152 15.5105 12.9073C16.0753 13.3479 16.5232 13.1431 16.9271 12.6825C17.2671 12.295 17.2525 11.8983 16.9271 11.476L17.077 11.4486C17.2676 11.4198 17.4417 11.3245 17.5689 11.1797C17.696 11.0349 17.7678 10.8498 17.7716 10.6571C17.7771 10.5255 17.7771 10.3976 17.7735 10.266ZM17.1867 10.7906C17.1269 10.8499 17.0515 10.8911 16.9692 10.9094C16.8943 10.9241 16.8174 10.9241 16.7425 10.9094C16.6328 10.8984 16.5835 10.9313 16.5488 11.0465C16.4818 11.241 16.4049 11.432 16.3184 11.6186C16.4062 11.7758 16.684 11.8544 16.6347 12.0811C16.5781 12.2313 16.4859 12.3656 16.366 12.4723C16.2344 12.6203 16.0936 12.6551 15.9748 12.5637C15.8671 12.4752 15.7645 12.3806 15.6677 12.2803C15.4465 12.3644 15.2381 12.4412 15.0316 12.5271C14.9987 12.5436 14.9767 12.5929 14.9548 12.6295C14.9329 12.666 14.9548 12.6733 14.9548 12.6953C14.9548 13.1669 14.708 13.3387 14.2456 13.1925C14.1795 13.1736 14.1221 13.1322 14.0834 13.0754C14.0447 13.0186 14.027 12.9501 14.0335 12.8817C14.0335 12.5655 14.0335 12.5692 13.7465 12.4576C13.6094 12.4028 13.4797 12.3352 13.381 12.2858C13.1982 12.3973 13.0464 12.5637 12.8728 12.5856C12.7521 12.6002 12.5968 12.4229 12.4743 12.3132C12.3518 12.2036 12.3025 12.0354 12.4012 11.9239C12.4908 11.8305 12.5887 11.7455 12.6936 11.6698C12.5931 11.4066 12.5109 11.1982 12.4323 10.9935C12.408 10.9564 12.3719 10.9287 12.3299 10.9149C12.2924 10.9084 12.2541 10.9084 12.2166 10.9149C12.0612 10.9149 11.851 10.9569 11.8053 10.7705C11.7632 10.5611 11.7632 10.3455 11.8053 10.1362C11.8254 10.0101 11.9771 9.9936 12.1051 9.99542C12.3939 9.99542 12.3939 9.99543 12.4926 9.72489C12.5182 9.6536 12.5492 9.58414 12.5821 9.51468C12.615 9.44522 12.6516 9.37941 12.6882 9.30995C12.5968 9.12716 12.3098 9.05038 12.3646 8.81458C12.4224 8.65774 12.5231 8.5203 12.6553 8.41792C13.0007 8.10169 13.1342 8.50931 13.3407 8.62996L14.0463 8.33749C14.0463 8.23879 14.0463 8.11997 14.0463 8.00115C14.0449 7.96292 14.051 7.92478 14.0644 7.88894C14.0778 7.8531 14.0982 7.82029 14.1244 7.79239C14.1506 7.7645 14.182 7.74209 14.217 7.72647C14.2519 7.71084 14.2896 7.70231 14.3278 7.70137C14.3552 7.69954 14.3827 7.69954 14.4101 7.70137C14.9219 7.70137 14.9585 7.72514 14.9585 8.24061C14.9556 8.25864 14.9564 8.27705 14.9608 8.29477C14.9651 8.3125 14.973 8.32917 14.9839 8.34381C14.9948 8.35845 15.0085 8.37077 15.0242 8.38005C15.0399 8.38932 15.0574 8.39536 15.0754 8.39781C15.271 8.46179 15.4611 8.5477 15.6677 8.63179C15.8304 8.55319 15.9053 8.2662 16.143 8.31738C16.3048 8.37796 16.4461 8.48318 16.5506 8.62082C16.8485 8.96082 16.4446 9.08877 16.3258 9.2935C16.4263 9.53296 16.5195 9.75414 16.62 9.99908C16.7312 9.98731 16.8434 9.98731 16.9546 9.99908C17.048 10.0153 17.1342 10.06 17.2013 10.127C17.2477 10.2332 17.2704 10.3482 17.2679 10.4641C17.2653 10.5799 17.2377 10.6938 17.1867 10.7979V10.7906Z" fill="white"/>
<path d="M13.8034 15.035C13.7138 14.9783 13.6809 14.9217 13.7138 14.823C13.722 14.7937 13.7275 14.7637 13.7303 14.7334C13.7303 14.2782 13.1819 13.75 12.7322 13.8651C12.7011 13.8686 12.6697 13.864 12.6409 13.8518C12.6121 13.8397 12.5869 13.8203 12.5677 13.7957C12.3081 13.3643 11.4198 13.3716 11.1821 13.7957C11.1755 13.813 11.1654 13.8288 11.1526 13.8422C11.1398 13.8557 11.1245 13.8664 11.1075 13.8739C11.0905 13.8814 11.0722 13.8854 11.0536 13.8858C11.0351 13.8862 11.0166 13.8829 10.9993 13.8761C10.5369 13.739 9.90258 14.3696 10.0214 14.8504C10.0248 14.8818 10.0205 14.9136 10.0087 14.9429C9.99688 14.9723 9.97802 14.9983 9.95376 15.0185C9.5242 15.2726 9.5242 16.1592 9.95376 16.4023C9.99069 16.4187 10.0197 16.449 10.0344 16.4867C10.0491 16.5243 10.0484 16.5663 10.0324 16.6034C9.90624 17.0567 10.5387 17.7001 11.0067 17.563C11.0413 17.5492 11.08 17.5498 11.1143 17.5645C11.1486 17.5792 11.1756 17.607 11.1894 17.6416C11.4234 18.0602 12.3063 18.0694 12.5567 17.6416C12.5721 17.6042 12.6017 17.5743 12.639 17.5586C12.6764 17.5428 12.7184 17.5424 12.756 17.5575C13.2038 17.6873 13.8418 17.0658 13.723 16.6052C13.7068 16.5656 13.7065 16.5212 13.7221 16.4814C13.7378 16.4416 13.7682 16.4093 13.807 16.3913C14.2128 16.1427 14.2128 15.2873 13.8034 15.035ZM13.5566 15.8758C13.5329 15.9928 13.4232 16.0129 13.3208 15.9983C13.2974 15.992 13.273 15.991 13.2491 15.9954C13.2253 15.9998 13.2028 16.0094 13.1832 16.0236C13.1636 16.0378 13.1474 16.0562 13.1358 16.0774C13.1242 16.0986 13.1174 16.1222 13.1161 16.1464C13.0868 16.2347 13.0514 16.3208 13.0101 16.4041C13.0862 16.5059 13.1478 16.6179 13.1929 16.7368C13.2057 16.799 13.1051 16.8904 13.0411 16.9562C12.9132 17.0878 12.8986 17.0823 12.5805 16.841C12.5327 16.8744 12.4803 16.9008 12.4251 16.9196C12.2423 16.9616 12.118 17.0311 12.1528 17.2559C12.1528 17.2998 12.0833 17.3894 12.0285 17.404C11.9279 17.4259 11.8238 17.4259 11.7232 17.404C11.6062 17.3821 11.5751 17.2779 11.5916 17.1719C11.608 17.0658 11.555 16.9891 11.4362 16.958C11.3442 16.9257 11.2544 16.8872 11.1675 16.8428C10.8421 17.0933 10.8293 17.0933 10.6191 16.8757C10.4893 16.735 10.4967 16.7039 10.7343 16.4315C10.692 16.3069 10.6426 16.1849 10.5862 16.066C10.5472 16.0227 10.4927 15.9964 10.4345 15.9928C10.2042 15.98 10.1603 15.938 10.1603 15.7059C10.1603 15.4737 10.2042 15.4189 10.4309 15.4225C10.4517 15.4262 10.473 15.4256 10.4936 15.4208C10.5141 15.416 10.5335 15.4071 10.5506 15.3946C10.5677 15.3822 10.582 15.3664 10.5929 15.3483C10.6037 15.3301 10.6108 15.31 10.6136 15.2891C10.6464 15.1863 10.6868 15.0861 10.7343 14.9893C10.4857 14.7005 10.482 14.6822 10.6374 14.5214C10.8202 14.3221 10.8385 14.3239 11.1511 14.5707L11.5678 14.3989C11.5678 14.3733 11.5678 14.3349 11.5678 14.3002C11.5806 14.026 11.6154 13.9949 11.895 13.9986C12.0888 13.9986 12.1528 14.0625 12.1436 14.2545C12.1436 14.3605 12.1601 14.4373 12.2771 14.4464C12.315 14.4527 12.3512 14.467 12.3831 14.4884C12.5147 14.5762 12.6207 14.5853 12.7249 14.4391C12.7382 14.4196 12.7557 14.4033 12.7759 14.3912C12.7962 14.3791 12.8189 14.3716 12.8424 14.3692C12.8658 14.3667 12.8896 14.3694 12.9119 14.3771C12.9342 14.3848 12.9546 14.3972 12.9717 14.4135C13.0462 14.466 13.1086 14.534 13.1545 14.6127C13.1652 14.6465 13.1688 14.6822 13.165 14.7174C13.1612 14.7527 13.1502 14.7867 13.1325 14.8175C13.087 14.8792 13.0329 14.934 12.9717 14.9802C13.0009 15.0405 13.0302 15.0862 13.0485 15.1355C13.1088 15.3037 13.1563 15.4774 13.414 15.428C13.4524 15.428 13.5383 15.4956 13.5475 15.5432C13.5728 15.6523 13.5759 15.7655 13.5566 15.8758Z" fill="white"/>
<path d="M15.6751 21.0909C15.6751 21.2536 15.5636 21.3559 15.3698 21.3577H13.6169C13.4231 21.3577 13.3079 21.2536 13.3134 21.0909C13.3189 20.9282 13.4249 20.835 13.6095 20.8331H15.379C15.4157 20.8288 15.4529 20.8322 15.4882 20.8431C15.5236 20.854 15.5562 20.8721 15.5841 20.8964C15.612 20.9207 15.6345 20.9505 15.6502 20.984C15.6659 21.0175 15.6743 21.0539 15.6751 21.0909Z" fill="white"/>
<path d="M14.4942 9.01917C14.2079 9.01882 13.9279 9.10359 13.6899 9.2627C13.4519 9.42181 13.2665 9.64809 13.1574 9.91278C13.0482 10.1775 13.0202 10.4686 13.077 10.7493C13.1337 11.0299 13.2725 11.2873 13.4759 11.4889C13.6792 11.6904 13.9379 11.827 14.219 11.8812C14.5001 11.9354 14.791 11.9048 15.0547 11.7933C15.3184 11.6818 15.5431 11.4945 15.7 11.255C15.857 11.0156 15.9393 10.7349 15.9364 10.4486C15.933 10.0683 15.7796 9.70477 15.5095 9.43706C15.2394 9.16934 14.8745 9.01915 14.4942 9.01917ZM14.485 11.3827C14.3048 11.3802 14.1294 11.3244 13.9808 11.2225C13.8322 11.1205 13.717 10.9769 13.6498 10.8097C13.5826 10.6425 13.5663 10.4591 13.603 10.2827C13.6397 10.1063 13.7277 9.9446 13.8561 9.81806C13.9844 9.69152 14.1472 9.60573 14.3242 9.57149C14.5011 9.53725 14.6842 9.55608 14.8505 9.62562C15.0167 9.69515 15.1587 9.81229 15.2586 9.9623C15.3585 10.1123 15.4118 10.2885 15.4118 10.4687C15.4089 10.7124 15.3099 10.9452 15.1364 11.1163C14.9628 11.2875 14.7288 11.3832 14.485 11.3827Z" fill="white"/>
<path d="M11.8894 14.7937C11.708 14.7905 11.5297 14.8413 11.3772 14.9397C11.2248 15.0381 11.1051 15.1797 11.0334 15.3464C10.9617 15.5131 10.9412 15.6973 10.9746 15.8757C11.008 16.0541 11.0937 16.2184 11.2208 16.3479C11.348 16.4774 11.5108 16.5661 11.6885 16.6027C11.8662 16.6393 12.0508 16.6222 12.2188 16.5535C12.3868 16.4849 12.5305 16.3678 12.6317 16.2171C12.7328 16.0665 12.7869 15.8892 12.7869 15.7077C12.787 15.4681 12.6929 15.2381 12.5251 15.0672C12.3572 14.8962 12.1289 14.798 11.8894 14.7937ZM11.8583 16.1062C11.7808 16.1044 11.7055 16.0797 11.642 16.0351C11.5785 15.9906 11.5295 15.9283 11.5013 15.8561C11.4732 15.7838 11.467 15.7048 11.4836 15.629C11.5003 15.5533 11.5389 15.4841 11.5948 15.4303C11.6507 15.3765 11.7212 15.3404 11.7975 15.3266C11.8738 15.3128 11.9525 15.3218 12.0237 15.3527C12.0949 15.3835 12.1554 15.4347 12.1975 15.4998C12.2396 15.565 12.2615 15.6411 12.2605 15.7187C12.2605 15.7712 12.25 15.8233 12.2298 15.8717C12.2095 15.9202 12.1798 15.9642 12.1424 16.0011C12.1049 16.038 12.0606 16.0671 12.0118 16.0867C11.963 16.1063 11.9109 16.1161 11.8583 16.1153V16.1062Z" fill="white"/>
</svg>
