<svg width="24" height="24" viewBox="0 0 24 24" fill="none" xmlns="http://www.w3.org/2000/svg">
<path d="M12 24C5.37239 24 0 18.6276 0 12C0 5.37238 5.37239 0 12 0C18.6276 0 24 5.37238 24 12C24 18.6276 18.6276 24 12 24ZM12 1.30544C6.12552 1.30544 1.30544 6.12552 1.30544 12C1.30544 17.8745 6.12552 22.6946 12 22.6946C17.8745 22.6946 22.6946 17.8745 22.6946 12C22.6946 6.12552 17.8745 1.30544 12 1.30544Z" fill="white"/>
<path d="M11.749 18.8787L10.8452 17.9247L16.7197 12L10.8452 6.07533L11.749 5.12134L18.6276 12L11.749 18.8787Z" fill="white"/>
<path d="M17.6736 12.703H5.62341V11.2971H17.6736V12.703Z" fill="white"/>
</svg>
