<svg width="29" height="29" viewBox="0 0 29 29" fill="none" xmlns="http://www.w3.org/2000/svg">
<circle cx="14.0781" cy="14.5018" r="12.8539" fill="#343391"/>
<path d="M0.238716 14.5141C0.238716 14.204 0.248916 13.902 0.269319 13.5858L0.0306034 13.5695C0.0102003 13.8816 0 14.1999 0 14.5141V14.5304H0.238716V14.5141Z" fill="#343391"/>
<path d="M6.87585 2.68841L6.74935 2.48438C6.47799 2.64964 6.20867 2.82919 5.94751 3.01281L6.08625 3.21685C6.34333 3.0271 6.60857 2.84551 6.87585 2.68841Z" fill="#343391"/>
<path d="M12.1766 0.805279L12.144 0.568604C11.8277 0.61145 11.5094 0.666538 11.1973 0.731828L11.2462 0.966464C11.5523 0.890972 11.8665 0.837924 12.1766 0.805279Z" fill="#343391"/>
<path d="M10.3281 1.18063L10.2628 0.950073C9.9547 1.03577 9.65069 1.13574 9.34668 1.24184L9.42625 1.46831C9.7221 1.36222 10.0261 1.26632 10.3281 1.18063Z" fill="#343391"/>
<path d="M5.3333 3.78186L5.18232 3.59619C4.93544 3.80022 4.69264 4.00425 4.45801 4.22869L4.62327 4.40415C4.84771 4.18788 5.0905 3.97977 5.3333 3.78186Z" fill="#343391"/>
<path d="M3.95411 5.0735L3.78068 4.91028C3.56237 5.14287 3.35018 5.38771 3.14819 5.63663L3.33386 5.78557C3.53177 5.54277 3.73988 5.29386 3.95411 5.0735Z" fill="#343391"/>
<path d="M0.522285 11.7126L0.287648 11.6656C0.224398 11.9778 0.169311 12.2961 0.126465 12.6124L0.35906 12.6389C0.405987 12.3349 0.459035 12.0268 0.522285 11.7126Z" fill="#343391"/>
<path d="M1.02832 9.89268L0.803883 9.81311C0.695747 10.113 0.599853 10.4252 0.51416 10.7312L0.744716 10.7945C0.828369 10.4925 0.924263 10.1906 1.02832 9.89268Z" fill="#343391"/>
<path d="M1.78739 8.15034L1.58335 8.04016C1.43645 8.32376 1.29771 8.61757 1.17529 8.91137L1.39565 9.00523C1.4997 8.72366 1.6364 8.43598 1.78739 8.15034Z" fill="#343391"/>
<path d="M2.76266 6.5406L2.55863 6.40186C2.375 6.66301 2.19749 6.93438 2.03223 7.21798L2.23626 7.34244C2.39948 7.06292 2.58107 6.79768 2.76266 6.5406Z" fill="#343391"/>
<path d="M15.9797 0.549996C15.6635 0.507149 15.3432 0.476545 15.0228 0.454102L15.0085 0.692818C15.3207 0.713221 15.637 0.745865 15.9491 0.786672L15.9797 0.549996Z" fill="#343391"/>
<path d="M24.1919 5.04077L24.3674 4.87754C24.1491 4.64291 23.9185 4.41643 23.6859 4.19812L23.5227 4.37359C23.7533 4.58578 23.9777 4.81225 24.1919 5.04077Z" fill="#343391"/>
<path d="M26.5873 8.00352C26.4404 7.72196 26.2812 7.44039 26.1139 7.16699L25.9099 7.29145C26.0731 7.56077 26.2302 7.83621 26.3751 8.10757L26.5873 8.00352Z" fill="#343391"/>
<path d="M14.0618 0.664462V0.423706C13.7415 0.423706 13.4191 0.435948 13.1008 0.458391L13.1171 0.697107C13.4293 0.674664 13.7476 0.664462 14.0618 0.664462Z" fill="#343391"/>
<path d="M27.9034 13.5326L28.1421 13.5162C28.1196 13.1979 28.0849 12.8756 28.0421 12.5593L27.8054 12.592C27.8503 12.9021 27.883 13.2204 27.9034 13.5326Z" fill="#343391"/>
<path d="M27.8787 11.6188C27.8135 11.3066 27.7359 10.9924 27.6502 10.6843L27.4197 10.7496C27.5054 11.0516 27.5809 11.3617 27.6441 11.6678L27.8787 11.6188Z" fill="#343391"/>
<path d="M25.5833 6.36497C25.3997 6.10381 25.2018 5.84673 24.9998 5.59985L24.8162 5.75084C25.0202 5.99363 25.2079 6.24663 25.3895 6.50371L25.5833 6.36497Z" fill="#343391"/>
<path d="M17.8628 0.935859C17.5568 0.850166 17.2405 0.774675 16.9283 0.711426L16.8855 0.944021C17.1936 1.00727 17.4976 1.08276 17.8057 1.16641L17.8628 0.935859Z" fill="#343391"/>
<path d="M22.9596 3.56782C22.7107 3.36379 22.4536 3.16996 22.1925 2.98633L22.0537 3.19036C22.3108 3.37195 22.5658 3.56374 22.8086 3.76165L22.9596 3.56782Z" fill="#343391"/>
<path d="M0.271434 15.475L0.0327148 15.4933C0.0551582 15.8116 0.0878043 16.134 0.132691 16.4482L0.369367 16.4156C0.326521 16.1075 0.293877 15.7892 0.271434 15.475Z" fill="#343391"/>
<path d="M19.6767 1.5764C19.3849 1.4499 19.083 1.33156 18.781 1.22546L18.7014 1.4499C18.9973 1.55395 19.2931 1.67025 19.5828 1.79471L19.6767 1.5764Z" fill="#343391"/>
<path d="M21.3865 2.45996C21.1131 2.29469 20.8315 2.13555 20.5479 1.98865L20.4377 2.19268C20.7173 2.33754 20.9947 2.4926 21.2539 2.65583L21.3865 2.45996Z" fill="#343391"/>
<path d="M8.54896 1.82525L8.45307 1.60693C8.1613 1.73343 7.86954 1.87421 7.58594 2.015L7.69815 2.21903C7.97563 2.07824 8.26128 1.94154 8.54896 1.82525Z" fill="#343391"/>
<path d="M22.8311 25.2562L22.982 25.4419C23.2289 25.2379 23.4717 25.0338 23.7063 24.8094L23.5431 24.636C23.3126 24.8502 23.0739 25.0583 22.8311 25.2562Z" fill="#343391"/>
<path d="M24.2102 23.9667L24.3857 24.1299C24.604 23.8974 24.8162 23.6525 25.0182 23.4056L24.8427 23.2485C24.6387 23.4975 24.4346 23.7362 24.2102 23.9667Z" fill="#343391"/>
<path d="M19.6135 27.2169L19.7074 27.4373C20.0012 27.3087 20.2929 27.17 20.5745 27.0292L20.4643 26.8252C20.1869 26.9558 19.8992 27.0925 19.6135 27.2169Z" fill="#343391"/>
<path d="M21.2886 26.3479L21.413 26.5519C21.6844 26.3846 21.9558 26.2071 22.2149 26.0235L22.0782 25.8195C21.8211 26.0092 21.5559 26.1847 21.2886 26.3479Z" fill="#343391"/>
<path d="M25.4058 22.4997L25.5996 22.6384C25.7853 22.3773 25.9628 22.1059 26.128 21.8345L25.924 21.7101C25.7608 21.9774 25.5873 22.2426 25.4058 22.4997Z" fill="#343391"/>
<path d="M27.0015 8.87036L26.7832 8.96626C26.9097 9.2519 27.026 9.54774 27.1321 9.84359L27.3565 9.76198C27.2504 9.46205 27.1301 9.17029 27.0015 8.87036Z" fill="#343391"/>
<path d="M28.1786 14.4753H27.9378V14.5121C27.9378 14.8263 27.9276 15.1446 27.9072 15.4567L28.1459 15.4731C28.1663 15.1548 28.1786 14.8304 28.1786 14.5121V14.4753Z" fill="#343391"/>
<path d="M0.295898 17.397C0.361188 17.7092 0.436679 18.0234 0.524412 18.3315L0.752925 18.2662C0.669273 17.9642 0.593783 17.6541 0.528493 17.348L0.295898 17.397Z" fill="#343391"/>
<path d="M27.6523 17.3316L27.887 17.3806C27.9502 17.0684 28.0053 16.7501 28.0482 16.4339L27.8115 16.4012C27.7686 16.7195 27.7156 17.0235 27.6523 17.3316Z" fill="#343391"/>
<path d="M27.1443 19.1495L27.3687 19.2311C27.4748 18.9292 27.5727 18.6191 27.6584 18.313L27.4299 18.2498C27.3442 18.5558 27.2483 18.8537 27.1443 19.1495Z" fill="#343391"/>
<path d="M17.8342 27.8516L17.8975 28.0821C18.2056 27.9944 18.5096 27.8964 18.8156 27.7903L18.734 27.5659C18.4382 27.67 18.1362 27.7659 17.8342 27.8516Z" fill="#343391"/>
<path d="M26.3894 20.8859L26.5934 20.9961C26.7403 20.7125 26.8791 20.4187 27.0015 20.1269L26.7811 20.031C26.6791 20.3187 26.5343 20.6064 26.3894 20.8859Z" fill="#343391"/>
<path d="M5.20483 25.448C5.45171 25.652 5.71083 25.8458 5.97199 26.0295L6.10869 25.8254C5.85365 25.6459 5.59861 25.4541 5.35581 25.2542L5.20483 25.448Z" fill="#343391"/>
<path d="M3.9725 23.9728L3.79907 24.136C4.01739 24.3686 4.2459 24.5992 4.4785 24.8154L4.64172 24.642C4.41321 24.4278 4.18673 24.2033 3.9725 23.9728Z" fill="#343391"/>
<path d="M2.58301 22.6466C2.76868 22.9077 2.96455 23.1648 3.16654 23.4117L3.35017 23.2607C3.14613 23.0179 2.96047 22.7649 2.77888 22.5099L2.58301 22.6466Z" fill="#343391"/>
<path d="M0.816162 19.2477C0.922258 19.5476 1.0406 19.8475 1.16913 20.1413L1.38745 20.0454C1.26299 19.7577 1.14465 19.4619 1.04059 19.1681L0.816162 19.2477Z" fill="#343391"/>
<path d="M1.58325 21.0042C1.73015 21.2858 1.8893 21.5673 2.05456 21.8407L2.25859 21.7163C2.09537 21.447 1.9403 21.1715 1.79544 20.9001L1.58325 21.0042Z" fill="#343391"/>
<path d="M8.48364 27.4435C8.77745 27.57 9.07941 27.6904 9.38138 27.7965L9.46095 27.57C9.1651 27.4659 8.86722 27.3496 8.57954 27.2231L8.48364 27.4435Z" fill="#343391"/>
<path d="M6.77588 26.5579C7.04928 26.7232 7.33084 26.8823 7.61444 27.0292L7.72462 26.8252C7.4451 26.6803 7.16762 26.5253 6.9085 26.3621L6.77588 26.5579Z" fill="#343391"/>
<path d="M14.0986 28.3637V28.6024C14.419 28.6024 14.7413 28.5902 15.0596 28.5698L15.0433 28.3311C14.7311 28.3494 14.4128 28.3637 14.0986 28.3637Z" fill="#343391"/>
<path d="M12.1807 28.4737C12.4949 28.5166 12.8172 28.5492 13.1376 28.5696L13.1539 28.333C12.8397 28.3105 12.5234 28.2799 12.2113 28.2371L12.1807 28.4737Z" fill="#343391"/>
<path d="M15.9836 28.235L16.0163 28.4717C16.3325 28.4289 16.6508 28.3738 16.963 28.3085L16.914 28.0739C16.608 28.1453 16.2938 28.1922 15.9836 28.235Z" fill="#343391"/>
<path d="M10.2974 28.0861C10.6054 28.1718 10.9197 28.2473 11.2318 28.3126L11.2808 28.078C10.9727 28.0147 10.6687 27.9392 10.3606 27.8556L10.2974 28.0861Z" fill="#343391"/>
<path d="M18.032 14.5127C17.929 14.3272 17.7768 14.1737 17.592 14.0693C17.4073 13.9649 17.1973 13.9136 16.9853 13.921H16.4344C16.4344 13.8782 16.4344 13.8517 16.4344 13.8252C16.4119 13.5339 16.2806 13.2619 16.0666 13.063C15.8526 12.8642 15.5717 12.7531 15.2796 12.752C13.9044 12.752 12.5279 12.752 11.15 12.752C10.8782 12.7532 10.6157 12.8516 10.4099 13.0293C10.2042 13.207 10.0687 13.4523 10.0278 13.7211C10.006 13.9189 9.99852 14.118 10.0054 14.3169C10.0054 15.6308 10.0054 16.9448 10.0054 18.2587V18.2832C9.99902 18.3438 10.0127 18.4048 10.0445 18.4568C10.0762 18.5087 10.1241 18.5489 10.1809 18.5709C10.2368 18.5963 10.2994 18.6029 10.3594 18.5897C10.4194 18.5764 10.4734 18.5441 10.5134 18.4975C10.8399 18.169 11.1684 17.8425 11.4928 17.51C11.5223 17.472 11.5631 17.4444 11.6093 17.4312C11.6555 17.418 11.7048 17.4199 11.7499 17.4365C11.7539 17.4485 11.7573 17.4608 11.7601 17.4732C11.7655 17.6289 11.8021 17.7819 11.8677 17.9231C11.9334 18.0643 12.0267 18.1909 12.1422 18.2954C12.2577 18.3999 12.393 18.4801 12.5401 18.5313C12.6872 18.5824 12.8431 18.6036 12.9985 18.5934H16.4956C16.5318 18.5912 16.5681 18.5972 16.6016 18.6109C16.6352 18.6247 16.6652 18.6459 16.6894 18.6729C16.9078 18.8974 17.1281 19.1157 17.3485 19.336C17.4688 19.4564 17.5831 19.5768 17.7055 19.691C17.7457 19.7318 17.798 19.7585 17.8545 19.7673C17.9111 19.7761 17.969 19.7666 18.0197 19.74C18.0707 19.7188 18.114 19.6827 18.1442 19.6365C18.1744 19.5903 18.1901 19.5361 18.1891 19.4809V19.3748C18.1891 18.0057 18.1891 16.6367 18.1891 15.2677C18.2078 15.0063 18.1534 14.7449 18.032 14.5127ZM11.5417 16.8448C11.4759 16.8418 11.4102 16.8532 11.3493 16.8783C11.2883 16.9033 11.2335 16.9413 11.1888 16.9897C10.999 17.1937 10.8011 17.3835 10.6073 17.5793H10.5767V17.4549C10.5767 16.3 10.5767 15.1439 10.5767 13.9863C10.5668 13.8985 10.5767 13.8095 10.6057 13.7259C10.6347 13.6424 10.682 13.5664 10.7443 13.5035C10.8065 13.4407 10.8821 13.3926 10.9653 13.3628C11.0486 13.333 11.1375 13.3223 11.2255 13.3314H15.1776C15.6162 13.3314 15.8448 13.564 15.8448 14.0067V16.2021C15.8534 16.2891 15.8425 16.3769 15.8131 16.4592C15.7836 16.5415 15.7362 16.6162 15.6743 16.6779C15.6124 16.7396 15.5375 16.7867 15.4551 16.816C15.3728 16.8452 15.2849 16.8557 15.198 16.8469C13.982 16.8469 12.7618 16.8489 11.5417 16.8448ZM17.6035 15.743V18.7688C17.4097 18.5648 17.226 18.4138 17.0649 18.2302C17.0018 18.1544 16.9214 18.095 16.8305 18.057C16.7395 18.019 16.6407 18.0035 16.5425 18.0119C15.3449 18.0119 14.1493 18.0119 12.9516 18.0119C12.8719 18.0164 12.7922 18.0044 12.7174 17.9766C12.6426 17.9489 12.5743 17.906 12.5168 17.8507C12.4594 17.7953 12.414 17.7287 12.3834 17.6549C12.3529 17.5812 12.338 17.502 12.3395 17.4222H15.2225C15.3819 17.4282 15.5408 17.4013 15.6894 17.3432C15.838 17.2851 15.9731 17.197 16.0862 17.0845C16.1993 16.972 16.288 16.8374 16.3469 16.6891C16.4057 16.5408 16.4334 16.382 16.4283 16.2225C16.4283 15.6961 16.4283 15.1718 16.4283 14.6454V14.4964C16.7037 14.5148 16.9792 14.4434 17.2444 14.5474C17.3526 14.587 17.4454 14.6599 17.5096 14.7556C17.5737 14.8513 17.6059 14.9648 17.6015 15.0799C17.6096 15.2983 17.6035 15.5207 17.6035 15.743Z" fill="white"/>
<path d="M16.1348 9.77529C16.1341 9.45247 16.0621 9.13379 15.9238 8.84208C15.7855 8.55037 15.5845 8.29285 15.335 8.08796C15.3143 8.07445 15.2925 8.06284 15.2697 8.05327C15.4847 7.75516 15.5809 7.38759 15.5394 7.02237C15.4979 6.65715 15.3217 6.32053 15.0453 6.07826C14.7767 5.84924 14.4344 5.72505 14.0814 5.72859C13.7285 5.73213 13.3887 5.86316 13.1248 6.09752C12.8608 6.33188 12.6905 6.65376 12.6453 7.00381C12.6 7.35387 12.6828 7.70848 12.8785 8.00227C12.7744 8.12264 12.6744 8.22874 12.5867 8.34096C12.4946 8.4564 12.4101 8.57771 12.3337 8.70413C12.0783 9.17891 11.9838 9.72374 12.0644 10.2568C12.0913 10.455 12.1885 10.637 12.3383 10.7696C12.488 10.9021 12.6805 10.9765 12.8805 10.9791C13.6864 10.9791 14.4944 10.9791 15.3003 10.9791C15.5171 10.9742 15.724 10.8872 15.8793 10.7357C16.0345 10.5843 16.1266 10.3796 16.1368 10.163C16.1389 10.0405 16.1368 9.91199 16.1348 9.77529ZM14.0945 6.30677C14.269 6.30677 14.4396 6.35857 14.5846 6.4556C14.7296 6.55264 14.8426 6.69054 14.9092 6.85183C14.9758 7.01313 14.993 7.19056 14.9587 7.36165C14.9243 7.53273 14.84 7.68978 14.7163 7.81288C14.5926 7.93599 14.4352 8.01961 14.2639 8.05316C14.0927 8.0867 13.9153 8.06866 13.7543 8.00133C13.5934 7.93399 13.456 7.82038 13.3596 7.6749C13.2633 7.52941 13.2123 7.3586 13.2131 7.1841C13.2162 6.95206 13.31 6.73044 13.4743 6.56653C13.6386 6.40263 13.8604 6.30941 14.0924 6.30677H14.0945ZM15.5594 10.1079C15.5601 10.1492 15.5522 10.1902 15.5361 10.2283C15.5199 10.2664 15.496 10.3007 15.4658 10.3289C15.4356 10.3572 15.3999 10.3788 15.3608 10.3924C15.3218 10.406 15.2803 10.4112 15.2391 10.4078H12.9458C12.9087 10.4126 12.871 10.4099 12.835 10.3998C12.799 10.3896 12.7653 10.3723 12.7362 10.3489C12.707 10.3254 12.6829 10.2963 12.6653 10.2633C12.6477 10.2303 12.6369 10.1941 12.6336 10.1568C12.5662 9.68833 12.6784 9.21166 12.9478 8.82247C12.9907 8.76534 13.0376 8.71433 13.0825 8.66129C13.1068 8.62073 13.1389 8.5854 13.177 8.55735C13.215 8.52931 13.2583 8.5091 13.3042 8.4979C13.3501 8.4867 13.3978 8.48473 13.4445 8.49212C13.4912 8.4995 13.536 8.51608 13.5762 8.54091C13.7618 8.62507 13.9646 8.66414 14.1682 8.65492C14.3717 8.6457 14.5702 8.58846 14.7474 8.48786C14.7743 8.46968 14.8067 8.46137 14.839 8.46435C14.8714 8.46732 14.9017 8.4814 14.9249 8.50418C15.1223 8.65834 15.282 8.85556 15.3916 9.0808C15.5012 9.30605 15.5579 9.55336 15.5574 9.80386C15.5626 9.90649 15.5626 10.0093 15.5574 10.1119L15.5594 10.1079Z" fill="white"/>
<path d="M9.27918 18.1221C9.13865 17.7246 8.88733 17.3756 8.55487 17.1162C8.71127 16.8986 8.80494 16.6422 8.82571 16.3749C8.84648 16.1077 8.79353 15.8399 8.67264 15.6007C8.55175 15.3615 8.36754 15.16 8.14008 15.0182C7.91262 14.8765 7.65062 14.7998 7.38261 14.7966C7.1146 14.7934 6.85085 14.8638 6.62008 15.0001C6.3893 15.1365 6.20036 15.3335 6.0738 15.5698C5.94725 15.806 5.88795 16.0725 5.90235 16.3401C5.91674 16.6078 6.0043 16.8663 6.15547 17.0877C5.98612 17.2917 5.80657 17.4753 5.66375 17.6855C5.36488 18.1677 5.24701 18.7404 5.33118 19.3014C5.35329 19.5043 5.44813 19.6924 5.59816 19.8308C5.74819 19.9692 5.94326 20.0486 6.1473 20.0543C6.22892 20.0543 6.31053 20.0543 6.39214 20.0543C7.09401 20.0543 7.79588 20.0543 8.49774 20.0543C8.71484 20.0655 8.92802 19.9934 9.09374 19.8527C9.25946 19.712 9.3652 19.5134 9.38935 19.2973C9.44137 18.9023 9.40371 18.5006 9.27918 18.1221ZM7.37557 15.3779C7.54954 15.3799 7.71901 15.4334 7.86265 15.5315C8.0063 15.6297 8.11768 15.7682 8.18277 15.9295C8.24786 16.0908 8.26374 16.2678 8.22843 16.4382C8.19311 16.6085 8.10816 16.7646 7.9843 16.8868C7.86043 17.009 7.70318 17.0917 7.53235 17.1247C7.36152 17.1577 7.18477 17.1393 7.02434 17.072C6.86391 17.0047 6.72699 16.8914 6.63083 16.7464C6.53467 16.6015 6.48356 16.4313 6.48395 16.2573C6.48421 16.1408 6.50755 16.0256 6.5526 15.9182C6.59765 15.8109 6.66353 15.7135 6.74644 15.6317C6.82934 15.5499 6.92762 15.4854 7.0356 15.4419C7.14359 15.3983 7.25914 15.3766 7.37557 15.3779ZM8.83031 19.1443C8.83547 19.1893 8.83044 19.2349 8.81558 19.2777C8.80072 19.3205 8.77643 19.3594 8.74449 19.3916C8.71254 19.4237 8.67378 19.4483 8.63106 19.4634C8.58835 19.4785 8.54279 19.4838 8.49774 19.4789H6.42682C5.94123 19.4789 5.90043 19.434 5.89839 18.9423C5.88347 18.5776 5.99122 18.2184 6.20443 17.9222C6.3091 17.7923 6.42592 17.6728 6.55332 17.5651C6.57265 17.5531 6.59451 17.5457 6.61717 17.5436C6.63984 17.5415 6.66268 17.5447 6.6839 17.5529C6.89314 17.664 7.12642 17.7221 7.36332 17.7221C7.60023 17.7221 7.83352 17.664 8.04275 17.5529C8.06631 17.54 8.09345 17.5352 8.12 17.5393C8.14654 17.5433 8.17102 17.556 8.18965 17.5753C8.37934 17.7199 8.53475 17.9046 8.64479 18.1162C8.75483 18.3279 8.81678 18.5612 8.82623 18.7995C8.83439 18.9117 8.83031 19.028 8.83031 19.1443Z" fill="white"/>
<path d="M22.8595 18.8076C22.8532 18.4952 22.7798 18.1877 22.6442 17.9061C22.5087 17.6245 22.3142 17.3753 22.074 17.1754C22.0516 17.157 22.025 17.1407 22.0046 17.1264C22.162 16.9075 22.2559 16.6495 22.276 16.3807C22.2961 16.112 22.2417 15.8428 22.1187 15.603C21.9958 15.3631 21.809 15.1618 21.579 15.0213C21.349 14.8808 21.0847 14.8064 20.8151 14.8064C20.5456 14.8064 20.2813 14.8808 20.0513 15.0213C19.8213 15.1618 19.6345 15.3631 19.5116 15.603C19.3886 15.8428 19.3342 16.112 19.3543 16.3807C19.3744 16.6495 19.4683 16.9075 19.6256 17.1264L19.54 17.2019C19.2813 17.4236 19.0786 17.7032 18.9483 18.018C18.8119 18.3799 18.7521 18.7662 18.7728 19.1524C18.7669 19.2747 18.7868 19.3969 18.831 19.5111C18.8752 19.6252 18.9428 19.7289 19.0294 19.8154C19.1161 19.9019 19.2199 19.9692 19.3342 20.0132C19.4485 20.0571 19.5707 20.0767 19.693 20.0706H21.8679C21.9332 20.0706 22.0006 20.0706 22.072 20.0706C22.2621 20.0574 22.4422 19.9802 22.583 19.8517C22.7238 19.7231 22.8169 19.5508 22.8473 19.3626C22.8701 19.1785 22.8742 18.9925 22.8595 18.8076ZM20.8192 15.3779C20.9938 15.3787 21.1642 15.4313 21.3088 15.5291C21.4535 15.6269 21.5658 15.7655 21.6315 15.9272C21.6973 16.0889 21.7136 16.2665 21.6783 16.4375C21.643 16.6085 21.5577 16.7651 21.4333 16.8876C21.3088 17.01 21.1508 17.0927 20.9793 17.1253C20.8077 17.1578 20.6304 17.1386 20.4698 17.0702C20.3091 17.0018 20.1724 16.8873 20.077 16.7411C19.9816 16.5949 19.9317 16.4236 19.9337 16.2491C19.9364 16.0157 20.0316 15.7928 20.1984 15.6295C20.3651 15.4662 20.5899 15.3757 20.8233 15.3779H20.8192ZM22.2821 19.1606C22.285 19.2037 22.2785 19.2469 22.263 19.2872C22.2474 19.3274 22.2232 19.3638 22.1921 19.3938C22.161 19.4237 22.1237 19.4465 22.0829 19.4605C22.042 19.4745 21.9986 19.4794 21.9557 19.4748H19.7113C19.4645 19.4748 19.3604 19.3646 19.3543 19.1177C19.3266 18.7667 19.3928 18.4146 19.5461 18.0976C19.6557 17.8852 19.8128 17.7009 20.0051 17.559C20.0245 17.5411 20.0492 17.5302 20.0755 17.528C20.1017 17.5257 20.1279 17.5323 20.15 17.5467C20.3559 17.6557 20.5853 17.7127 20.8182 17.7127C21.0511 17.7127 21.2805 17.6557 21.4864 17.5467C21.5102 17.531 21.5386 17.5237 21.5671 17.5259C21.5955 17.5281 21.6224 17.5398 21.6435 17.559C21.8339 17.7031 21.9899 17.8876 22.1003 18.0993C22.2108 18.311 22.2729 18.5446 22.2821 18.7831C22.2882 18.9158 22.2862 19.0402 22.2821 19.1606Z" fill="white"/>
<path d="M19.0359 21.3478C18.8114 21.5376 18.5911 21.7314 18.3544 21.9007C17.1164 22.7882 15.6337 23.2701 14.1105 23.28C12.2876 23.2892 10.5282 22.611 9.1832 21.3805C9.12144 21.328 9.07316 21.2616 9.04242 21.1866C9.02322 21.1263 9.02554 21.0612 9.04899 21.0024C9.07243 20.9436 9.11554 20.8948 9.17096 20.8643C9.22682 20.8316 9.2919 20.8183 9.35609 20.8264C9.42028 20.8345 9.48 20.8636 9.52597 20.9091C9.87285 21.2005 10.2352 21.4729 10.6114 21.7253C11.841 22.4723 13.2782 22.8044 14.7109 22.6725C16.1437 22.5407 17.496 21.9518 18.5686 20.9928L18.6482 20.9214C18.6761 20.8923 18.7098 20.8695 18.7472 20.8546C18.7846 20.8397 18.8248 20.833 18.865 20.8349C18.9053 20.8369 18.9446 20.8474 18.9804 20.8658C19.0162 20.8843 19.0476 20.9102 19.0726 20.9418C19.0983 20.9702 19.1178 21.0036 19.1299 21.0399C19.142 21.0763 19.1465 21.1147 19.1431 21.1528C19.1396 21.191 19.1283 21.228 19.1099 21.2615C19.0914 21.2951 19.0662 21.3245 19.0359 21.3478Z" fill="white"/>
<path d="M10.9685 10.0038C10.4982 10.2514 10.0585 10.5534 9.65867 10.9036C8.74967 11.6973 8.07396 12.7236 7.70406 13.8722C7.68978 13.9151 7.67345 13.96 7.65713 14.0048C7.63372 14.0639 7.59077 14.1131 7.53544 14.1443C7.48011 14.1755 7.41576 14.1868 7.35312 14.1762C7.17358 14.1762 7.05116 14.0048 7.12053 13.7845C7.29137 13.229 7.52983 12.6965 7.83056 12.1992C8.51582 11.0593 9.49923 10.1281 10.6747 9.50596C10.7272 9.46766 10.7904 9.44702 10.8553 9.44702C10.9202 9.44702 10.9835 9.46766 11.0359 9.50596C11.0762 9.53705 11.1077 9.57823 11.1271 9.62535C11.1465 9.67247 11.1531 9.72387 11.1462 9.77436C11.1394 9.82485 11.1194 9.87265 11.0882 9.91293C11.057 9.95321 11.0157 9.98456 10.9685 10.0038Z" fill="white"/>
<path d="M21.0865 13.8559C21.0923 13.9272 21.0715 13.9981 21.0282 14.0549C20.9849 14.1118 20.9221 14.1507 20.8519 14.164C20.7829 14.1822 20.7095 14.1725 20.6477 14.1369C20.5858 14.1014 20.5404 14.043 20.5213 13.9743C20.4316 13.7335 20.354 13.4887 20.25 13.254C19.6464 11.864 18.587 10.7211 17.2466 10.014C17.1952 9.99529 17.1495 9.9637 17.1138 9.92227C17.0781 9.88084 17.0536 9.83095 17.0426 9.77736C17.0343 9.72478 17.0406 9.67094 17.0608 9.62167C17.0809 9.5724 17.1141 9.52958 17.1569 9.49784C17.2023 9.46305 17.2571 9.44271 17.3142 9.43943C17.3713 9.43616 17.4281 9.45011 17.4772 9.47948C17.958 9.73068 18.4091 10.0352 18.8217 10.3874C19.8605 11.2678 20.6323 12.4212 21.0498 13.7172C21.0661 13.7784 21.0783 13.8355 21.0865 13.8559Z" fill="white"/>
<path d="M14.6737 15.0799C14.6751 15.1181 14.6687 15.1562 14.6549 15.1918C14.6411 15.2274 14.6202 15.2599 14.5935 15.2872C14.5668 15.3144 14.5348 15.336 14.4995 15.3506C14.4642 15.3651 14.4263 15.3723 14.3881 15.3717C14.3484 15.3751 14.3084 15.3701 14.2708 15.3573C14.2331 15.3444 14.1985 15.3238 14.1692 15.2969C14.1399 15.2699 14.1165 15.2372 14.1004 15.2007C14.0844 15.1643 14.0762 15.1249 14.0762 15.085C14.0762 15.0452 14.0844 15.0058 14.1004 14.9694C14.1165 14.9329 14.1399 14.9002 14.1692 14.8732C14.1985 14.8463 14.2331 14.8257 14.2708 14.8128C14.3084 14.8 14.3484 14.795 14.3881 14.7984C14.4254 14.7978 14.4624 14.8047 14.4971 14.8186C14.5317 14.8325 14.5632 14.8532 14.5898 14.8794C14.6164 14.9056 14.6375 14.9368 14.6519 14.9712C14.6663 15.0057 14.6737 15.0426 14.6737 15.0799Z" fill="white"/>
<path d="M12.3334 15.0801C12.3354 15.1375 12.3203 15.1942 12.29 15.243C12.2597 15.2919 12.2155 15.3306 12.1632 15.3542C12.1108 15.3779 12.0526 15.3854 11.9959 15.3759C11.9392 15.3664 11.8867 15.3402 11.8449 15.3008C11.8031 15.2613 11.774 15.2103 11.7613 15.1543C11.7486 15.0982 11.7529 15.0397 11.7735 14.9861C11.7942 14.9324 11.8303 14.8862 11.8773 14.8531C11.9243 14.8201 11.9801 14.8018 12.0376 14.8005C12.0756 14.7986 12.1135 14.8044 12.1492 14.8175C12.1849 14.8307 12.2176 14.851 12.2452 14.8771C12.2729 14.9032 12.2949 14.9347 12.3101 14.9695C12.3253 15.0044 12.3332 15.042 12.3334 15.0801Z" fill="white"/>
<path d="M13.5027 15.1045C13.502 15.1416 13.4937 15.1781 13.4785 15.2119C13.4633 15.2457 13.4414 15.2761 13.4142 15.3013C13.3869 15.3264 13.3549 15.3458 13.3199 15.3583C13.285 15.3707 13.248 15.376 13.2109 15.3738C13.154 15.3725 13.0989 15.3542 13.0524 15.3213C13.006 15.2884 12.9704 15.2424 12.9503 15.1892C12.9302 15.136 12.9265 15.0779 12.9395 15.0226C12.9526 14.9672 12.982 14.917 13.0238 14.8784C13.0656 14.8398 13.118 14.8145 13.1742 14.8059C13.2305 14.7973 13.288 14.8057 13.3395 14.83C13.3909 14.8543 13.434 14.8934 13.4631 14.9423C13.4921 14.9912 13.5059 15.0477 13.5027 15.1045Z" fill="white"/>
</svg>
