<svg width="26" height="26" viewBox="0 0 26 26" fill="none" xmlns="http://www.w3.org/2000/svg">
<path d="M6.83306 25.5872C5.83985 25.5761 4.85598 25.3939 3.92464 25.0487C3.24454 24.7973 2.62921 24.3971 2.12365 23.8773C1.60248 23.3728 1.20168 22.7573 0.95102 22.0766C0.606066 21.1453 0.424162 20.1615 0.413291 19.1684C0.337012 17.5175 0.321655 17.0223 0.321655 12.839C0.321655 8.65578 0.338522 8.16235 0.412536 6.51015C0.424726 5.51746 0.606854 4.53419 0.95102 3.60299C1.2029 2.92277 1.60313 2.3072 2.12264 1.80099C2.62758 1.28029 3.24319 0.879857 3.92389 0.629364C4.85523 0.284124 5.8391 0.101964 6.8323 0.0908802C8.48376 0.0153565 8.9797 0 13.1607 0C17.3417 0 17.8374 0.016867 19.4896 0.0908802C20.4825 0.102984 21.4661 0.285114 22.3975 0.629364C23.0779 0.880188 23.6933 1.28048 24.1985 1.80074C24.7189 2.30605 25.1194 2.92166 25.3704 3.60223C25.7157 4.53356 25.8979 5.51743 25.9091 6.51065C25.9846 8.16286 26 8.65754 26 12.8395C26 17.0215 25.9846 17.5162 25.9091 19.1684C25.8971 20.1615 25.7149 21.1451 25.3704 22.0766C25.1098 22.7521 24.7106 23.3655 24.1986 23.8774C23.6866 24.3893 23.073 24.7883 22.3975 25.0487C21.4662 25.394 20.4823 25.5763 19.4891 25.5874C17.8384 25.663 17.3422 25.6783 13.1602 25.6783C8.97819 25.6783 8.48351 25.6637 6.83281 25.5874" fill="url(#paint0_radial_1_2428)"/>
<path d="M6.83306 25.5872C5.83985 25.5761 4.85598 25.3939 3.92464 25.0487C3.24454 24.7973 2.62921 24.3971 2.12365 23.8773C1.60248 23.3728 1.20168 22.7573 0.95102 22.0766C0.606066 21.1453 0.424162 20.1615 0.413291 19.1684C0.337012 17.5175 0.321655 17.0223 0.321655 12.839C0.321655 8.65578 0.338522 8.16235 0.412536 6.51015C0.424726 5.51746 0.606854 4.53419 0.95102 3.60299C1.2029 2.92277 1.60313 2.3072 2.12264 1.80099C2.62758 1.28029 3.24319 0.879857 3.92389 0.629364C4.85523 0.284124 5.8391 0.101964 6.8323 0.0908802C8.48376 0.0153565 8.9797 0 13.1607 0C17.3417 0 17.8374 0.016867 19.4896 0.0908802C20.4825 0.102984 21.4661 0.285114 22.3975 0.629364C23.0779 0.880188 23.6933 1.28048 24.1985 1.80074C24.7189 2.30605 25.1194 2.92166 25.3704 3.60223C25.7157 4.53356 25.8979 5.51743 25.9091 6.51065C25.9846 8.16286 26 8.65754 26 12.8395C26 17.0215 25.9846 17.5162 25.9091 19.1684C25.8971 20.1615 25.7149 21.1451 25.3704 22.0766C25.1098 22.7521 24.7106 23.3655 24.1986 23.8774C23.6866 24.3893 23.073 24.7883 22.3975 25.0487C21.4662 25.394 20.4823 25.5763 19.4891 25.5874C17.8384 25.663 17.3422 25.6783 13.1602 25.6783C8.97819 25.6783 8.48351 25.6637 6.83281 25.5874" fill="url(#paint1_radial_1_2428)"/>
<path d="M10.0081 12.8936C10.0081 12.2647 10.1947 11.6499 10.5441 11.127C10.8936 10.6042 11.3902 10.1966 11.9713 9.95601C12.5524 9.71539 13.1917 9.65249 13.8085 9.77525C14.4254 9.89802 14.9919 10.2009 15.4366 10.6457C15.8812 11.0905 16.184 11.6571 16.3066 12.2739C16.4292 12.8908 16.3662 13.5301 16.1254 14.1112C15.8847 14.6922 15.477 15.1887 14.9541 15.5381C14.4311 15.8874 13.8163 16.0738 13.1874 16.0737C12.3441 16.0736 11.5354 15.7384 10.9391 15.1421C10.3429 14.5457 10.008 13.7369 10.0081 12.8936ZM8.28888 12.8936C8.28888 13.8625 8.57617 14.8095 9.11442 15.6151C9.65267 16.4206 10.4177 17.0485 11.3128 17.4192C12.2079 17.79 13.1928 17.887 14.143 17.698C15.0932 17.509 15.966 17.0424 16.6511 16.3574C17.3362 15.6723 17.8027 14.7995 17.9917 13.8493C18.1807 12.8991 18.0837 11.9141 17.7129 11.0191C17.3422 10.124 16.7143 9.35895 15.9088 8.8207C15.1032 8.28245 14.1562 7.99516 13.1874 7.99516C12.5441 7.99513 11.9071 8.12181 11.3128 8.36797C10.7184 8.61413 10.1784 8.97495 9.72354 9.42982C9.26866 9.88469 8.90785 10.4247 8.66169 11.019C8.41553 11.6134 8.28885 12.2503 8.28888 12.8936ZM17.135 7.80107C17.1349 8.02747 17.2019 8.24881 17.3276 8.43711C17.4533 8.62541 17.632 8.7722 17.8411 8.85893C18.0503 8.94566 18.2804 8.96844 18.5025 8.92437C18.7246 8.8803 18.9286 8.77136 19.0887 8.61134C19.2489 8.45133 19.358 8.24741 19.4023 8.02539C19.4465 7.80336 19.424 7.57319 19.3374 7.36398C19.2509 7.15478 19.1042 6.97595 18.916 6.85008C18.7278 6.72422 18.5066 6.65699 18.2802 6.65689C17.9767 6.65702 17.6857 6.7776 17.4711 6.99213C17.2564 7.20666 17.1357 7.49761 17.1355 7.80107M9.33388 20.6587C8.72896 20.6521 8.1297 20.5414 7.56234 20.3315C7.15088 20.1729 6.77719 19.9299 6.46532 19.6181C6.15344 19.3064 5.9103 18.9328 5.75153 18.5214C5.54152 17.9541 5.43082 17.3548 5.42427 16.7499C5.37795 15.7444 5.36888 15.4423 5.36888 12.8949C5.36888 10.3475 5.37895 10.0461 5.42427 9.03966C5.43161 8.43481 5.54229 7.83567 5.75153 7.26812C5.91011 6.85653 6.15319 6.48275 6.46508 6.17086C6.77697 5.85897 7.15075 5.6159 7.56234 5.45731C8.12968 5.24731 8.72896 5.1366 9.33388 5.13005C10.3394 5.08373 10.6414 5.07466 13.1879 5.07466C15.7343 5.07466 16.0366 5.08448 17.0431 5.1303C17.6479 5.13764 18.2471 5.24832 18.8146 5.45757C19.2262 5.61616 19.6 5.85924 19.9119 6.17113C20.2238 6.48302 20.4668 6.8568 20.6254 7.26837C20.8354 7.83571 20.9461 8.43499 20.9527 9.03991C20.999 10.0469 21.0081 10.3475 21.0081 12.8951C21.0081 15.4428 20.9988 15.7439 20.9527 16.7504C20.9457 17.3553 20.835 17.9544 20.6254 18.5219C20.4667 18.9333 20.2235 19.3069 19.9116 19.6186C19.5998 19.9304 19.2261 20.1734 18.8146 20.332C18.2473 20.542 17.648 20.6527 17.0431 20.6592C16.0376 20.7056 15.7355 20.7146 13.1879 20.7146C10.6402 20.7146 10.3391 20.7053 9.33388 20.6592M9.25483 3.41239C8.4633 3.42795 7.68015 3.57776 6.93877 3.85545C6.305 4.1005 5.72943 4.47527 5.24896 4.95574C4.76848 5.43622 4.39371 6.01179 4.14867 6.64556C3.87101 7.38695 3.7212 8.17009 3.7056 8.96162C3.65852 9.97867 3.64795 10.3039 3.64795 12.8946C3.64795 15.4854 3.65878 15.8104 3.7056 16.8277C3.7212 17.6192 3.87101 18.4023 4.14867 19.1437C4.39372 19.7775 4.7685 20.3531 5.24897 20.8335C5.72944 21.314 6.30501 21.6888 6.93877 21.9338C7.68019 22.2114 8.46331 22.3612 9.25483 22.3769C10.2724 22.4232 10.5971 22.4346 13.1879 22.4346C15.7786 22.4346 16.1036 22.4237 17.1209 22.3769C17.9124 22.3613 18.6955 22.2115 19.4369 21.9338C20.0707 21.6888 20.6463 21.314 21.1267 20.8335C21.6072 20.3531 21.982 19.7775 22.227 19.1437C22.5051 18.4024 22.6549 17.6192 22.6701 16.8277C22.7164 15.8099 22.727 15.4854 22.727 12.8946C22.727 10.3039 22.7162 9.97892 22.6701 8.96162C22.6545 8.17009 22.5047 7.38694 22.227 6.64556C21.982 6.01191 21.6073 5.43642 21.127 4.95597C20.6467 4.47551 20.0713 4.10067 19.4377 3.85545C18.6964 3.57758 17.9132 3.42776 17.1216 3.41239C16.1043 3.36581 15.7793 3.35474 13.1891 3.35474C10.5989 3.35474 10.2731 3.36556 9.25533 3.41239" fill="white"/>
<defs>
<radialGradient id="paint0_radial_1_2428" cx="0" cy="0" r="1" gradientUnits="userSpaceOnUse" gradientTransform="translate(1.98343 25.1157) scale(32.6016)">
<stop offset="0.09" stop-color="#FA8F21"/>
<stop offset="0.78" stop-color="#D82D7E"/>
</radialGradient>
<radialGradient id="paint1_radial_1_2428" cx="0" cy="0" r="1" gradientUnits="userSpaceOnUse" gradientTransform="translate(18.108 24.291) scale(28.6897)">
<stop offset="0.64" stop-color="#8C3AAA" stop-opacity="0"/>
<stop offset="1" stop-color="#8C3AAA"/>
</radialGradient>
</defs>
</svg>
