<svg width="18" height="21" viewBox="0 0 18 21" fill="none" xmlns="http://www.w3.org/2000/svg">
<path d="M8.99168 0C5.7977 0 3.19616 2.60154 3.19616 5.79552C3.19548 5.86457 3.20592 5.93327 3.22707 5.99901C3.28116 8.03259 4.16208 9.81117 5.19755 11.4597C6.26907 13.1636 7.50931 14.7605 8.30523 16.391C8.35756 16.4984 8.43876 16.5892 8.53972 16.6531C8.64069 16.717 8.75745 16.7516 8.87694 16.7529C8.99643 16.7543 9.11394 16.7223 9.21631 16.6607C9.31869 16.599 9.40189 16.5101 9.45661 16.4039C10.2937 14.7747 11.5971 13.1751 12.7227 11.4726C13.847 9.76996 14.8078 7.93085 14.8078 5.80582C14.809 5.724 14.7946 5.6427 14.7653 5.56628C14.6404 2.48177 12.1071 0 8.99168 0ZM8.99168 1.28789C11.4902 1.28789 13.4993 3.2983 13.4993 5.79552C13.4986 5.84178 13.503 5.88799 13.5122 5.93332C13.4735 7.61789 12.6957 9.17882 11.6486 10.7629C10.7625 12.1036 9.76055 13.4881 8.89638 14.9267C8.07599 13.4945 7.13067 12.1126 6.28968 10.7758C5.26838 9.14919 4.50466 7.54963 4.50466 5.80454C4.5045 5.76696 4.50105 5.72947 4.49435 5.69249C4.5173 4.51544 5.00141 3.39444 5.84249 2.5707C6.68357 1.74696 7.81441 1.28632 8.99168 1.28789ZM8.99168 3.86626C7.93303 3.86626 7.05984 4.73945 7.05984 5.7981C7.05984 6.85674 7.93303 7.72994 8.99168 7.72994C10.0516 7.72994 10.9235 6.85674 10.9235 5.7981C10.9235 4.73945 10.0516 3.86626 8.99168 3.86626ZM8.99168 5.15415C9.35487 5.15415 9.63563 5.43491 9.63563 5.7981C9.63563 6.16128 9.35487 6.44204 8.99168 6.44204C8.90678 6.44326 8.8225 6.42743 8.74382 6.3955C8.66515 6.36357 8.59367 6.31618 8.53363 6.25614C8.47359 6.1961 8.42621 6.12463 8.39428 6.04595C8.36234 5.96728 8.34652 5.883 8.34773 5.7981C8.34773 5.43491 8.62849 5.15415 8.99168 5.15415ZM14.2592 11.886C14.1091 11.8863 13.9639 11.9391 13.8486 12.0351C13.7333 12.1312 13.6552 12.2644 13.6277 12.412C13.6002 12.5595 13.6251 12.7119 13.6981 12.8431C13.771 12.9742 13.8875 13.0757 14.0273 13.1301C15.3114 13.6504 16.1369 14.3317 16.4924 14.9589C16.8491 15.5861 16.8401 16.1283 16.3752 16.7954C15.4415 18.1297 12.4651 19.312 9.06767 19.3261C5.66891 19.339 2.65138 18.1889 1.66485 16.8508C1.17159 16.1811 1.14712 15.6363 1.47811 15.0117C1.81039 14.3883 2.60501 13.7006 3.86844 13.17C3.95005 13.1399 4.02473 13.0936 4.08795 13.0339C4.15118 12.9741 4.20165 12.9022 4.23631 12.8224C4.27098 12.7427 4.28912 12.6567 4.28965 12.5697C4.29018 12.4827 4.27308 12.3965 4.23938 12.3163C4.20568 12.2361 4.15609 12.1636 4.09359 12.1031C4.0311 12.0426 3.95699 11.9954 3.87575 11.9643C3.7945 11.9333 3.70781 11.919 3.62089 11.9223C3.53397 11.9257 3.44863 11.9466 3.37002 11.9838C1.92758 12.5892 0.875374 13.4031 0.340898 14.409C-0.193577 15.4135 -0.100849 16.6267 0.628099 17.6158C2.08599 19.5914 5.40747 20.6295 9.07539 20.614C12.742 20.5986 16.0326 19.5361 17.4312 17.536C18.1306 16.5353 18.1782 15.3169 17.6116 14.3227C17.0475 13.3284 15.9721 12.5273 14.5103 11.9362C14.4309 11.9024 14.3455 11.8848 14.2592 11.8847V11.886Z" fill="#FBFBFB"/>
</svg>
