<svg width="28" height="28" viewBox="0 0 28 28" fill="none" xmlns="http://www.w3.org/2000/svg">
<path d="M13.663 26.071C20.5146 26.071 26.0689 20.5166 26.0689 13.6651C26.0689 6.81347 20.5146 1.25916 13.663 1.25916C6.81139 1.25916 1.25708 6.81347 1.25708 13.6651C1.25708 20.5166 6.81139 26.071 13.663 26.071Z" fill="#EB098B"/>
<path d="M9.3831 10.3334C9.3831 10.3809 9.3831 10.4264 9.3831 10.4739C9.37914 10.4264 9.37914 10.3809 9.3831 10.3334ZM9.3831 10.7095C9.3831 10.7867 9.3831 10.858 9.3831 10.9312C9.37914 10.858 9.38111 10.7847 9.38111 10.7095H9.3831Z" fill="white"/>
<path d="M5.37457 12.0041C5.4959 13.6412 6.09699 15.2063 7.10273 16.5037C7.12055 16.5274 7.13638 16.5512 7.15618 16.575C7.17618 16.6071 7.20255 16.6347 7.23365 16.6562C7.26475 16.6778 7.29993 16.6927 7.33702 16.7001C7.37411 16.7075 7.41232 16.7073 7.44931 16.6994C7.4863 16.6915 7.52128 16.6761 7.55209 16.6541C7.58164 16.6314 7.60623 16.6029 7.62434 16.5703C7.64246 16.5378 7.65371 16.5018 7.65742 16.4647C7.66113 16.4276 7.65721 16.3902 7.64591 16.3547C7.6346 16.3192 7.61615 16.2863 7.59168 16.2582C7.54813 16.1929 7.49864 16.1335 7.45311 16.0603C6.5974 14.9307 6.07304 13.5851 5.93875 12.1744C5.721 9.60096 6.71473 7.59369 8.86849 6.17435C9.97661 5.45575 11.2584 5.05014 12.5782 5.00047C14.0367 4.89532 15.4998 5.12766 16.854 5.67946C17.1212 5.80068 17.3809 5.9375 17.632 6.08923C17.8557 6.2179 18.0101 6.2179 18.1051 6.06943C18.2001 5.92096 18.1388 5.77052 17.9072 5.62601C17.0079 5.08002 16.0047 4.72742 14.9616 4.5907C14.5775 4.53131 14.1915 4.49172 13.8055 4.44421H12.5821C12.2258 4.49172 11.8695 4.52538 11.5171 4.5907C9.3713 4.98661 7.62335 6.01994 6.4079 7.85301C5.60545 9.08072 5.24132 10.5435 5.37457 12.0041Z" fill="white"/>
<path d="M9.38323 8.6032C9.63662 8.4963 9.77915 8.52599 9.86031 8.69624C9.94147 8.86648 9.85041 8.98921 9.59307 9.09215C9.22085 9.25199 8.89451 9.50239 8.64378 9.82055C8.39304 10.1387 8.22585 10.5145 8.15745 10.9138C8.08904 11.3131 8.12158 11.7231 8.2521 12.1066C8.38262 12.4901 8.60698 12.8348 8.90476 13.1095C9.20254 13.3841 9.56428 13.5799 9.95705 13.679C10.3498 13.7782 10.7611 13.7775 11.1536 13.6771C11.546 13.5767 11.9071 13.3797 12.204 13.1041C12.5009 12.8285 12.7241 12.483 12.8534 12.0991C12.8741 12.0509 12.8808 11.9979 12.8728 11.9461C12.8647 11.8943 12.8422 11.8457 12.8079 11.8061C12.3589 11.2103 12.1555 10.4649 12.2397 9.72363C12.2407 9.68456 12.2339 9.6457 12.2196 9.60932C12.2053 9.57294 12.1839 9.53979 12.1566 9.51181C11.7829 9.17928 11.3155 8.97047 10.8184 8.91399C10.7821 8.91047 10.7468 8.89953 10.7148 8.88185C10.6829 8.86417 10.6549 8.84012 10.6326 8.8112C10.6103 8.78228 10.5941 8.74909 10.5852 8.71368C10.5762 8.67828 10.5745 8.64141 10.5804 8.60535C10.5862 8.56929 10.5994 8.53481 10.619 8.50403C10.6387 8.47326 10.6645 8.44685 10.6948 8.42643C10.7251 8.406 10.7592 8.39201 10.7951 8.3853C10.831 8.37859 10.8679 8.37931 10.9035 8.38743C11.2599 8.4864 11.6116 8.5999 11.9586 8.72791C12.1177 8.80584 12.2694 8.89793 12.412 9.00307C12.666 8.3392 13.1491 7.78804 13.7739 7.44911C14.3994 7.10189 15.1308 6.9969 15.8287 7.15416C16.4416 7.27528 16.9981 7.59346 17.4133 8.0602C17.8286 8.52694 18.0799 9.11665 18.1289 9.73946C18.2655 11.5607 17.2837 12.6039 15.5555 13.0354C15.5812 13.0829 15.607 13.1304 15.6307 13.178C15.8226 13.5493 15.9334 13.9571 15.9559 14.3744C15.9784 14.7918 15.9121 15.2091 15.7614 15.599C15.6921 15.787 15.5515 15.8583 15.4011 15.7969C15.2506 15.7355 15.2031 15.599 15.2566 15.401C15.2685 15.3673 15.2823 15.3337 15.2922 15.3C15.4162 14.9411 15.4523 14.5577 15.3976 14.1819C15.3428 13.8061 15.1987 13.449 14.9775 13.1403C14.9106 13.0618 14.8216 13.0052 14.7221 12.978C14.5083 12.9068 14.2767 12.8751 14.0689 12.7801C13.8135 12.6712 13.5759 12.5227 13.3483 12.4C13.1929 12.6905 13.0092 12.965 12.8 13.2195C12.501 13.5224 12.2694 13.8134 12.3506 14.2667C12.3743 14.4073 12.2536 14.5062 12.0972 14.5122C12.0627 14.5143 12.028 14.5095 11.9954 14.4981C11.9627 14.4866 11.9327 14.4687 11.907 14.4455C11.8814 14.4222 11.8607 14.3941 11.8461 14.3627C11.8315 14.3313 11.8233 14.2973 11.8221 14.2628C11.8221 14.1816 11.8221 14.1004 11.8221 14.043L10.573 14.332C10.573 14.3479 10.5631 14.3934 10.5611 14.4409C10.549 14.829 10.6304 15.2143 10.7987 15.5643C10.9669 15.9143 11.2169 16.2186 11.5275 16.4516C11.8381 16.6846 12.2003 16.8394 12.5834 16.9029C12.9664 16.9663 13.3592 16.9367 13.7284 16.8164C14.0305 16.6899 14.3184 16.532 14.5875 16.3453C14.6148 16.3205 14.6468 16.3016 14.6816 16.2897C14.7164 16.2777 14.7533 16.273 14.79 16.2757C14.8267 16.2785 14.8624 16.2887 14.895 16.3057C14.9277 16.3227 14.9565 16.3462 14.9798 16.3747C15.003 16.4032 15.0203 16.4362 15.0304 16.4716C15.0405 16.5069 15.0433 16.544 15.0387 16.5805C15.034 16.617 15.022 16.6522 15.0033 16.6839C14.9846 16.7156 14.9596 16.7432 14.93 16.7649C14.9117 16.7818 14.8926 16.7977 14.8726 16.8124C14.4895 17.1227 14.0352 17.3328 13.5507 17.4236C13.0662 17.5145 12.5666 17.4833 12.0972 17.3328C11.6277 17.1824 11.2032 16.9174 10.8617 16.5618C10.5203 16.2062 10.2727 15.7712 10.1414 15.2961C10.0696 14.9417 10.018 14.5835 9.987 14.2232L9.92563 14.2113C9.30932 14.0789 8.75116 13.7537 8.33193 13.283C7.9127 12.8122 7.65416 12.2202 7.59375 11.5928C7.53334 10.9653 7.67419 10.3349 7.99591 9.79278C8.31762 9.25068 8.80351 8.82504 9.38323 8.57746V8.6032ZM15.1893 12.4812C15.6699 12.4819 16.14 12.3401 16.54 12.0736C16.94 11.8071 17.2519 11.4279 17.4363 10.984C17.6207 10.5402 17.6693 10.0516 17.5758 9.58008C17.4824 9.1086 17.2512 8.67544 16.9114 8.33543C16.5717 7.99543 16.1387 7.76386 15.6673 7.67004C15.1959 7.57622 14.7073 7.62437 14.2633 7.8084C13.8193 7.99242 13.4398 8.30405 13.173 8.70383C12.9062 9.10361 12.7639 9.57357 12.7643 10.0542C12.7643 10.6975 13.0197 11.3145 13.4745 11.7696C13.9292 12.2247 14.546 12.4806 15.1893 12.4812Z" fill="white"/>
<path d="M15.8126 22.8777C15.975 22.8777 16.0759 22.7668 16.0997 22.555C16.1353 22.2462 16.163 21.9354 16.2244 21.6306C16.2873 21.2913 16.4656 20.9843 16.7292 20.7615C16.7976 20.6978 16.8809 20.6522 16.9716 20.629C17.0622 20.6058 17.1572 20.6058 17.2478 20.6289C17.5843 20.7101 17.9169 20.815 18.2594 20.8764C18.6971 20.9637 19.1506 20.926 19.5679 20.7675C20.2963 20.4824 20.7259 19.6134 20.2409 18.8651C20.0944 18.6355 20.1063 18.6256 20.3478 18.491C20.5117 18.4186 20.6401 18.2841 20.7051 18.1172C20.77 17.9502 20.7661 17.7643 20.6942 17.6002C20.6872 17.5739 20.6857 17.5464 20.6898 17.5195C20.6939 17.4926 20.7035 17.4668 20.718 17.4438C20.9536 17.0855 20.9357 16.8856 20.6685 16.555C20.6078 16.4483 20.5644 16.3327 20.5398 16.2125C20.811 16.1591 21.0288 16.1353 21.2327 16.0739C22.0443 15.8324 22.1631 15.007 21.6998 14.5022C21.2559 13.9878 20.9362 13.3782 20.7655 12.7206C20.7375 12.6316 20.729 12.5376 20.7407 12.445C20.7523 12.3524 20.7837 12.2634 20.8328 12.1841C20.9444 12.0115 21.0099 11.8131 21.023 11.608C21.0362 11.4028 20.9966 11.1977 20.908 11.0122C20.6905 10.5249 20.5663 10.0012 20.5418 9.46816C20.4408 8.30615 19.8747 7.37378 19.073 6.56414C19.0497 6.53406 19.0204 6.50923 18.9869 6.4913C18.9534 6.47337 18.9164 6.46274 18.8785 6.46012C18.8406 6.45749 18.8025 6.46292 18.7668 6.47606C18.7312 6.4892 18.6987 6.50974 18.6715 6.53634C18.6444 6.56294 18.6231 6.59499 18.6093 6.63038C18.5954 6.66577 18.5892 6.70369 18.591 6.74166C18.5928 6.77963 18.6027 6.81679 18.6199 6.85067C18.6371 6.88456 18.6613 6.91442 18.6909 6.93828C19.0708 7.32262 19.3928 7.76004 19.647 8.23687C19.9053 8.80589 20.0454 9.42143 20.0588 10.0462C20.0788 10.3702 20.1664 10.6865 20.3161 10.9746C20.4156 11.1326 20.4684 11.3155 20.4684 11.5022C20.4684 11.6888 20.4156 11.8717 20.3161 12.0297C20.2488 12.1491 20.2073 12.2812 20.1944 12.4176C20.1814 12.554 20.1973 12.6916 20.2409 12.8215C20.4391 13.5712 20.7978 14.2689 21.292 14.8664C21.5415 15.1633 21.4643 15.4603 21.0941 15.5652C20.8672 15.622 20.6362 15.6611 20.4032 15.682C20.3218 15.6848 20.244 15.7166 20.1841 15.7719C20.1242 15.8271 20.086 15.9019 20.0766 15.9829C20.0265 16.1501 20.02 16.3275 20.0578 16.4979C20.0956 16.6684 20.1763 16.8264 20.2924 16.9568C20.3061 16.9817 20.3132 17.0096 20.3132 17.038C20.3132 17.0664 20.3061 17.0943 20.2924 17.1192C20.2385 17.1831 20.1758 17.2391 20.1063 17.2854C20.07 17.3099 20.0402 17.3429 20.0196 17.3816C19.999 17.4202 19.9883 17.4633 19.9883 17.5071C19.9883 17.5509 19.999 17.5941 20.0196 17.6327C20.0402 17.6714 20.07 17.7044 20.1063 17.7289C20.2765 17.8753 20.2706 17.9268 20.0806 18.0357C19.5936 18.2911 19.4867 18.6296 19.7836 19.1264C19.8713 19.2457 19.9196 19.3893 19.9217 19.5373C19.9239 19.6852 19.8797 19.8302 19.7955 19.9519C19.7111 20.0775 19.597 20.1804 19.4634 20.2515C19.3298 20.3226 19.1808 20.3598 19.0294 20.3597C18.6899 20.356 18.3512 20.3276 18.0159 20.2746C17.8506 20.2448 17.6883 20.2004 17.5309 20.1419C16.9826 19.9717 16.5411 20.1419 16.1828 20.5656C15.8652 20.9626 15.6724 21.4447 15.6285 21.9513C15.6008 22.1492 15.5909 22.3472 15.579 22.5451C15.5672 22.7431 15.6464 22.8678 15.8126 22.8777Z" fill="white"/>
<path d="M7.31057 22.8637C7.34618 22.8751 7.38375 22.8789 7.42091 22.8749C7.45807 22.8709 7.49399 22.8593 7.52639 22.8406C7.55879 22.822 7.58696 22.7968 7.6091 22.7667C7.63125 22.7366 7.64688 22.7023 7.65501 22.6658C7.81139 22.2125 7.97174 21.7611 8.10437 21.3019C8.38444 20.3492 8.54795 19.3661 8.59134 18.3741C8.54185 18.1761 8.46465 17.8 8.36369 17.4398C8.35863 17.3988 8.34417 17.3596 8.32144 17.3252C8.29871 17.2908 8.26833 17.2622 8.23267 17.2415C8.19701 17.2208 8.15704 17.2086 8.1159 17.2059C8.07475 17.2032 8.03354 17.2101 7.99549 17.226C7.83515 17.2893 7.7817 17.4239 7.86484 17.6219C8.10635 18.2019 8.04498 18.7977 7.95986 19.4035C7.80856 20.4238 7.5491 21.4252 7.18585 22.3906C7.172 22.4243 7.16012 22.456 7.14824 22.4916C7.13241 22.5264 7.12408 22.5642 7.12379 22.6025C7.1235 22.6408 7.13126 22.6787 7.14656 22.7138C7.16187 22.7489 7.18437 22.7804 7.21263 22.8062C7.24088 22.832 7.27425 22.8516 7.31057 22.8637Z" fill="white"/>
<path d="M9.69183 12.483C9.83512 12.6133 10.0065 12.7088 10.1927 12.7622C10.3062 12.7932 10.4233 12.8091 10.5411 12.8097C10.5886 12.8097 10.6341 12.8097 10.6776 12.8097H10.737C10.9157 12.7854 11.0867 12.7219 11.2379 12.6236L11.317 12.5701C11.3488 12.5461 11.3792 12.5203 11.4081 12.4929C11.4414 12.4723 11.4699 12.4447 11.4916 12.4121C11.5133 12.3795 11.5277 12.3426 11.5339 12.304C11.5401 12.2653 11.5379 12.2257 11.5275 12.188C11.517 12.1502 11.4986 12.1151 11.4734 12.0851C11.3665 11.9585 11.2181 11.9565 11.0637 12.0851C10.9255 12.2176 10.7414 12.2916 10.55 12.2916C10.3585 12.2916 10.1745 12.2176 10.0363 12.0851C10.0108 12.0555 9.97923 12.0316 9.94369 12.0153C9.90816 11.9989 9.86951 11.9905 9.8304 11.9905C9.79129 11.9905 9.75263 11.9989 9.7171 12.0153C9.68156 12.0316 9.64998 12.0555 9.62452 12.0851C9.60171 12.1153 9.5853 12.1498 9.57631 12.1865C9.56732 12.2232 9.56594 12.2614 9.57224 12.2986C9.57855 12.3359 9.59241 12.3715 9.61297 12.4032C9.63354 12.4349 9.66037 12.4621 9.69183 12.483Z" fill="white"/>
<path d="M12.0813 15.8562C12.1069 15.8828 12.1377 15.9039 12.1717 15.9183C12.2057 15.9328 12.2423 15.9402 12.2792 15.9402C12.3162 15.9402 12.3527 15.9328 12.3867 15.9183C12.4207 15.9039 12.4515 15.8828 12.4772 15.8562C12.8355 15.5751 13.1463 15.5771 13.5164 15.8562C13.5426 15.8825 13.5739 15.9032 13.6084 15.917C13.6429 15.9307 13.6798 15.9372 13.717 15.9361C13.7541 15.935 13.7906 15.9263 13.8242 15.9105C13.8578 15.8947 13.8878 15.8722 13.9123 15.8443C13.9374 15.8162 13.9561 15.7831 13.9675 15.7473C13.9788 15.7114 13.9825 15.6735 13.9782 15.6362C13.9739 15.5988 13.9617 15.5627 13.9425 15.5304C13.9233 15.498 13.8975 15.4701 13.8668 15.4484C13.6301 15.2277 13.3185 15.105 12.9948 15.105C12.6712 15.105 12.3596 15.2277 12.1228 15.4484C12.0913 15.4709 12.0649 15.5 12.0454 15.5335C12.026 15.567 12.0139 15.6043 12.01 15.6429C12.006 15.6815 12.0103 15.7204 12.0226 15.7572C12.0349 15.794 12.0549 15.8277 12.0813 15.8562Z" fill="white"/>
<path d="M11.1825 11.0559C11.1825 11.1268 11.2107 11.1948 11.2608 11.2449C11.3109 11.295 11.3789 11.3231 11.4498 11.3231C11.5206 11.3231 11.5886 11.295 11.6387 11.2449C11.6888 11.1948 11.717 11.1268 11.717 11.0559C11.717 10.8104 11.717 10.565 11.717 10.3215C11.7154 10.2515 11.6863 10.1849 11.6358 10.1363C11.5854 10.0878 11.5178 10.0611 11.4478 10.0622C11.3779 10.0642 11.3115 10.0931 11.2625 10.1429C11.2134 10.1927 11.1855 10.2595 11.1845 10.3294C11.1845 10.4541 11.1845 10.5808 11.1845 10.7055C11.1845 10.8302 11.1746 10.9431 11.1825 11.0559Z" fill="white"/>
<path d="M9.37915 10.4779C9.37915 10.5551 9.37915 10.6323 9.37915 10.7095C9.37915 10.7867 9.37915 10.9074 9.37915 11.0005C9.37915 11.0223 9.37915 11.046 9.37915 11.0698C9.38019 11.1393 9.40866 11.2055 9.45835 11.2541C9.50804 11.3027 9.57492 11.3296 9.64441 11.3291C9.67912 11.3304 9.71375 11.3248 9.74623 11.3124C9.77871 11.3001 9.80839 11.2814 9.8335 11.2574C9.85861 11.2334 9.87864 11.2046 9.89241 11.1727C9.90617 11.1408 9.91339 11.1065 9.91363 11.0718C9.91363 10.8263 9.91363 10.5808 9.91363 10.3354C9.91363 10.2645 9.88548 10.1965 9.83536 10.1464C9.78524 10.0963 9.71726 10.0681 9.64639 10.0681C9.57551 10.0681 9.50754 10.0963 9.45742 10.1464C9.4073 10.1965 9.37915 10.2645 9.37915 10.3354C9.37915 10.3829 9.37915 10.4284 9.37915 10.4759V10.4779Z" fill="white"/>
<path d="M13.6311 14.2747C13.6369 14.3413 13.6674 14.4034 13.7167 14.4486C13.766 14.4938 13.8305 14.5189 13.8974 14.5189C13.9643 14.5189 14.0287 14.4938 14.078 14.4486C14.1273 14.4034 14.1579 14.3413 14.1636 14.2747C14.1715 14.0292 14.1715 13.7837 14.1636 13.5383C14.1631 13.5037 14.1558 13.4696 14.1421 13.4378C14.1284 13.4061 14.1085 13.3773 14.0837 13.3533C14.0589 13.3292 14.0296 13.3102 13.9974 13.2975C13.9653 13.2847 13.9309 13.2784 13.8964 13.279C13.8269 13.2795 13.7603 13.307 13.7107 13.3558C13.6612 13.4046 13.6327 13.4708 13.6311 13.5403C13.6311 13.667 13.6311 13.7917 13.6311 13.9184C13.6311 14.0451 13.6212 14.1559 13.6311 14.2747Z" fill="white"/>
<path d="M14.2688 11.438C14.2942 11.4676 14.3258 11.4915 14.3613 11.5078C14.3969 11.5242 14.4355 11.5326 14.4746 11.5326C14.5137 11.5326 14.5524 11.5242 14.5879 11.5078C14.6235 11.4915 14.655 11.4676 14.6805 11.438C14.8187 11.3055 15.0028 11.2315 15.1942 11.2315C15.3856 11.2315 15.5697 11.3055 15.7079 11.438C15.8623 11.5627 16.0127 11.5607 16.1177 11.438C16.142 11.4092 16.16 11.3757 16.1705 11.3395C16.1811 11.3034 16.1839 11.2654 16.1789 11.2281C16.1738 11.1908 16.161 11.155 16.1413 11.1229C16.1215 11.0909 16.0953 11.0633 16.0642 11.042C15.8285 10.8262 15.521 10.7055 15.2014 10.7033C14.8818 10.7011 14.5727 10.8176 14.3341 11.0302C14.3008 11.0508 14.2723 11.0784 14.2506 11.111C14.2289 11.1436 14.2145 11.1805 14.2083 11.2191C14.2021 11.2578 14.2043 11.2974 14.2147 11.3351C14.2251 11.3729 14.2436 11.4079 14.2688 11.438Z" fill="white"/>
<path d="M15.6525 9.74143C15.7931 9.8899 15.9376 10.0344 16.0861 10.171C16.111 10.1954 16.1405 10.2147 16.1729 10.2277C16.2054 10.2408 16.24 10.2473 16.2749 10.2469C16.3099 10.2465 16.3444 10.2393 16.3765 10.2256C16.4086 10.2119 16.4377 10.192 16.4622 10.167C16.4866 10.1421 16.5059 10.1126 16.5189 10.0801C16.5319 10.0477 16.5385 10.0131 16.5381 9.97816C16.5377 9.94323 16.5305 9.90872 16.5168 9.8766C16.5031 9.84447 16.4832 9.81536 16.4582 9.79092C16.3688 9.7073 16.2742 9.62929 16.1751 9.55733C16.2768 9.477 16.374 9.39109 16.4661 9.29999C16.5152 9.25001 16.5425 9.18263 16.5421 9.11258C16.5417 9.04253 16.5136 8.97548 16.4639 8.92608C16.4143 8.87667 16.3471 8.84892 16.277 8.84888C16.207 8.84884 16.1397 8.87651 16.09 8.92585C15.9356 9.0664 15.7871 9.21487 15.6466 9.36928C15.6213 9.39341 15.6013 9.42251 15.5878 9.45476C15.5743 9.48701 15.5676 9.5217 15.5681 9.55665C15.5687 9.59161 15.5765 9.62607 15.591 9.65787C15.6055 9.68967 15.6265 9.71812 15.6525 9.74143Z" fill="white"/>
<path d="M13.9222 10.169C13.9469 10.1952 13.9766 10.2161 14.0096 10.2304C14.0427 10.2447 14.0783 10.2521 14.1143 10.2521C14.1502 10.2521 14.1859 10.2447 14.2189 10.2304C14.2519 10.2161 14.2816 10.1952 14.3063 10.169C14.4508 10.0344 14.5913 9.89381 14.7259 9.74931C14.7547 9.72496 14.7778 9.69464 14.7937 9.66046C14.8095 9.62627 14.8177 9.58904 14.8177 9.55135C14.8177 9.51367 14.8095 9.47643 14.7937 9.44225C14.7778 9.40806 14.7547 9.37774 14.7259 9.3534C14.5913 9.21087 14.4528 9.07032 14.3063 8.93571C14.2824 8.90801 14.2531 8.88552 14.2201 8.86961C14.1872 8.85371 14.1513 8.84473 14.1148 8.84324C14.0783 8.84175 14.0418 8.84778 14.0077 8.86095C13.9736 8.87412 13.9425 8.89415 13.9164 8.91981C13.8904 8.94547 13.8699 8.9762 13.8561 9.01011C13.8424 9.04402 13.8358 9.08038 13.8368 9.11694C13.8377 9.15351 13.8461 9.18949 13.8615 9.22267C13.8768 9.25585 13.8989 9.28552 13.9262 9.30985C13.9994 9.38903 14.0885 9.45237 14.2093 9.55729C14.1097 9.63297 14.0145 9.71427 13.9242 9.80078C13.8993 9.82447 13.8794 9.85295 13.8658 9.88452C13.8521 9.91608 13.845 9.95007 13.8448 9.98445C13.8446 10.0188 13.8514 10.0529 13.8647 10.0846C13.878 10.1163 13.8976 10.145 13.9222 10.169Z" fill="white"/>
<path d="M13.6708 27.3338V27.1021C13.9757 27.1021 14.2845 27.0903 14.5874 27.0705L14.6032 27.3021C14.2964 27.3219 13.9856 27.3338 13.6708 27.3338ZM12.7385 27.3021C12.4297 27.2823 12.1169 27.2506 11.8101 27.209L11.8417 26.9794C12.1426 27.021 12.4494 27.0507 12.7543 27.0705L12.7385 27.3021ZM15.5316 27.2071L15.4999 26.9774C15.8028 26.9359 16.1057 26.8844 16.4046 26.821L16.4521 27.0487C16.1473 27.112 15.8385 27.1655 15.5316 27.2071ZM10.8915 27.0527C10.5867 26.9893 10.2818 26.9161 9.98292 26.8329L10.0463 26.6092C10.3392 26.6904 10.6401 26.7636 10.9371 26.825L10.8915 27.0527ZM17.3508 26.829L17.2875 26.6053C17.5805 26.5221 17.8814 26.4291 18.1624 26.3262L18.2397 26.5459C17.9546 26.6488 17.6557 26.7438 17.3508 26.829ZM9.08618 26.5518C8.7932 26.4469 8.4923 26.3321 8.21715 26.2094L8.30821 25.9956C8.58931 26.1183 8.87635 26.2311 9.16338 26.3321L9.08618 26.5518ZM19.1146 26.2034L19.0216 25.9896C19.3007 25.8689 19.5778 25.7362 19.849 25.5937L19.9559 25.7917C19.6808 25.9441 19.3977 26.0787 19.1146 26.2034ZM7.38178 25.8075C7.10662 25.665 6.83146 25.5106 6.56619 25.3502L6.68695 25.1523C6.94825 25.3106 7.21747 25.4611 7.47877 25.6016L7.38178 25.8075ZM20.7676 25.3443L20.6468 25.1463C20.9061 24.988 21.1654 24.8177 21.4129 24.6416L21.5475 24.8395C21.2941 25.0157 21.0328 25.182 20.7676 25.3443ZM5.78625 24.8375C5.53286 24.6594 5.28344 24.4693 5.04194 24.2734L5.18842 24.0932C5.42597 24.2912 5.67144 24.4733 5.92086 24.6475L5.78625 24.8375ZM22.2997 24.2674L22.1532 24.0873C22.3888 23.8893 22.6224 23.6914 22.8441 23.4835L23.0025 23.6537C22.7669 23.8656 22.5294 24.0714 22.2997 24.2674ZM4.34909 23.6597C4.12144 23.4479 3.89973 23.2262 3.68792 23.0005L3.85816 22.8421C4.05611 23.0638 4.28376 23.2836 4.50745 23.4914L4.34909 23.6597ZM23.6617 22.9946L23.4875 22.8382C23.6854 22.6145 23.8972 22.3829 24.0813 22.1473L24.2595 22.2918C24.0813 22.5313 23.8636 22.7669 23.6518 22.9946H23.6617ZM3.07426 22.2978C2.8763 22.0582 2.68824 21.8088 2.51008 21.5554L2.69814 21.4228C2.87432 21.6702 3.06238 21.9157 3.2544 22.1513L3.07426 22.2978ZM24.8494 21.5475L24.6515 21.4129C24.8276 21.1635 24.9979 20.9061 25.1562 20.6468L25.3542 20.7676C25.182 21.0308 25.0097 21.2941 24.8316 21.5475H24.8494ZM2.00529 20.7775C1.84297 20.5122 1.68856 20.239 1.54604 19.9658L1.74399 19.8589C1.88454 20.1282 2.03499 20.3954 2.19533 20.6508L2.00529 20.7775ZM25.8194 19.954L25.6214 19.8471C25.762 19.5759 25.8946 19.2967 26.0174 19.0176L26.2292 19.1107C26.0807 19.3937 25.9461 19.6709 25.8016 19.954H25.8194ZM1.11845 19.1245C0.995717 18.8395 0.878921 18.5485 0.775984 18.2575L0.993737 18.1803C1.09667 18.4653 1.20951 18.7524 1.33224 19.0315L1.11845 19.1245ZM26.538 18.2416L26.3202 18.1625C26.4232 17.8754 26.5182 17.5824 26.5974 17.2895L26.8211 17.3508C26.7458 17.6497 26.6548 17.9487 26.5459 18.2416H26.538ZM0.492908 17.3686C0.409767 17.0697 0.334545 16.7649 0.271199 16.462L0.498847 16.4145C0.560213 16.7134 0.633458 17.0084 0.716599 17.3053L0.492908 17.3686ZM27.0507 16.4442L26.823 16.3967C26.8844 16.0998 26.9378 15.8028 26.9774 15.494L27.209 15.5237C27.1635 15.8325 27.112 16.1413 27.0507 16.4442ZM0.12867 15.5415C0.0870994 15.2367 0.0554243 14.9239 0.0336491 14.6131L0.26526 14.5973C0.285056 14.9021 0.316729 15.209 0.3583 15.5098L0.12867 15.5415ZM27.308 14.5973L27.0764 14.5814C27.0982 14.2786 27.1081 13.9697 27.1081 13.6649V13.6293H27.3397V13.6649C27.3318 13.9737 27.3219 14.2885 27.3001 14.5973H27.308ZM0.233587 13.6807H0V13.6649C0 13.36 0.0118781 13.0512 0.0316737 12.7484L0.263279 12.7642C0.243483 13.0611 0.233587 13.3581 0.233587 13.6649V13.6807ZM27.0744 12.7127C27.0527 12.4079 27.021 12.101 26.9794 11.8002L27.209 11.7685C27.2526 12.0753 27.2843 12.3881 27.306 12.6969L27.0744 12.7127ZM0.35038 11.8516L0.12075 11.8199C0.162321 11.5131 0.213791 11.2043 0.277137 10.9014L0.50281 10.947C0.437484 11.2459 0.386014 11.5547 0.346423 11.8516H0.35038ZM26.8191 10.8975C26.7557 10.5986 26.6825 10.3036 26.5993 10.0067L26.823 9.94333C26.9081 10.2422 26.9814 10.5372 27.0447 10.85L26.8191 10.8975ZM0.722538 10.0562L0.498847 9.99281C0.581988 9.69588 0.67701 9.39895 0.779947 9.10399L0.9977 9.1812C0.888824 9.46823 0.795782 9.77308 0.722538 10.0562ZM26.3242 9.13368C26.2232 8.84665 26.1084 8.55961 25.9857 8.28248L26.1995 8.18944C26.3222 8.47251 26.439 8.76351 26.5439 9.0545L26.3242 9.13368ZM1.3263 8.32603L1.11845 8.23497C1.24118 7.94991 1.37579 7.66485 1.51436 7.38969L1.71232 7.49659C1.57969 7.76779 1.44705 8.04691 1.3263 8.32603ZM25.5818 7.45502C25.4413 7.1858 25.2908 6.91658 25.1305 6.6632L25.3285 6.54244C25.4908 6.8077 25.6452 7.0789 25.7877 7.35406L25.5818 7.45502ZM2.1696 6.69685L1.97164 6.57609C2.13198 6.31083 2.3042 6.04755 2.48434 5.79417L2.6823 5.92878C2.50414 6.1782 2.32796 6.43555 2.1696 6.69685ZM24.6257 5.89315C24.4495 5.64372 24.2615 5.39826 24.0695 5.16269L24.2496 5.0162C24.4476 5.25573 24.6356 5.50515 24.8158 5.75854L24.6257 5.89315ZM3.22668 5.19634L3.04654 5.05183C3.24449 4.81033 3.44245 4.57278 3.6602 4.34711L3.83045 4.50548C3.62259 4.72719 3.4187 4.96077 3.22668 5.19634ZM23.4657 4.4738C23.2559 4.25011 23.0381 4.03236 22.8144 3.83441L22.9728 3.66416C23.2004 3.874 23.4221 4.09571 23.634 4.32336L23.4657 4.4738ZM4.4837 3.85618L4.32534 3.68594C4.55101 3.47413 4.78657 3.26825 5.02808 3.07228L5.17456 3.25044C4.93306 3.43849 4.69947 3.64635 4.4837 3.85618ZM22.1295 3.2247C21.8919 3.02675 21.6465 2.84463 21.3971 2.67043L21.5297 2.47247C21.7831 2.65063 22.0345 2.84067 22.274 3.03664L22.1295 3.2247ZM5.89711 2.69616L5.76249 2.4982C6.01588 2.32004 6.27916 2.14584 6.54244 1.9855L6.6632 2.18345C6.40387 2.34974 6.14653 2.51998 5.89711 2.69616ZM20.6231 2.16762C20.3618 2.00925 20.0925 1.85881 19.8312 1.71826L19.9381 1.5203C20.2133 1.66283 20.4884 1.81526 20.7537 1.97758L20.6231 2.16762ZM7.45304 1.74003L7.34614 1.54208C7.6213 1.39955 7.90438 1.26296 8.18745 1.14616L8.28049 1.35798C8.00929 1.45894 7.73018 1.59948 7.45304 1.74003ZM18.984 1.32432C18.7049 1.20357 18.4178 1.09074 18.1288 0.98978L18.206 0.772028C18.499 0.874965 18.7999 0.989779 19.077 1.11251L18.984 1.32432ZM9.13171 1.0076L9.05252 0.787864C9.3455 0.684927 9.64639 0.589908 9.94135 0.504787L10.0047 0.728478C9.71964 0.811619 9.4326 0.904659 9.13962 1.0076H9.13171ZM17.2479 0.714621C16.9549 0.633459 16.654 0.560215 16.3571 0.498849L16.4026 0.273179C16.7075 0.334545 17.0123 0.407789 17.3112 0.490931L17.2479 0.714621ZM10.8896 0.516665L10.842 0.289015C11.1449 0.22567 11.4557 0.172222 11.7625 0.130651L11.7942 0.36028C11.5052 0.395912 11.2023 0.44738 10.9034 0.510726L10.8896 0.516665ZM15.4524 0.352361C15.1515 0.31277 14.8447 0.281097 14.5399 0.261302L14.5557 0.0296929C14.8645 0.0514681 15.1773 0.0811617 15.4841 0.122732L15.4524 0.352361ZM12.7068 0.265261L12.689 0.0336521C12.9978 0.011877 13.3125 0.00197956 13.6233 0V0.231608C13.3323 0.227649 13.0235 0.237547 12.7206 0.259322L12.7068 0.265261Z" fill="#EB098B"/>
</svg>
