<svg width="30" height="30" viewBox="0 0 30 30" fill="none" xmlns="http://www.w3.org/2000/svg">
<path d="M0.249648 15.0108C0.249648 14.6886 0.260316 14.3707 0.281653 14.04L0.0320045 14.025C0.0106673 14.3515 0 14.6822 0 15.0108V15.03H0.249648V15.0108Z" fill="#EB2D2E"/>
<path d="M7.18844 2.63525L7.05828 2.42188C6.7745 2.59684 6.49284 2.78247 6.21973 2.97451L6.36269 3.18788C6.63154 2.99158 6.90892 2.80808 7.18844 2.63525Z" fill="#EB2D2E"/>
<path d="M12.7341 0.657303L12.6999 0.40979C12.3692 0.454598 12.0364 0.512206 11.7078 0.580485L11.759 0.825862C12.0769 0.759717 12.4098 0.702111 12.7341 0.657303Z" fill="#EB2D2E"/>
<path d="M10.7966 1.06045L10.7305 0.819336C10.4083 0.911086 10.0904 1.01351 9.77246 1.12659L9.85567 1.3613C10.1672 1.25035 10.483 1.14153 10.7966 1.06045Z" fill="#EB2D2E"/>
<path d="M5.57748 3.78096L5.41958 3.58679C5.1614 3.80016 4.90535 4.01354 4.66211 4.24825L4.8328 4.43175C5.07178 4.20771 5.32357 3.98793 5.57748 3.78096Z" fill="#EB2D2E"/>
<path d="M4.13506 5.13164L3.95156 4.96094C3.72325 5.20632 3.50134 5.46023 3.29224 5.72054L3.48641 5.87844C3.69338 5.6224 3.91102 5.37275 4.13506 5.13164Z" fill="#EB2D2E"/>
<path d="M0.554812 12.0771L0.309435 12.0259C0.241156 12.3523 0.185677 12.6873 0.140869 13.0181L0.388382 13.0501C0.424655 12.7257 0.480132 12.3971 0.554812 12.0771Z" fill="#EB2D2E"/>
<path d="M1.07548 10.1716L0.83863 10.0884C0.727676 10.4042 0.625261 10.7285 0.535645 11.0486L0.776756 11.1147C0.864239 10.7989 0.964523 10.481 1.07548 10.1716Z" fill="#EB2D2E"/>
<path d="M1.86058 8.35576L1.6472 8.24268C1.49358 8.53926 1.34848 8.84439 1.22046 9.15164L1.44877 9.24979C1.56826 8.94894 1.71122 8.64808 1.86058 8.35576Z" fill="#EB2D2E"/>
<path d="M2.88905 6.66591L2.67568 6.52295C2.48365 6.79607 2.29801 7.07772 2.12305 7.36364L2.33642 7.49379C2.51565 7.21427 2.69915 6.93476 2.88905 6.66591Z" fill="#EB2D2E"/>
<path d="M16.7114 0.40125C16.3807 0.356442 16.0435 0.324438 15.7107 0.303101L15.6936 0.550613C16.0222 0.57195 16.3529 0.606088 16.6772 0.648763L16.7114 0.40125Z" fill="#EB2D2E"/>
<path d="M25.3058 5.09754L25.4872 4.92684C25.2589 4.68359 25.0199 4.44462 24.7745 4.21631L24.606 4.39981C24.8385 4.62385 25.0754 4.85856 25.3058 5.09754Z" fill="#EB2D2E"/>
<path d="M27.8024 8.19575C27.6488 7.9013 27.4823 7.60684 27.3074 7.32092L27.094 7.45108C27.2668 7.73273 27.4311 8.02079 27.5826 8.30457L27.8024 8.19575Z" fill="#EB2D2E"/>
<path d="M14.7057 0.52076V0.271118C14.3707 0.271118 14.0335 0.283915 13.7007 0.305252L13.7178 0.5549C14.0442 0.533563 14.3771 0.52076 14.7057 0.52076Z" fill="#EB2D2E"/>
<path d="M29.1808 13.9782L29.4304 13.9611C29.407 13.6282 29.3728 13.2911 29.3259 12.9625L29.0784 12.9967C29.1232 13.321 29.1594 13.6517 29.1808 13.9782Z" fill="#EB2D2E"/>
<path d="M29.1466 11.9702C29.0783 11.6437 28.9972 11.3151 28.9055 10.9929L28.6665 11.0612C28.754 11.377 28.8351 11.7013 28.9012 12.0214L29.1466 11.9702Z" fill="#EB2D2E"/>
<path d="M26.7547 6.47605C26.5606 6.20507 26.3557 5.93408 26.1445 5.6759L25.946 5.83593C26.1594 6.08985 26.3557 6.35443 26.5456 6.62114L26.7547 6.47605Z" fill="#EB2D2E"/>
<path d="M18.6913 0.804535C18.3691 0.714919 18.0405 0.63597 17.7141 0.569824L17.6628 0.815201C17.985 0.881346 18.303 0.958158 18.6252 1.04564L18.6913 0.804535Z" fill="#EB2D2E"/>
<path d="M24.0109 3.55709C23.7505 3.34371 23.4796 3.14101 23.2064 2.94897L23.0635 3.16235C23.3323 3.35225 23.5969 3.55282 23.853 3.75979L24.0109 3.55709Z" fill="#EB2D2E"/>
<path d="M0.283828 16.0115L0.0341797 16.0285C0.0576506 16.3614 0.0917925 16.6985 0.136601 17.0293L0.384113 16.9951C0.341439 16.6687 0.307299 16.3379 0.283828 16.0115Z" fill="#EB2D2E"/>
<path d="M20.5777 1.47454C20.2705 1.34225 19.9547 1.2185 19.6389 1.10754L19.5557 1.34225C19.8672 1.45321 20.1766 1.57483 20.4774 1.70499L20.5777 1.47454Z" fill="#EB2D2E"/>
<path d="M22.3657 2.39841C22.0798 2.22558 21.7832 2.05915 21.4866 1.90552L21.3735 2.11889C21.6637 2.27038 21.9539 2.43255 22.227 2.60325L22.3657 2.39841Z" fill="#EB2D2E"/>
<path d="M8.94022 1.72416L8.83994 1.49585C8.53482 1.63027 8.22969 1.77537 7.93311 1.92259L8.04833 2.13597C8.34065 1.99514 8.63937 1.85645 8.94022 1.72416Z" fill="#EB2D2E"/>
<path d="M23.8743 26.2386L24.0322 26.4328C24.2903 26.2194 24.5464 26.006 24.7896 25.7713L24.6189 25.59C24.38 25.814 24.1282 26.0316 23.8743 26.2386Z" fill="#EB2D2E"/>
<path d="M25.3188 24.8901L25.5024 25.0608C25.7285 24.8175 25.9526 24.5615 26.1638 24.3033L25.9696 24.1454C25.7627 24.3993 25.5429 24.6511 25.3188 24.8901Z" fill="#EB2D2E"/>
<path d="M20.5093 28.2912L20.6096 28.5195C20.9147 28.3872 21.2198 28.2421 21.5164 28.0928L21.4012 27.8794C21.111 28.0266 20.8101 28.1589 20.5093 28.2912Z" fill="#EB2D2E"/>
<path d="M22.2612 27.3864L22.3914 27.5998C22.6773 27.427 22.959 27.2414 23.2321 27.0472L23.087 26.8445C22.8203 27.0258 22.5429 27.2094 22.2612 27.3864Z" fill="#EB2D2E"/>
<path d="M26.5669 23.358L26.7803 23.501C26.9723 23.2279 27.1601 22.9441 27.3329 22.6603L27.1195 22.5302C26.9403 22.8097 26.7568 23.0892 26.5669 23.358Z" fill="#EB2D2E"/>
<path d="M28.2376 9.10254L28.0093 9.20282C28.1394 9.50368 28.2632 9.81093 28.372 10.1203L28.6089 10.035C28.5064 9.72132 28.372 9.40766 28.2376 9.10254Z" fill="#EB2D2E"/>
<path d="M29.4667 14.9659H29.2171V15.0107C29.2171 15.3393 29.2064 15.6722 29.1851 15.9987L29.4326 16.0157C29.456 15.6829 29.4667 15.3457 29.4667 15.0107V14.9659Z" fill="#EB2D2E"/>
<path d="M0.307373 18.0195C0.375652 18.3459 0.456733 18.6745 0.546349 18.9967L0.787461 18.9284C0.697844 18.6126 0.618895 18.2883 0.55275 17.9683L0.307373 18.0195Z" fill="#EB2D2E"/>
<path d="M28.9182 17.9511L29.1615 18.0001C29.2297 17.6737 29.2873 17.3408 29.3322 17.0101L29.0846 16.976C29.0398 17.3024 28.9844 17.6289 28.9182 17.9511Z" fill="#EB2D2E"/>
<path d="M28.3848 19.8544L28.6216 19.9376C28.7326 19.6218 28.835 19.2975 28.9246 18.9774L28.6835 18.9113C28.596 19.227 28.5064 19.545 28.3848 19.8544Z" fill="#EB2D2E"/>
<path d="M18.6487 28.9527L18.717 29.1938C19.037 29.1041 19.3571 29.0017 19.675 28.8886L19.5918 28.6539C19.2824 28.7628 18.9645 28.8652 18.6487 28.9527Z" fill="#EB2D2E"/>
<path d="M27.5974 21.6681L27.8108 21.7833C27.9644 21.4867 28.1095 21.1795 28.2375 20.8743L28.0092 20.774C27.8919 21.0749 27.7489 21.3758 27.5974 21.6681Z" fill="#EB2D2E"/>
<path d="M5.44092 26.439C5.70123 26.6524 5.97008 26.8551 6.2432 27.0471L6.38829 26.8338C6.11944 26.6439 5.85486 26.4433 5.59882 26.2363L5.44092 26.439Z" fill="#EB2D2E"/>
<path d="M4.15444 24.8964L3.97095 25.0692C4.19926 25.3124 4.43823 25.5514 4.68361 25.7797L4.85431 25.5962C4.60893 25.3722 4.37849 25.1375 4.15444 24.8964Z" fill="#EB2D2E"/>
<path d="M2.70142 23.5115C2.89345 23.7825 3.09829 24.0514 3.30953 24.3117L3.5037 24.1538C3.29033 23.8978 3.09402 23.6332 2.90625 23.3665L2.70142 23.5115Z" fill="#EB2D2E"/>
<path d="M0.851318 19.9547C0.964406 20.2683 1.08816 20.582 1.22045 20.8892L1.45089 20.789C1.3186 20.4881 1.19698 20.1787 1.08816 19.8715L0.851318 19.9547Z" fill="#EB2D2E"/>
<path d="M1.65356 21.7961C1.80719 22.0905 1.97362 22.385 2.14859 22.6709L2.36196 22.5407C2.19126 22.2612 2.02697 21.971 1.87547 21.6873L1.65356 21.7961Z" fill="#EB2D2E"/>
<path d="M8.87622 28.5258C9.18348 28.6602 9.49714 28.784 9.81293 28.8949L9.89614 28.6602C9.58675 28.5493 9.27736 28.4276 8.97651 28.2975L8.87622 28.5258Z" fill="#EB2D2E"/>
<path d="M7.08618 27.5999C7.36997 27.7748 7.66656 27.9391 7.96315 28.0927L8.07837 27.8794C7.78605 27.73 7.49586 27.5657 7.21421 27.395L7.08618 27.5999Z" fill="#EB2D2E"/>
<path d="M14.7419 29.4881V29.7335C15.0769 29.7335 15.4162 29.7335 15.7469 29.6993L15.7299 29.4497C15.4034 29.4774 15.0641 29.4881 14.7419 29.4881Z" fill="#EB2D2E"/>
<path d="M12.7361 29.6035C13.0668 29.6483 13.4039 29.6824 13.7368 29.7059L13.7539 29.4562C13.4253 29.4328 13.0946 29.4008 12.7702 29.356L12.7361 29.6035Z" fill="#EB2D2E"/>
<path d="M16.7134 29.3537L16.7475 29.6012C17.0782 29.5564 17.4132 29.4988 17.7397 29.4305L17.6885 29.1873C17.3663 29.2534 17.0398 29.3067 16.7134 29.3537Z" fill="#EB2D2E"/>
<path d="M10.7688 29.198C11.0889 29.2876 11.4089 29.3687 11.746 29.4349L11.7951 29.1895C11.4751 29.1233 11.155 29.0465 10.8349 28.9569L10.7688 29.198Z" fill="#EB2D2E"/>
<circle cx="14.8172" cy="15.0882" r="12.8465" fill="#EB2D2E"/>
<path d="M23.079 22.7258C22.8081 22.2223 22.496 21.7422 22.146 21.2901C21.569 20.5622 20.9447 19.8703 20.4015 19.237C20.6269 18.5901 20.8996 18.0154 21.0055 17.4114C21.277 15.7061 21.2003 13.9635 20.7802 12.2886C20.0004 8.90793 17.7601 6.95841 14.3299 6.65415C11.0168 6.35891 8.57374 7.89598 7.23049 11.1414C6.20418 13.5774 6.05757 16.2945 6.8158 18.8268C7.45587 21.0603 8.88251 22.6086 11.1769 23.1382C12.2463 23.3444 13.3368 23.4201 14.4245 23.3636C15.3876 23.371 16.3282 23.0727 17.111 22.5117C18.0125 21.8356 18.0463 20.9498 17.2034 20.2128C16.8541 19.9086 16.471 19.6381 16.1149 19.3406C15.8083 19.0837 15.619 18.7862 15.9841 18.4391C16.3132 18.1259 16.5927 18.2363 16.9014 18.5315C18.1974 19.7689 19.5 21.0107 20.8343 22.2007C21.34 22.6246 21.8831 23.0018 22.457 23.3276C22.5425 23.3829 22.6443 23.4076 22.7456 23.3976C22.847 23.3877 22.942 23.3438 23.0152 23.2729C23.0884 23.2021 23.1354 23.1086 23.1487 23.0076C23.1619 22.9066 23.1405 22.8041 23.088 22.7168L23.079 22.7258ZM16.7008 20.6771C17.2981 21.1865 17.3116 21.6891 16.5949 22.0091C15.7879 22.3822 14.9254 22.6212 14.0414 22.7168C13.1336 22.7878 12.2204 22.7117 11.3369 22.4914C9.00647 21.919 7.77816 20.2624 7.30712 18.0019C6.70536 15.1126 7.04569 12.3675 8.70446 9.85902C10.0207 7.87795 11.9296 7.11617 14.269 7.32577C18.6842 7.72018 20.0139 10.7064 20.3542 13.6792C20.4478 14.8733 20.4478 16.073 20.3542 17.2672C20.3339 17.7179 20.0995 18.1461 19.9733 18.5496C19.3107 17.9523 18.5873 17.4948 18.1703 16.8435C17.9224 16.4581 17.7624 15.9983 17.404 15.6692C17.3246 15.5738 17.2211 15.5015 17.1043 15.4596C16.3831 15.3334 16.0585 14.8985 15.8354 14.2043C15.7137 13.8189 15.2201 13.5507 14.8866 13.2352C14.8054 13.1585 14.6499 13.1383 14.6048 13.0526C13.9422 11.8018 12.8649 11.3104 11.4743 11.3262C11.4225 11.1594 11.3819 10.9882 11.3188 10.8259C11.2229 10.5762 11.055 10.3605 10.8364 10.2062C10.6178 10.052 10.3584 9.96598 10.0909 9.95918C9.82349 9.95239 9.56004 10.0251 9.33391 10.1681C9.10779 10.311 8.92915 10.5179 8.82061 10.7624C8.71207 11.0069 8.67851 11.2782 8.72416 11.5418C8.76981 11.8054 8.89263 12.0495 9.07708 12.2433C9.26153 12.4371 9.49932 12.5718 9.76035 12.6304C10.0214 12.689 10.2939 12.6689 10.5435 12.5726C11.1137 12.3472 11.6321 12.6064 11.7268 13.2352C11.8395 13.9676 12.2474 14.3981 12.8537 14.77C13.1511 14.9525 13.3044 15.3672 13.5523 15.6422C13.7554 15.8732 14.0285 16.0315 14.3299 16.0929C14.704 16.1786 15.006 16.6654 15.281 17.0283C15.4275 17.2221 15.4342 17.5196 15.5379 17.8915C15.5379 17.8915 15.4523 17.9929 15.3846 18.0875C14.988 18.6397 14.9925 19.1558 15.4748 19.6404C15.8444 20.0213 16.2929 20.3278 16.7008 20.6771ZM14.0143 14.8849C14.26 14.6077 14.526 14.3485 14.9159 13.9406C14.9429 14.1975 15.0038 14.3508 14.9542 14.4094C14.7352 14.6637 14.4995 14.9031 14.2487 15.1261C14.1969 15.1734 14.0775 15.1419 13.9873 15.1464C13.9986 15.0585 13.967 14.9368 14.0143 14.8849ZM13.8386 14.0353C13.6898 14.1795 13.2616 14.1817 13.0475 14.0713C12.7873 13.898 12.578 13.6583 12.4412 13.3772C12.3218 13.1721 12.3375 12.8903 12.2339 12.6695C12.1121 12.4548 11.9718 12.2512 11.8147 12.061C12.6283 11.9978 13.6447 12.532 13.9152 13.2374C14.0053 13.4718 13.9896 13.8843 13.8386 14.0353ZM10.6833 11.2586C10.6309 11.4141 10.5476 11.5573 10.4384 11.6797C10.3291 11.8021 10.1962 11.9012 10.0477 11.9708C9.73443 12.0993 9.37157 11.6778 9.38284 11.3082C9.38487 11.2186 9.40469 11.1303 9.44114 11.0485C9.47759 10.9666 9.52994 10.8928 9.59516 10.8314C9.66038 10.7699 9.73716 10.7221 9.82104 10.6906C9.90492 10.659 9.99423 10.6445 10.0838 10.6478C10.4444 10.6862 10.7712 10.9093 10.6855 11.2586H10.6833ZM15.867 16.4671L14.8573 15.4619L15.2697 15.0382L16.2749 16.0366L15.867 16.4671ZM16.1419 17.2987C16.8 16.3386 16.9195 16.2597 17.2553 16.5257C16.8496 16.7623 16.6918 17.3213 16.1397 17.2987H16.1419ZM21.7763 22.1962L16.9713 17.7337L17.5212 17.1657C19.0267 18.811 20.4917 20.4112 21.9544 22.0136L21.7763 22.1962Z" fill="white"/>
<path d="M13.0544 18.7278C12.6061 18.7338 12.1785 18.9176 11.8658 19.2388C11.553 19.5601 11.3806 19.9924 11.3866 20.4407C11.3926 20.889 11.5764 21.3166 11.8976 21.6293C12.2189 21.9421 12.6512 22.1144 13.0995 22.1085C13.5478 22.1025 13.9754 21.9187 14.2881 21.5975C14.6009 21.2762 14.7733 20.8439 14.7673 20.3956C14.7613 19.9473 14.5775 19.5197 14.2563 19.207C13.935 18.8942 13.5027 18.7218 13.0544 18.7278ZM13.0544 21.4008C12.921 21.4021 12.7887 21.3765 12.6654 21.3255C12.5421 21.2744 12.4304 21.1991 12.337 21.1038C12.2435 21.0086 12.1702 20.8955 12.1215 20.7713C12.0728 20.6471 12.0496 20.5144 12.0534 20.381C12.0572 20.2476 12.0879 20.1164 12.1436 19.9952C12.1993 19.8739 12.2789 19.7652 12.3776 19.6754C12.4763 19.5857 12.5921 19.5168 12.7181 19.4728C12.8441 19.4289 12.9776 19.4108 13.1108 19.4197C13.3719 19.425 13.6207 19.5317 13.8045 19.7172C13.9884 19.9027 14.0928 20.1525 14.0957 20.4136C14.0952 20.5478 14.0676 20.6804 14.0144 20.8035C13.9612 20.9267 13.8836 21.0377 13.7863 21.13C13.6889 21.2223 13.5739 21.2939 13.4481 21.3404C13.3223 21.387 13.1884 21.4075 13.0544 21.4008Z" fill="white"/>
<path d="M12.7725 7.96387C12.5936 7.96386 12.4165 7.99935 12.2514 8.06829C12.0863 8.13723 11.9365 8.23825 11.8107 8.36549C11.6849 8.49274 11.5856 8.64368 11.5186 8.80957C11.4516 8.97546 11.4182 9.153 11.4203 9.3319C11.4196 9.50703 11.454 9.68052 11.5215 9.84212C11.589 10.0037 11.6881 10.1502 11.8131 10.2729C11.9381 10.3955 12.0864 10.4919 12.2492 10.5564C12.4121 10.6208 12.5862 10.652 12.7613 10.6481C13.1156 10.6482 13.4559 10.5091 13.7088 10.2608C13.9617 10.0126 14.107 9.67496 14.1135 9.32064C14.1078 8.96528 13.9652 8.62582 13.7154 8.37304C13.4656 8.12027 13.1278 7.97369 12.7725 7.96387ZM12.7567 9.97198C12.6675 9.97391 12.5789 9.95767 12.4961 9.92426C12.4134 9.89085 12.3383 9.84095 12.2754 9.77762C12.2126 9.71428 12.1632 9.63882 12.1305 9.55583C12.0977 9.47283 12.0821 9.38404 12.0847 9.29484C12.0873 9.20565 12.108 9.11792 12.1456 9.03697C12.1832 8.95603 12.2368 8.88357 12.3032 8.82401C12.3697 8.76444 12.4475 8.71901 12.5321 8.69048C12.6166 8.66194 12.7061 8.6509 12.7951 8.65803C12.8808 8.65966 12.9653 8.6787 13.0435 8.71398C13.1217 8.74926 13.1919 8.80005 13.2498 8.86328C13.3078 8.9265 13.3523 9.00084 13.3807 9.08178C13.409 9.16273 13.4207 9.24859 13.4148 9.33416C13.4143 9.41947 13.3967 9.50382 13.3632 9.58227C13.3297 9.66073 13.2808 9.73171 13.2196 9.79109C13.1583 9.85047 13.0858 9.89704 13.0064 9.9281C12.9269 9.95916 12.842 9.97408 12.7567 9.97198Z" fill="white"/>
<path d="M9.04486 13.348C8.69193 13.3555 8.35549 13.4988 8.10567 13.7483C7.85585 13.9977 7.71192 14.3338 7.70387 14.6868C7.70318 14.8661 7.7386 15.0438 7.80801 15.2092C7.87743 15.3745 7.97942 15.5243 8.10792 15.6494C8.23642 15.7745 8.38879 15.8725 8.55595 15.9375C8.72311 16.0025 8.90165 16.0332 9.08092 16.0278C9.25587 16.027 9.42889 15.991 9.5897 15.9222C9.75052 15.8533 9.89587 15.7528 10.0171 15.6267C10.1384 15.5006 10.2331 15.3514 10.2957 15.188C10.3583 15.0246 10.3874 14.8503 10.3814 14.6755C10.3784 14.3228 10.2363 13.9855 9.98608 13.7369C9.73583 13.4884 9.39758 13.3486 9.04486 13.348ZM9.72099 14.7386C9.71974 14.8242 9.70091 14.9086 9.66566 14.9866C9.63042 15.0646 9.5795 15.1345 9.5161 15.192C9.45269 15.2495 9.37813 15.2933 9.29707 15.3208C9.216 15.3482 9.13015 15.3587 9.04486 15.3516C8.9552 15.3531 8.86625 15.3355 8.78393 15.3C8.70161 15.2644 8.62782 15.2117 8.56747 15.1454C8.50712 15.0791 8.46159 15.0006 8.43393 14.9153C8.40627 14.83 8.3971 14.7398 8.40704 14.6507C8.40643 14.5696 8.42202 14.4893 8.4529 14.4143C8.48377 14.3394 8.52931 14.2714 8.58683 14.2143C8.64436 14.1572 8.71271 14.1121 8.78788 14.0818C8.86305 14.0515 8.94353 14.0365 9.02457 14.0377C9.11715 14.0333 9.20961 14.0486 9.29588 14.0825C9.38214 14.1164 9.46028 14.1681 9.52517 14.2343C9.59007 14.3004 9.64025 14.3796 9.67245 14.4665C9.70464 14.5534 9.71811 14.6461 9.71198 14.7386H9.72099Z" fill="white"/>
<path d="M18.1454 10.9996C17.7983 11.0059 17.4671 11.1465 17.2216 11.392C16.9761 11.6374 16.8353 11.9685 16.8288 12.3156C16.8224 12.6627 16.9509 12.9987 17.1871 13.2531C17.4234 13.5074 17.7491 13.6602 18.0958 13.6793C18.2757 13.6893 18.4558 13.6628 18.6253 13.6016C18.7949 13.5403 18.9503 13.4455 19.0823 13.3228C19.2144 13.2002 19.3203 13.0522 19.3939 12.8876C19.4674 12.7231 19.507 12.5454 19.5104 12.3652C19.5137 12.185 19.4807 12.006 19.4133 11.8388C19.3459 11.6717 19.2454 11.5198 19.118 11.3923C18.9906 11.2649 18.8388 11.1644 18.6717 11.0969C18.5046 11.0294 18.3256 10.9963 18.1454 10.9996ZM18.1454 12.9942C18.0562 12.9977 17.9673 12.9829 17.884 12.9508C17.8008 12.9187 17.7249 12.87 17.6612 12.8076C17.5974 12.7452 17.547 12.6704 17.5132 12.5879C17.4793 12.5053 17.4626 12.4168 17.4641 12.3276C17.4657 12.2383 17.4854 12.1504 17.5221 12.0691C17.5588 11.9877 17.6117 11.9148 17.6776 11.8546C17.7435 11.7944 17.8209 11.7483 17.9052 11.7191C17.9895 11.6899 18.0789 11.6782 18.1679 11.6848C18.5758 11.7141 18.7606 11.962 18.7967 12.3474C18.7982 12.4329 18.7825 12.5179 18.7504 12.5972C18.7183 12.6765 18.6705 12.7486 18.6099 12.809C18.5493 12.8694 18.4771 12.9169 18.3976 12.9487C18.3182 12.9806 18.2332 12.996 18.1476 12.9942H18.1454Z" fill="white"/>
<path d="M16.1127 8.30859C15.8495 8.3109 15.5928 8.3906 15.3746 8.53775C15.1564 8.68491 14.9864 8.89303 14.8856 9.13616C14.7848 9.3793 14.7579 9.6467 14.808 9.90507C14.8582 10.1634 14.9832 10.4013 15.1676 10.5891C15.352 10.7769 15.5876 10.9063 15.845 10.9611C16.1024 11.0159 16.3703 10.9938 16.6152 10.8975C16.8602 10.8012 17.0713 10.6349 17.2224 10.4194C17.3735 10.2039 17.4579 9.94874 17.465 9.68565C17.4682 9.50599 17.4357 9.32748 17.3692 9.16054C17.3027 8.9936 17.2037 8.84159 17.0778 8.71338C16.9519 8.58518 16.8017 8.48335 16.636 8.41385C16.4703 8.34434 16.2924 8.30856 16.1127 8.30859ZM16.0676 10.3054C15.9032 10.3037 15.746 10.2376 15.6297 10.1213C15.5134 10.005 15.4473 9.84782 15.4456 9.68339C15.4403 9.59352 15.4536 9.50354 15.4846 9.41903C15.5156 9.33452 15.5637 9.2573 15.6259 9.19219C15.688 9.12707 15.7629 9.07544 15.8459 9.04053C15.9289 9.00561 16.0182 8.98815 16.1082 8.98923C16.2875 8.98923 16.4595 9.06047 16.5863 9.18727C16.7131 9.31407 16.7843 9.48604 16.7843 9.66536C16.7797 9.7546 16.7575 9.84204 16.7189 9.92263C16.6803 10.0032 16.6261 10.0754 16.5595 10.1349C16.4928 10.1944 16.415 10.2401 16.3306 10.2694C16.2462 10.2987 16.1568 10.3109 16.0676 10.3054Z" fill="white"/>
</svg>
