<svg width="26" height="26" viewBox="0 0 26 26" fill="none" xmlns="http://www.w3.org/2000/svg">
<path d="M24.0572 0H1.75392C1.33141 0 0.926198 0.167844 0.627434 0.466607C0.328671 0.76537 0.160828 1.17058 0.160828 1.59309V23.8964C0.160828 24.3189 0.328671 24.7241 0.627434 25.0229C0.926198 25.3217 1.33141 25.4895 1.75392 25.4895H24.0572C24.4798 25.4895 24.885 25.3217 25.1837 25.0229C25.4825 24.7241 25.6503 24.3189 25.6503 23.8964V1.59309C25.6503 1.17058 25.4825 0.76537 25.1837 0.466607C24.885 0.167844 24.4798 0 24.0572 0ZM8.1263 21.5068H4.14356V9.55857H8.1263V21.5068ZM6.13493 7.96547C5.6623 7.96547 5.20029 7.82532 4.80732 7.56275C4.41434 7.30017 4.10806 6.92696 3.92719 6.49031C3.74632 6.05366 3.699 5.57318 3.79121 5.10963C3.88341 4.64609 4.111 4.2203 4.4452 3.8861C4.7794 3.5519 5.20519 3.32431 5.66874 3.2321C6.13228 3.1399 6.61276 3.18722 7.04941 3.36809C7.48606 3.54896 7.85927 3.85524 8.12185 4.24822C8.38442 4.64119 8.52457 5.1032 8.52457 5.57583C8.52457 6.2096 8.27281 6.81742 7.82466 7.26556C7.37652 7.71371 6.7687 7.96547 6.13493 7.96547ZM21.6676 21.5068H17.6849V13.5413C17.6849 12.8802 16.7927 12.3465 15.6935 12.3465C14.1004 12.3465 13.7021 14.4733 13.7021 15.1344V21.5068H9.71939V9.55857H13.7021V12.3465C13.7021 10.3551 15.4864 9.55857 17.6849 9.55857C18.7412 9.55857 19.7542 9.97817 20.5011 10.7251C21.248 11.472 21.6676 12.485 21.6676 13.5413V21.5068Z" fill="#0177B5"/>
</svg>
