<svg width="18" height="18" viewBox="0 0 18 18" fill="none" xmlns="http://www.w3.org/2000/svg">
<path d="M9 18C4.02929 18 0 13.9707 0 9C0 4.02929 4.02929 0 9 0C13.9707 0 18 4.02929 18 9C18 13.9707 13.9707 18 9 18ZM9 0.979082C4.59414 0.979082 0.97908 4.59414 0.97908 9C0.97908 13.4059 4.59414 17.0209 9 17.0209C13.4059 17.0209 17.0209 13.4059 17.0209 9C17.0209 4.59414 13.4059 0.979082 9 0.979082Z" fill="white"/>
<path d="M8.81174 14.1589L8.13391 13.4435L12.5398 8.99994L8.13391 4.55643L8.81174 3.84094L13.9707 8.99994L8.81174 14.1589Z" fill="white"/>
<path d="M13.2552 9.52717H4.21753V8.47278H13.2552V9.52717Z" fill="white"/>
</svg>
