<svg width="18" height="18" viewBox="0 0 18 18" fill="none" xmlns="http://www.w3.org/2000/svg">
<path d="M8.55634 9.70417C9.02776 9.70417 9.40992 9.32201 9.40992 8.85059C9.40992 8.37917 9.02776 7.99701 8.55634 7.99701C8.08492 7.99701 7.70276 8.37917 7.70276 8.85059C7.70276 9.32201 8.08492 9.70417 8.55634 9.70417Z" fill="white"/>
<path d="M11.9706 9.70417C12.4421 9.70417 12.8242 9.32201 12.8242 8.85059C12.8242 8.37917 12.4421 7.99701 11.9706 7.99701C11.4992 7.99701 11.1171 8.37917 11.1171 8.85059C11.1171 9.32201 11.4992 9.70417 11.9706 9.70417Z" fill="white"/>
<path d="M5.14203 9.70417C5.61346 9.70417 5.99562 9.32201 5.99562 8.85059C5.99562 8.37917 5.61346 7.99701 5.14203 7.99701C4.67061 7.99701 4.28845 8.37917 4.28845 8.85059C4.28845 9.32201 4.67061 9.70417 5.14203 9.70417Z" fill="white"/>
<path d="M14.5912 2.81573C13.1906 1.40604 11.3421 0.529165 9.36437 0.33628C7.3866 0.143395 5.40351 0.646588 3.75698 1.75911C2.11045 2.87163 0.903671 4.52376 0.344684 6.43066C-0.214303 8.33757 -0.0904633 10.3798 0.694854 12.2051C0.776704 12.3748 0.80356 12.5658 0.771676 12.7514L0.0205235 16.3621C-0.0084162 16.5005 -0.00250666 16.644 0.0377211 16.7796C0.0779489 16.9151 0.151234 17.0386 0.250991 17.1388C0.332768 17.22 0.430136 17.2838 0.537226 17.3264C0.644317 17.3689 0.758912 17.3893 0.874106 17.3864H1.04482L4.69816 16.6523C4.88384 16.63 5.07213 16.6565 5.24445 16.7291C7.06983 17.5144 9.11202 17.6383 11.0189 17.0793C12.9258 16.5203 14.578 15.3135 15.6905 13.667C16.803 12.0205 17.3062 10.0374 17.1133 8.05961C16.9204 6.08185 16.0435 4.23335 14.6339 2.8328L14.5912 2.81573ZM15.2997 9.95168C15.1328 10.9708 14.7369 11.9389 14.1418 12.7829C13.5467 13.627 12.768 14.3251 11.8641 14.8247C10.9603 15.3242 9.95485 15.6123 8.92358 15.6672C7.8923 15.7221 6.86201 15.5423 5.91024 15.1415C5.57269 14.9979 5.21008 14.9225 4.84326 14.9195C4.68303 14.9207 4.52316 14.9349 4.36526 14.9622L1.95816 15.4488L2.4447 13.0416C2.5416 12.5203 2.47913 11.9819 2.26545 11.4967C1.8646 10.5449 1.68484 9.51461 1.73972 8.48333C1.79459 7.45205 2.08266 6.44666 2.58225 5.5428C3.08183 4.63894 3.77992 3.86017 4.62398 3.2651C5.46803 2.67002 6.43607 2.27415 7.45523 2.10726C8.525 1.93169 9.6212 2.01334 10.6532 2.34546C11.6851 2.67758 12.6232 3.25062 13.3897 4.01718C14.1563 4.78374 14.7293 5.7218 15.0614 6.75375C15.3936 7.78571 15.4752 8.88191 15.2997 9.95168Z" fill="white"/>
</svg>
