<svg width="278" height="109" viewBox="0 0 278 109" fill="none" xmlns="http://www.w3.org/2000/svg">
<path d="M34.7753 101.45C45.8414 101.45 56.9076 101.474 67.9737 101.42C69.1716 101.42 69.247 101.881 69.2712 102.844C69.2981 103.854 69.0263 104.15 67.9899 104.147C45.7768 104.119 23.5629 104.108 1.34799 104.115C0.925366 104.115 0.249714 104.36 0.123198 103.886C-0.0410659 103.17 -0.0410659 102.427 0.123198 101.711C0.220104 101.251 0.833844 101.461 1.21878 101.458C5.35524 101.447 9.49439 101.447 13.6362 101.458L34.7753 101.45Z" fill="white"/>
<path d="M243.393 104.126C232.321 104.126 221.253 104.099 210.184 104.161C208.927 104.161 208.962 103.622 208.916 102.718C208.862 101.679 209.201 101.429 210.216 101.429C232.397 101.459 254.578 101.455 276.758 101.415C278.058 101.415 277.924 102.013 277.988 102.871C278.067 103.892 277.76 104.155 276.726 104.15C265.614 104.11 254.502 104.126 243.393 104.126Z" fill="white"/>
<path d="M174.291 101.472C174.291 103.27 174.291 105.071 174.291 106.869C174.291 107.676 174.256 108.511 173.112 108.484C172.054 108.454 172.035 107.676 172.035 106.906C172.035 104.201 172.035 101.499 172.035 98.7933C172.035 97.9292 172.196 97.2132 173.214 97.1082C174.231 97.0032 175.211 97.0113 175.593 98.2657C176.272 100.495 176.969 102.715 177.747 105.235C178.482 102.85 179.13 100.731 179.79 98.6156C180.226 97.2266 180.724 96.9197 182.132 97.0893C182.956 97.1862 183.389 97.6116 183.389 98.4568C183.389 101.367 183.389 104.274 183.389 107.184C183.389 107.902 183.174 108.489 182.283 108.489C181.346 108.489 181.106 107.889 181.101 107.116C181.101 105.194 181.101 103.27 180.894 101.297C180.266 103.243 179.645 105.189 179.009 107.135C178.797 107.787 178.689 108.508 177.717 108.503C176.746 108.497 176.641 107.773 176.42 107.125C175.801 105.24 175.2 103.342 174.595 101.45L174.291 101.472Z" fill="white"/>
<path d="M142.511 99.8084C142.214 99.1514 141.748 98.5858 141.159 98.1702C140.57 97.7546 139.88 97.5042 139.162 97.445C137.703 97.305 136.223 97.3454 134.753 97.3373C133.73 97.3373 133.302 97.8972 133.315 98.8959C133.337 100.207 133.315 101.515 133.315 102.823V106.861C133.315 107.539 133.542 108.188 134.266 108.207C136.215 108.29 138.207 108.603 140.099 107.892C142.882 106.869 144.032 102.85 142.511 99.8084ZM140.15 104.845C139.639 106.078 137.302 106.831 136.075 106.237C135.719 106.064 135.805 105.768 135.805 105.502C135.805 104.603 135.805 103.701 135.805 102.81C135.805 102.36 135.717 101.886 135.824 101.464C136.005 100.767 135.213 99.6765 136.363 99.4073C138.317 98.9497 139.725 99.5634 140.234 100.901C140.725 102.176 140.695 103.592 140.15 104.845Z" fill="white"/>
<path d="M153.265 102.772C153.265 101.544 153.265 100.314 153.265 99.0839C153.265 97.9614 153.704 97.3019 154.931 97.318C156.815 97.3423 158.7 97.318 160.584 97.3315C161.281 97.3315 161.96 97.4715 161.916 98.384C161.873 99.2965 161.219 99.3692 160.506 99.3611C159.276 99.3611 158.04 99.4365 156.818 99.3369C155.741 99.2481 155.906 99.8941 155.876 100.548C155.844 101.286 155.876 101.805 156.875 101.719C157.933 101.63 159.004 101.698 160.07 101.706C160.708 101.706 161.235 101.905 161.244 102.651C161.252 103.396 160.759 103.657 160.116 103.673C158.972 103.706 157.822 103.746 156.675 103.698C155.464 103.647 155.941 104.521 155.908 105.044C155.876 105.566 155.601 106.325 156.689 106.271C158.035 106.204 159.381 106.271 160.746 106.271C161.483 106.271 162.091 106.473 162.046 107.348C162.013 108.18 161.394 108.293 160.735 108.295C158.767 108.295 156.802 108.295 154.834 108.295C153.72 108.309 153.284 107.698 153.27 106.68C153.265 105.396 153.265 104.083 153.265 102.772Z" fill="white"/>
<path d="M123.576 106.804C122.535 103.881 121.469 100.969 120.419 98.0479C120.136 97.2592 119.528 97.0439 118.887 97.0708C118.08 97.0708 117.503 97.2296 117.218 97.9887C116.141 100.899 115.008 103.79 113.915 106.697C113.646 107.407 113.646 108.15 114.505 108.422C115.299 108.691 115.966 108.436 116.168 107.488C116.211 107.292 116.341 107.111 116.378 106.912C116.516 106.177 116.941 105.897 117.681 105.997C118.048 106.044 118.418 106.044 118.785 105.997C120.088 105.833 121.07 106.032 121.294 107.631C121.415 108.506 122.203 108.648 122.933 108.412C123.703 108.161 123.829 107.507 123.576 106.804ZM119.431 104.234H117.299L118.674 100.088C119.35 101.305 119.582 102.538 119.98 103.703C120.155 104.199 119.781 104.234 119.431 104.234Z" fill="white"/>
<path d="M85.9042 106.788C84.892 103.854 83.8234 100.944 82.7709 98.0233C82.5017 97.2938 81.9418 97.0758 81.2231 97.0704C80.5043 97.065 79.896 97.1619 79.608 97.9076C78.4828 100.844 77.3441 103.776 76.2647 106.729C76.0224 107.388 75.9713 108.182 76.8973 108.443C77.7264 108.675 78.4209 108.376 78.5662 107.48C78.7735 106.196 79.4734 105.789 80.6793 105.997C81.0035 106.053 81.335 106.053 81.6591 105.997C82.752 105.795 83.3362 106.239 83.5434 107.313C83.6726 108.005 83.9876 108.562 84.7844 108.484C85.7965 108.47 86.2595 107.824 85.9042 106.788ZM81.7587 104.247C79.6483 104.422 79.5918 104.373 80.2755 102.333C80.507 101.641 80.7385 100.947 81.0831 99.8968C81.5676 101.348 81.9283 102.416 82.2863 103.488C82.4694 103.986 82.3509 104.201 81.7587 104.247Z" fill="white"/>
<path d="M100.604 108.557C97.7777 108.525 96.0953 107.397 95.382 105.198C94.5018 102.484 95.2905 99.4074 97.2125 98.0399C98.1575 97.3729 99.2859 97.0148 100.443 97.0148C101.599 97.0148 102.728 97.3729 103.673 98.0399C104.198 98.3688 104.594 98.8676 104.795 99.4531C104.954 99.9915 104.973 100.53 104.432 100.883C103.891 101.235 103.355 101.117 102.863 100.708C102.769 100.631 102.688 100.54 102.623 100.438C101.974 99.3616 101.059 98.8825 99.8209 99.2082C98.5826 99.5339 97.9662 100.516 97.7239 101.701C97.4874 102.748 97.5709 103.843 97.9635 104.842C98.771 106.81 101.067 107.114 102.375 105.442C102.516 105.241 102.667 105.047 102.828 104.861C103.022 104.645 103.287 104.506 103.575 104.468C103.864 104.43 104.156 104.496 104.4 104.654C104.995 104.974 104.968 105.537 104.787 106.056C104.289 107.491 103.094 108.094 101.743 108.449C101.368 108.522 100.986 108.558 100.604 108.557Z" fill="white"/>
<path d="M197.68 101.55C198.323 100.368 198.996 99.1646 199.64 97.9479C200.052 97.1672 200.633 96.8361 201.44 97.2938C202.248 97.7514 202.181 98.392 201.761 99.0811C201.341 99.7702 200.953 100.508 200.477 101.167C199.222 102.909 198.444 104.761 198.754 106.974C198.881 107.87 198.485 108.503 197.462 108.481C196.474 108.462 196.135 107.805 196.286 106.992C196.786 104.301 195.255 102.322 193.971 100.263C193.701 99.8456 193.432 99.4418 193.212 99.0031C192.891 98.357 192.845 97.711 193.58 97.3045C194.315 96.8981 194.942 97.0622 195.357 97.7944C195.963 98.8712 196.528 99.9479 197.128 101.025C197.23 101.202 197.265 101.496 197.68 101.55Z" fill="white"/>
<path d="M116.553 48.9164C115.477 48.2812 104.354 42.8544 101.065 41.8827C84.2029 36.9001 68.3615 39.0051 53.2629 48.1008C41.4403 55.2207 33.5102 65.439 27.9865 77.8187C26.2099 81.8188 24.3256 85.7731 22.4683 89.7409C21.8599 91.0464 21.0174 92.1366 19.4911 92.4327C17.125 92.8823 15.6391 91.9967 14.8961 89.6871C12.5309 82.3294 10.171 74.9663 7.81657 67.5978C7.74172 67.2707 7.57338 66.9723 7.33204 66.7391V68.0204C7.33204 74.8254 7.33204 81.6277 7.33204 88.4327C7.33204 91.1245 5.86767 92.605 3.37234 92.4973C1.73839 92.43 0.575515 91.5094 0.212117 89.9159C0.0811524 89.2747 0.0197818 88.6213 0.0290716 87.967C0.0183043 78.5778 0.0183043 69.1896 0.0290716 59.8022C0.0290716 56.5021 1.20541 55.3015 4.52445 55.2046C5.2997 55.1831 6.08033 55.1804 6.85827 55.2046C9.43167 55.3042 10.4788 56.0283 11.2863 58.4859C12.4708 62.1038 13.5771 65.7539 14.7023 69.3825C15.849 73.0892 16.9796 76.8012 18.2017 80.7878C19.6903 77.5388 21.0739 74.5589 22.4279 71.5629C29.3486 56.2409 40.8212 45.5597 56.1243 38.9728C66.7383 34.3967 77.7964 33.939 89.0213 36.4048C95.0591 37.7292 100.766 39.9715 106.284 42.7144C107.848 43.4978 115.633 48.0685 116.553 48.9164Z" fill="#EB098B"/>
<path d="M91.0052 67.7967V84.12C91.0052 85.719 91.0402 87.3206 90.9837 88.9169C90.9056 91.2265 89.4709 92.497 87.0347 92.4943C84.5986 92.4916 83.1181 91.2399 83.11 88.9115C83.0759 79.0701 83.0759 69.2296 83.11 59.3901C83.11 56.8624 84.6013 55.5327 87.0859 55.2742C89.8047 54.9916 91.6082 55.9741 93.0402 58.3833C97.2503 65.4575 101.654 72.4132 105.985 79.4147C106.152 79.6839 106.351 79.9288 106.72 80.4403V78.8763C106.72 72.397 106.785 65.9178 106.696 59.4412C106.642 55.5354 109.565 54.6982 112.327 55.46C113.749 55.8503 114.559 57.0751 114.594 58.7575C114.637 60.7225 114.615 62.693 114.615 64.6607C114.615 72.0417 114.615 79.4227 114.615 86.8038C114.631 87.3775 114.616 87.9516 114.572 88.5239C114.319 90.9734 112.823 92.3086 110.378 92.5078C107.875 92.7124 106.15 91.8617 104.79 89.6275C100.634 82.8118 96.2974 76.101 92.0308 69.3526C91.7751 68.938 91.4951 68.5343 91.0052 67.7967Z" fill="#F6932C"/>
<path d="M254.564 68.2221C254.564 74.9517 254.564 81.6652 254.564 88.3894C254.564 91.5765 252.254 93.2482 249.18 92.3545C247.713 91.9292 246.925 90.9224 246.696 89.4661C246.604 88.7747 246.564 88.0773 246.577 87.38C246.577 78.6476 246.577 69.9153 246.577 61.183C246.563 60.3631 246.61 59.5433 246.72 58.7307C247.1 56.2596 248.941 55.0563 251.921 55.2044C253.805 55.2959 255.151 56.1061 256.131 57.7266C260.51 64.8896 264.941 72.0203 269.358 79.1591C269.587 79.5305 269.846 79.8832 270.303 80.5588V79.0433C270.303 72.3191 270.303 65.5949 270.303 58.8707C270.303 57.3336 270.86 56.09 272.354 55.5624C273.956 54.9971 275.601 54.9567 277.009 56.1142C277.325 56.374 277.578 56.7036 277.746 57.0772C277.914 57.4508 277.993 57.8583 277.978 58.2677C277.956 68.3944 277.951 78.5211 277.962 88.6478C277.962 90.4379 276.928 91.7757 275.219 92.2764C272.274 93.1405 270.193 92.4325 268.57 89.8887C264.263 83.1179 259.968 76.3353 255.687 69.5411C255.385 69.07 255.078 68.6017 254.774 68.1306L254.564 68.2221Z" fill="#F6932C"/>
<path d="M158.091 73.856C158.091 69.0591 158.091 64.2631 158.091 59.4681C158.091 56.7143 159.531 55.2554 162.218 55.2392C164.716 55.223 166.24 56.8139 166.256 59.4654C166.256 62.4264 166.283 65.3686 166.256 68.3189C166.256 69.1264 166.406 69.4763 167.332 69.4656C171.553 69.4207 175.77 69.4207 179.984 69.4656C180.854 69.4656 181.099 69.1964 181.085 68.3485C181.042 65.3551 181.058 62.3645 181.085 59.3712C181.085 57.4869 182.025 56.0521 183.548 55.4895C184.395 55.1682 185.319 55.1093 186.2 55.3205C187.081 55.5318 187.878 56.0034 188.488 56.674C189.179 57.4654 189.373 58.4317 189.376 59.4169C189.396 69.0089 189.396 78.599 189.376 88.1873C189.376 90.4593 188.248 91.9559 186.34 92.4081C184.358 92.8792 182.479 92.1174 181.586 90.4754C181.215 89.7425 181.039 88.9269 181.074 88.1066C181.074 84.583 181.05 81.0566 181.096 77.533C181.096 76.6689 180.845 76.4213 179.987 76.4294C175.766 76.4689 171.549 76.4689 167.335 76.4294C166.42 76.4294 166.258 76.7659 166.275 77.5734C166.31 81.1401 166.296 84.7041 166.275 88.2708C166.275 90.9626 164.713 92.5185 162.102 92.5024C159.569 92.4862 158.124 90.9546 158.118 88.2466C158.095 83.4461 158.086 78.6492 158.091 73.856Z" fill="#9ECC50"/>
<path d="M205.099 71.0889C207.43 68.5155 209.505 66.2167 211.592 63.9286C213.882 61.4198 216.152 58.8868 218.493 56.4238C219.158 55.7457 220.04 55.3233 220.984 55.2308C221.929 55.1382 222.876 55.3815 223.659 55.9177C225.395 57.129 225.568 59.3229 223.974 61.0322C221.471 63.7241 218.946 66.4159 216.353 69.0377C215.546 69.8453 215.462 70.3837 216.114 71.3662C219.371 76.2115 222.523 81.1564 225.767 86.026C226.844 87.6411 227.242 89.2562 226.101 90.9278C225.005 92.5429 223.296 92.6183 221.573 92.4245C220.418 92.2953 219.689 91.5119 219.086 90.5913C216.29 86.2664 213.495 81.9371 210.701 77.6032C210.326 77.0244 209.936 76.4538 209.446 75.7189C208.063 77.151 206.773 78.5103 205.452 79.8374C205.077 80.2116 205.099 80.645 205.099 81.0837C205.099 83.4606 205.128 85.8375 205.099 88.2144C205.05 91.0705 203.36 92.6425 200.579 92.4945C198.617 92.3895 197.301 91.2293 196.967 89.2831C196.894 88.8806 196.856 88.4726 196.854 88.0637C196.854 78.5992 196.854 69.1338 196.854 59.6675C196.854 56.5018 198.595 54.9567 201.678 55.2878C203.831 55.5193 205.088 57.086 205.102 59.6244C205.112 63.3095 205.099 66.9946 205.099 71.0889Z" fill="#EB098B"/>
<path d="M44.439 69.6167C44.439 66.0931 44.4175 62.5668 44.439 59.0432C44.4525 57.3069 45.33 56.0822 46.9478 55.463C47.7585 55.1631 48.6389 55.1052 49.4819 55.2963C50.3249 55.4875 51.0942 55.9195 51.6962 56.5398C52.4607 57.3877 52.633 58.4106 52.6303 59.5008C52.6303 65.8948 52.6303 72.2879 52.6303 78.6802C52.6199 79.4587 52.6894 80.2362 52.8376 81.0005C53.3759 83.6493 54.9659 85.2644 57.6075 85.8458C59.0523 86.1624 60.5455 86.1889 62.0006 85.9239C65.4381 85.3075 67.2739 83.2886 67.4085 79.8134C67.6642 73.0973 67.465 66.3758 67.5135 59.6542C67.5135 58.6583 67.5781 57.6865 68.1784 56.8386C69.1636 55.4469 70.994 54.8816 72.9214 55.3769C74.3669 55.7457 75.6348 57.0566 75.6428 58.6636C75.6724 65.9962 76.1247 73.3557 75.4813 80.656C74.8703 87.5686 71.2174 91.0842 64.4017 92.3601C60.8837 93.0333 57.2581 92.8906 53.8039 91.9429C48.283 90.4274 44.8159 86.142 44.5332 80.3114C44.361 76.7555 44.5009 73.1834 44.5009 69.6194L44.439 69.6167Z" fill="#39A7DE"/>
<path d="M120.992 74.0072C120.839 69.3638 121.921 65.0569 124.774 61.326C128.454 56.5157 133.533 54.8144 139.388 55.0405C143.851 55.2128 147.832 56.5964 150.923 59.9801C152.104 61.2722 153.012 62.7177 152.982 64.5723C152.96 65.9909 152.505 67.1942 151.133 67.7703C149.601 68.4109 148.083 68.349 146.75 67.2103C146.02 66.548 145.401 65.7728 144.917 64.9142C142.225 60.4619 135.105 60.7122 131.969 64.715C129.226 68.2144 128.763 72.2522 129.251 76.4757C129.587 79.3855 130.524 82.0505 132.809 84.0855C136.282 87.1757 141.752 86.6697 144.543 82.9711C145.208 82.0908 145.824 81.1622 146.565 80.3492C147.779 79.0168 149.571 78.8256 151.294 79.7328C152.767 80.508 153.294 81.819 152.85 83.7194C152.137 86.7639 150.104 88.7558 147.555 90.3467C141.025 94.4276 130.5 93.1866 125.385 87.6845C122.489 84.5646 121.364 80.7153 121.003 76.5887C120.93 75.7327 120.992 74.8686 120.992 74.0072Z" fill="#735AA4"/>
<path d="M239.175 73.8561C239.175 78.6557 239.188 83.4525 239.175 88.2494C239.175 91.2562 237.121 92.9574 234.19 92.4406C232.257 92.0987 231.024 90.6344 231.019 88.4997C230.999 78.7014 230.999 68.9031 231.019 59.1048C231.019 56.6822 232.634 55.2528 235.156 55.2582C237.579 55.2582 239.14 56.6956 239.159 59.0968C239.202 64.0174 239.175 68.9381 239.175 73.8561Z" fill="#39A7DE"/>
<path d="M73.6401 31.7291C82.5232 24.9026 85.102 20.8217 89.662 6.69495C89.4601 9.67481 89.4924 12.6547 89.4978 15.6345C89.4832 17.6478 89.6155 19.6595 89.8935 21.6535C90.378 24.8999 92.2623 26.9457 95.4279 27.8447C100.004 29.1234 104.693 29.4195 109.425 29.6321C107.431 30.1543 105.388 30.4854 103.417 31.0723C100.751 31.8755 98.1544 32.8918 95.6513 34.1113C95.0385 34.4331 94.3232 34.4989 93.662 34.2944C87.4439 32.5259 81.1181 31.5218 74.6307 31.7533C74.3939 31.7371 74.1677 31.7291 73.6401 31.7291Z" fill="#735AA4"/>
<path d="M37.0634 66.1279V73.2102C37.0634 78.1201 37.0634 83.0318 37.0634 87.9453C37.0723 88.5576 37.0118 89.169 36.883 89.7677C36.4093 91.7381 35.1037 92.6237 32.9745 92.4891C31.2355 92.3788 29.8681 91.1944 29.8008 89.3397C29.6743 85.9049 29.6904 82.462 29.7631 79.0272C29.7846 78.0124 30.5141 77.1429 30.9691 76.2385C32.7107 72.731 34.5546 69.2828 37.0634 66.1279Z" fill="#EB098C"/>
<path d="M98.0093 14.4713C99.0579 14.4808 100.08 14.8004 100.948 15.3899C101.815 15.9793 102.488 16.8122 102.883 17.7836C103.278 18.755 103.377 19.8216 103.167 20.849C102.957 21.8764 102.447 22.8187 101.703 23.5572C100.958 24.2957 100.012 24.7974 98.9831 24.9992C97.954 25.2009 96.8883 25.0937 95.92 24.6909C94.9518 24.2882 94.1244 23.608 93.542 22.7359C92.9596 21.8639 92.6482 20.839 92.6471 19.7903C92.6303 19.0836 92.7578 18.3808 93.0219 17.725C93.2859 17.0692 93.681 16.4742 94.1829 15.9763C94.6848 15.4784 95.283 15.0881 95.941 14.8294C96.5989 14.5706 97.3026 14.4487 98.0093 14.4713Z" fill="#735AA4"/>
<path d="M38.0701 41.1746C31.3405 39.5917 25.5504 36.2323 20.4009 31.6912L18.8396 30.1111L18.6404 30.2941L20.1102 31.9846C22.697 35.4598 25.2247 38.9834 27.2732 42.8112C28.9179 45.8799 28.6191 48.6659 26.4037 51.3497C23.6526 54.6903 20.3417 57.409 16.8881 59.9636L15.2999 61.0403L15.4452 61.2611L17.203 60.2866C20.0476 59.041 22.9992 58.0553 26.0215 57.3417C26.8157 57.1725 27.5226 56.7235 28.0134 56.0766C30.5515 53.0177 33.3312 50.1678 36.3258 47.5542C38.5487 45.6293 40.8705 43.8215 43.2815 42.1382C41.4188 41.8044 39.7256 41.5729 38.0701 41.1746Z" fill="#EB098B"/>
<path d="M19.717 51.5489C20.4222 51.5515 21.1209 51.4136 21.7722 51.1433C22.4235 50.873 23.0145 50.4756 23.5106 49.9745C24.0068 49.4733 24.3981 48.8784 24.6619 48.2244C24.9257 47.5704 25.0565 46.8704 25.0469 46.1653C25.043 45.4682 24.9018 44.7787 24.6315 44.1361C24.3611 43.4936 23.9668 42.9106 23.4712 42.4204C22.9755 41.9302 22.3881 41.5425 21.7426 41.2793C21.0971 41.0161 20.4061 40.8827 19.709 40.8866C19.0119 40.8904 18.3224 41.0316 17.6798 41.302C17.0373 41.5723 16.4543 41.9666 15.9641 42.4623C15.4739 42.9579 15.0862 43.5453 14.823 44.1908C14.5598 44.8363 14.4264 45.5274 14.4303 46.2245C14.433 47.6292 14.9897 48.9762 15.9795 49.9731C16.9693 50.9699 18.3123 51.5362 19.717 51.5489Z" fill="#EB098B"/>
<path d="M57.8121 31.1904C53.236 26.6816 50.3826 21.1902 48.7002 15.0393C47.692 11.2354 47.171 7.31887 47.1497 3.38367C47.0784 3.59072 47.02 3.80199 46.9747 4.01625C46.4711 8.93525 45.4792 13.7919 44.0137 18.5145C43.1685 21.2063 41.3461 22.8591 38.5654 23.4083C36.3366 23.8524 34.0754 23.6613 31.8358 23.6048C29.4793 23.5577 27.1313 23.3064 24.8182 22.8538C24.1102 22.4446 23.3108 22.6276 22.5624 22.4607C22.9924 22.8311 23.5328 23.0488 24.0995 23.0799C27.6096 24.4286 30.9518 26.1792 34.0593 28.2967C38.5515 31.31 42.5936 34.9452 46.0649 39.0936C46.6625 39.8043 47.1416 39.885 47.8846 39.3628C48.5727 38.9215 49.2854 38.5198 50.0192 38.1596C53.3544 36.3883 56.8942 35.1178 60.4555 33.9065C59.8579 32.7463 58.8458 31.9549 57.8121 31.1904Z" fill="#39A7DE"/>
<path d="M36.3769 20.6089C37.7413 20.5351 39.0266 19.9454 39.9723 18.9592C40.9179 17.9729 41.4533 16.664 41.4697 15.2978C41.4861 13.9315 40.9824 12.6101 40.0608 11.6014C39.1391 10.5927 37.8683 9.97224 36.5061 9.86572C35.1417 9.93945 33.8564 10.5292 32.9107 11.5154C31.965 12.5016 31.4297 13.8105 31.4133 15.1768C31.3969 16.5431 31.9005 17.8645 32.8222 18.8732C33.7439 19.8819 35.0147 20.5023 36.3769 20.6089Z" fill="#39A7DE"/>
<path d="M66.3479 10.641C69.4085 10.641 71.632 8.38523 71.6535 5.25731C71.6778 2.40126 69.212 -0.0213923 66.3049 0.000142472C64.8967 0.00369583 63.5472 0.564671 62.5514 1.56041C61.5557 2.55615 60.9947 3.90565 60.9912 5.31384C60.9669 8.33677 63.2927 10.6491 66.3479 10.641Z" fill="#F6932C"/>
<path d="M81.3924 4.09178C77.9321 7.20735 74.226 10.0385 70.3101 12.5576C67.2441 14.4931 64.3558 14.3854 61.4728 12.2319C58.0165 9.64236 55.1093 6.50637 52.3609 3.20617L51.1307 1.59106C51.4134 2.26672 51.5049 3.02312 52.0836 3.47535C54.9107 9.05173 56.7227 15.0867 57.435 21.298C57.8146 24.5794 58.1887 27.8742 57.8227 31.1905C58.5818 32.2188 59.5374 33.056 60.4553 33.9282C63.8766 33.1206 67.2899 32.2484 70.8081 31.9873C71.7637 31.9173 71.9333 31.5566 71.8848 30.6979C71.7596 28.1623 71.9404 25.6209 72.4232 23.1285C73.7287 16.0866 76.932 9.93846 81.422 4.43634C81.8769 4.07833 82.313 3.70416 82.3507 2.99351L81.3924 4.09178Z" fill="#F6932C"/>
</svg>
