<svg width="738" height="320" viewBox="0 0 738 320" fill="none" xmlns="http://www.w3.org/2000/svg">
<path d="M173 8.39271C77.8 -6.80729 28.6667 2.05937 16 8.39271L5 65.3927L0 119.393C5.33333 153.393 16 222.393 16 226.393C16 230.393 44 283.393 58 309.393H203C209.4 309.393 370.333 316.059 450 319.393H595H651L692 309.393L732 262.393L738 210.393C733.667 198.059 725 171.793 725 165.393V119.393L732 76.3927L725 8.39271H657H559H425C410 8.39271 290 20.3927 282 20.3927C275.6 20.3927 206.667 12.3927 173 8.39271Z" fill="#D6E3ED"/>
</svg>
