<svg width="18" height="18" viewBox="0 0 18 18" fill="none" xmlns="http://www.w3.org/2000/svg">
<path d="M5.20249 12.8263C7.03095 14.6551 9.04935 16.1033 10.8864 16.9049C11.892 17.3437 12.794 17.5632 13.5565 17.5632C14.3263 17.5632 14.9537 17.3393 15.4011 16.8919L17.1236 15.1693C17.6832 14.6098 17.6359 13.6522 17.0191 13.0351L14.4802 10.4962C14.1973 10.2133 13.8322 10.0385 13.4527 10.0045C13.0333 9.96717 12.6291 10.1077 12.3456 10.3916L11.5755 11.1665C11.3341 11.2741 10.0896 10.9059 8.58923 9.40557C7.08855 7.90489 6.721 6.66134 6.81186 6.43986L7.60283 5.64889C7.88672 5.36534 8.02798 4.9618 7.99026 4.54214C7.95598 4.16226 7.78112 3.79746 7.49826 3.51426L4.9594 0.975745C4.67655 0.692887 4.3114 0.51803 3.93186 0.484087C3.51289 0.446716 3.10866 0.586944 2.82512 0.871173L1.1026 2.59334C0.213918 3.48203 0.22489 5.08009 1.13346 7.09266C2.005 9.02226 3.4882 11.112 5.20249 12.8263ZM2.0722 3.56329L3.77963 1.85106C3.7851 1.84955 3.79076 1.84886 3.79643 1.849C3.83346 1.849 3.913 1.8682 3.9898 1.945L6.52866 4.4842C6.62123 4.57677 6.63015 4.67174 6.63323 4.67894L5.84226 5.4706C4.76775 6.54477 6.01026 8.76614 7.61929 10.3752C9.22832 11.9842 11.4493 13.2277 12.5242 12.1522L13.3001 11.3715C13.3234 11.3647 13.418 11.3732 13.5103 11.4658L16.0491 14.0047C16.1417 14.0972 16.1506 14.1925 16.154 14.1997L14.4308 15.9223C13.9872 16.3659 12.8389 16.2607 11.4343 15.648C9.75083 14.9132 7.88226 13.5668 6.17175 11.857C4.56992 10.2552 3.18889 8.31289 2.38318 6.52832C1.75472 5.13597 1.6354 4.00009 2.07186 3.56329H2.0722Z" fill="#455600"/>
</svg>
